<svg xmlns="http://www.w3.org/2000/svg" width="512" height="512" viewBox="0 0 512 512"><g transform="scale(0.4082934609250399)"><path fill="#fff" fill-rule="evenodd" d="M1079 49.137C1012.204 68.369 991.646 74 988.23 74c-3.131 0-4.518-.711-7.651-3.919-4.779-4.894-13.541-8.9-21.211-9.697-4.775-.496-7.315-.123-13.639 2.003-4.274 1.437-9.94 2.613-12.59 2.613-6.253 0-15.67 4.632-20.67 10.166-2.034 2.252-4.884 6.623-6.333 9.714-2.326 4.962-2.633 6.849-2.62 16.12.016 11.822 1.768 17.231 7.735 23.88l3.249 3.62-.262 82.236-.261 82.235-3.881 1.98c-4.484 2.287-9.967 8.35-14.141 15.635l-2.915 5.087-17.27 5.679c-17.256 5.675-23.903 6.976-41.77 8.179-12.705.855-22.479 2.917-33.628 7.093l-9.251 3.466-6.017-3.038C772.732 330.807 752.383 326 738.318 326c-4.349 0-5.329-.421-8.372-3.597-8.938-9.33-23.382-17.258-36.154-19.843-9.161-1.854-14.064-1.899-22.792-.206-6.026 1.168-6.938 1.096-12.5-.98-6.42-2.397-21.588-8.909-27.75-11.915L627 287.63v-8.128c0-7.762.138-8.26 3.062-11.061 3.731-3.574 12.257-16.703 15.063-23.191 5.469-12.65 8.209-35.192 8.296-68.25.04-14.782-1.1-19.942-6.54-29.618-6.039-10.743-20.989-22.051-31.701-23.98-4.662-.84-5.897-1.839-6.68-5.404-.912-4.152-7.468-11.118-13.606-14.459-11.09-6.036-28.983-4.07-39.642 4.356-5.613 4.437-10.718 11.609-12.488 17.546-1.888 6.33-1.581 17.421.618 22.298l1.882 4.173-2.783 7.294c-2.416 6.333-2.81 8.883-2.992 19.355-.193 11.067-.422 12.386-2.775 16-3.459 5.313-5.034 11.796-4.218 17.368 1.916 13.088 11.547 23.562 22.944 24.953l5.06.618.301 10.5c.346 12.077-1.137 25.214-3.176 28.125-2.979 4.254-9.909 8.057-22.604 12.405-7.263 2.488-15.021 5.45-17.242 6.583-3.492 1.781-4.62 1.913-8.351.973-7.4-1.863-20.129-1.307-27.486 1.201-18.068 6.16-33.289 21.72-41.005 41.917-1.882 4.926-3.178 6.469-9.495 11.308-12.273 9.4-23.995 22.631-37.475 42.3-17.069 24.904-21.154 32.082-21.742 38.198-.558 5.809.551 8.964 6.32 17.99 2.286 3.575 6.552 10.395 9.48 15.155 9.276 15.077 20.45 26.531 48.975 50.208 14.919 12.383 21 18.089 21 19.705 0 1.859 7.472 9.131 11.432 11.127 2.237 1.128 4.25 2.215 4.472 2.415s-1.479 3.048-3.78 6.329-5.553 9.023-7.226 12.762c-3.888 8.689-3.261 7.743-11.202 16.891-8.059 9.286-20.589 27.81-24.777 36.631-1.639 3.452-4.398 8.527-6.13 11.277s-9.288 17.15-16.79 32c-13.646 27.012-20.951 44.867-28.509 69.682-2.894 9.499-5.065 14.166-11.624 24.977-4.436 7.312-9.551 16.047-11.367 19.41-2.325 4.306-7.436 10.232-17.271 20.024-24.572 24.462-30.041 35.192-49.259 96.657-8.596 27.49-9.474 29.75-11.564 29.75-1.244 0-2.886.624-3.648 1.386s-4.466 8.933-8.23 18.159c-6.197 15.186-6.738 17.059-5.708 19.787 1.051 2.783.851 3.35-2.59 7.383-6.4 7.5-8.24 10.5-8.876 14.477-.491 3.075-2.25 5.532-8.734 12.207a1713 1713 0 0 0-15.119 15.79c-3.85 4.088-10.375 9.929-14.5 12.981-9.327 6.9-13.523 11.152-14.992 15.194-.627 1.725-2.235 5.227-3.574 7.783-2.792 5.331-3.059 9.132-.928 13.217.822 1.576 1.494 4.31 1.494 6.076 0 2.132.84 4 2.5 5.56 1.375 1.292 2.5 3.07 2.5 3.952 0 2.646 3.047 6.17 6.631 7.667 1.853.774 3.369 2.037 3.369 2.806 0 2.152 5.663 6.421 9.464 7.134 7.256 1.361 16.508-4.623 21.072-13.63 1.478-2.916 4.272-6.086 7.369-8.359 5.924-4.349 7.751-7.134 12.517-19.078 4.816-12.07 10.627-19.42 17.214-21.775 2.743-.98 6.589-3.102 8.546-4.715 5.16-4.254 6.818-8.477 6.818-17.368 0-6.711.343-8.104 3.04-12.349 1.672-2.632 3.729-7.148 4.571-10.035 1.67-5.726 1.567-5.682 9.889-4.301 6.43 1.066 8.094.126 11.045-6.244 2.355-5.082 2.422-5.132 6.536-4.835 3.104.224 4.966 1.11 7.359 3.503 1.762 1.762 4.971 3.718 7.132 4.347 11.842 3.449 19.584 2.359 25.538-3.595l3.683-3.682 3.273 2.242c4.516 3.095 10.852 3.926 14.712 1.93 1.673-.865 3.228-2.132 3.455-2.815.427-1.28 5.213-.714 90.267 10.672 69.456 9.299 86.04 11.583 87.25 12.017.95.341 1.25 5.922 1.25 23.288 0 22.82-.003 22.847-2.962 30.958-2.48 6.794-2.939 9.474-2.815 16.441.129 7.228-.223 9.114-2.672 14.324-3.734 7.942-4.689 19.231-2.043 24.144 1.928 3.58 10.063 8.356 14.234 8.356 3.24 0 7.258 4.269 7.258 7.711 0 8.339 5.158 15.211 13.424 17.887 2.792.904 6.426 2.889 8.076 4.411 6.316 5.826 14.882 7.703 20.5 4.491 1.375-.786 4.127-1.445 6.115-1.465 2.055-.02 4.713-.898 6.158-2.035 1.398-1.1 3.371-2.006 4.385-2.012s3.726-1.763 6.028-3.901c5.017-4.661 6.206-9.016 3.941-14.438-1.619-3.875-9.294-11.817-16.303-16.871-5.655-4.077-8.657-8.103-16.988-22.778l-7.096-12.5-.57-12.986c-.616-14.048-.169-17.058 6.498-43.764 2.394-9.588 3.574-12.75 4.758-12.748 1.531.001 205.08 28.91 232.074 32.96 7.425 1.114 13.775 2.028 14.111 2.031s.873 2.222 1.193 4.929c1.124 9.487 7.165 18.139 15.201 21.769 2.202.995 5.723 2.879 7.824 4.186 2.101 1.308 5.698 2.946 7.995 3.64 3.825 1.156 3.966 1.312 1.676 1.859-1.375.328-13.3 1.975-26.5 3.66s-24.371 3.435-24.825 3.889c-.975.975-8.655 33.57-8.667 36.783-.006 1.542 2.779 4.635 9.242 10.262 8.49 7.393 9.538 8.016 12.75 7.577l51.5-7.06c26.4-3.62 56.82-7.771 67.6-9.224l19.601-2.643 9.399 6.888c5.17 3.788 17.05 12.574 26.4 19.525 43.993 32.704 86.404 62.967 88.243 62.967 3.432 0 53.842-9.196 54.614-9.963.472-.468.53-10.25.13-21.737l-.727-20.887-14.217-10.347-14.216-10.347-.673-153.61c-.37-84.485-.68-328.884-.689-543.109-.009-233.302-.382-390.085-.929-390.96-.684-1.093-5.014-1.767-17.225-2.681-24.557-1.84-24.97-1.799-47.811 4.778m25.5.199c-.204.64-.624 217.389-.935 481.664-.31 264.275-.846 511.139-1.193 548.586l-.629 68.086 9.745 6.794 9.745 6.794 19.134-2.785c10.523-1.532 20.2-3.07 21.505-3.418 2.091-.558 1.016-1.572-9.104-8.595l-11.476-7.962-.641-22.5c-.353-12.375-.886-255.15-1.185-539.5s-.78-518.913-1.067-521.25c-.392-3.198-.959-4.25-2.287-4.25-1.726 0-19.864-1.597-27.427-2.415-2.351-.254-3.956.034-4.185.751m-15.197 3.024c-3.959 1.177-7.406 2.365-7.66 2.64s-.778 243.95-1.165 541.5-.886 541.195-1.108 541.434c-.541.58-23.169-14.775-54.37-36.895-23.547-16.694-25.768-18.041-29-17.588-1.925.269-22.4 2.988-45.5 6.042-52.433 6.931-84.729 11.391-85.024 11.739-.536.632-6.257 29.304-5.917 29.652.377.385 26.592-3.012 87.941-11.394 18.15-2.481 37.05-5.032 42-5.67l9-1.16 19.5 14.463c10.725 7.955 24.15 17.819 29.833 21.92 19.746 14.25 24.396 17.633 52.025 37.86 8.447 6.183 15.984 11.483 16.75 11.777 1.155.443 1.389-2.254 1.377-15.823-.009-8.996-.346-16.835-.75-17.419s-4.864-3.872-9.911-7.308-9.547-6.784-10-7.439-.585-55.641-.293-122.191c.291-66.55.625-212.125.74-323.5.116-111.375.514-304.312.884-428.75.58-194.707.477-226.235-.741-226.14-.777.06-4.653 1.073-8.611 2.25m-30.803 8.733c-7.15 2.144-20.425 5.956-29.5 8.471-15.979 4.43-20.994 6.436-16.088 6.436 1.271 0 12.724.664 25.45 1.475 12.726.812 26.175 1.652 29.888 1.867l6.75.391V68.366c0-10.195-.18-11.356-1.75-11.268-.963.054-7.6 1.852-14.75 3.995M948 66.877c-9.643 3.167-17.168 9.69-21.606 18.729-2.541 5.175-2.894 6.992-2.894 14.894 0 11.356 2.818 18.055 10.925 25.97 16.753 16.356 43.913 11.55 54.505-9.646 1.689-3.379 3.07-5.267 3.07-4.195 0 1.862 1.609 2.026 36.75 3.745 20.213.989 38.888 2.047 41.5 2.351l4.75.554V85.171l-7.25-.575c-11.616-.921-53.059-3.527-67.608-4.25l-13.358-.665 1.682 3.252c2.645 5.115 1.197 4.57-2.333-.878-3.546-5.471-8.323-9.605-15.133-13.095-4.848-2.484-18.12-3.686-23-2.083m-20.259 3.552c-6.559 2.341-12.935 8.164-16.501 15.071-1.959 3.794-2.69 6.962-3.03 13.133-.775 14.045 3.43 22.14 16.767 32.279 3.888 2.956 6.872 5.573 6.629 5.815-.35.35-5.757-1.896-10.856-4.509-.817-.419-1.067 158.132-.25 158.948.274.275 3.609-.168 7.411-.984 6.606-1.419 7.065-1.394 10.392.569l3.481 2.054.652-22.153c.359-12.183.746-47.169.859-77.746l.205-55.594-4.863-2.906c-21.005-12.553-25.711-40.732-10.02-59.997 4.767-5.852 4.738-5.983-.876-3.98M990 88.5c0 .275.225.5.5.5s.5-.225.5-.5-.225-.5-.5-.5-.5.225-.5.5m-34.984 9.207c-3.588 4.562-1.11 10.293 4.451 10.293 5.961 0 8.754-6.779 4.533-11-2.816-2.816-6.437-2.531-8.984.707m3.554 3.18c-.301.487.082 1.409.852 2.048 1.559 1.294 3.155-.193 2.078-1.935-.765-1.238-2.2-1.294-2.93-.113m-385.438 5.193c-9.961 1.952-18.845 8.709-23.249 17.684-1.843 3.757-2.329 6.424-2.353 12.903-.017 4.491.284 8.48.667 8.864.384.383 3.263-2.074 6.398-5.46 10.094-10.903 24.367-17.432 41.261-18.876l8.136-.695-1.963-3.22c-5.025-8.243-18.108-13.313-28.897-11.2m415.147 20.231-5.221 6.543-.693 291.073L981.671 715h2.132c2.032 0 2.145-.524 2.414-11.207l.283-11.207 3.5-.696c1.925-.383 13.625-1.446 26-2.363 12.375-.918 22.855-2.013 23.288-2.436.434-.422.659-5.228.5-10.679l-.288-9.912-11.823-2.865-11.822-2.866.347-26.134c.283-21.37.646-26.864 1.988-30.135 1.502-3.658 1.689-24.431 2.18-243.22.296-131.57.208-239.423-.195-239.672s-6.57-.765-13.704-1.147l-12.971-.694zm37.705 113.439c-.008 64.763-.295 170.288-.638 234.5-.406 76.259-.281 116.75.361 116.75.541 0 1.76-.859 2.71-1.909 2.212-2.443 6.059-4.02 13.303-5.45l5.78-1.141.573-80c.315-44 .657-147.334.76-229.631l.186-149.631-2.26-.605c-1.242-.333-6.421-.612-11.509-.619L1026 122zm27.015-116-.665 229.5-.662 228.75H1056V352.5c0-203.333-.171-229.5-1.5-229.5-.825 0-1.501.338-1.501.75m6.993 75.25c-.001 41.525-.296 144.688-.654 229.25l-.652 153.75h3.092c3.945 0 7.141 1.256 9.93 3.904 1.215 1.153 2.452 2.096 2.75 2.096s.542-104.364.542-231.921V124.158l-7.502-.329-7.503-.329zm-473.307-70.375c-18.169 3.898-33.211 16.704-38.805 33.035-1.971 5.753-2.346 8.863-2.362 19.57-.017 11.824-.169 12.835-2.138 14.215-4.833 3.388-6.685 12.469-4.219 20.697 1.99 6.642 10.418 14.858 15.242 14.858 1.072 0 .762-.786-1.087-2.75-3.317-3.524-7.094-11.586-7.878-16.814-.901-6.011 1.007-11.742 5.111-15.345 4.107-3.606 6.224-3.844 9.724-1.091 1.398 1.1 2.982 2 3.519 2s1.996-2.588 3.243-5.75c4.107-10.413 10.156-21.246 14.661-26.257 9.603-10.68 28.088-15.632 38.563-10.329 1.999 1.012 3.289 1.113 4.684.366 4.546-2.432 13.16-.219 18.297 4.7 1.506 1.443 3.022 2.342 3.367 1.996 1.381-1.381-5.787-14.063-11.092-19.625-6.373-6.682-15.254-11.303-26.161-13.614-8.436-1.788-13.847-1.755-22.669.138M971 138.622c-4.593 2.003-6.901 2.361-14 2.171l-8.5-.228v151.621l3.822 1.314c5.192 1.785 6.75 4.069 6.478 9.5-.141 2.808.454 5.772 1.581 7.882 1.233 2.307 1.6 4.374 1.156 6.5-.358 1.715-.972 5.917-1.364 9.338s-1.267 6.774-1.943 7.45-1.23 2.975-1.23 5.107c0 2.952-.698 4.574-2.923 6.8-1.608 1.608-3.567 2.923-4.353 2.923-1.236 0-1.502 45.407-1.961 334.75-.292 184.113-.392 334.904-.222 335.091s12.605-1.195 27.634-3.073l27.325-3.414v-26.778l-16.254-9.881-16.254-9.882.254-124.156.254-124.157 2.809-.322c1.545-.177 2.97-.852 3.167-1.5.708-2.334 1.453-579.675.747-579.566-.398.061-3.198 1.191-6.223 2.51m-369.071 20.745c-6.301 1.699-13.176 5.913-16.942 10.382-1.738 2.063-6.569 10.726-10.736 19.251s-8.064 15.82-8.661 16.212-2.721-.887-4.726-2.845c-4.474-4.369-6.75-4.125-9.249.992-1.67 3.421-1.747 4.473-.68 9.242.663 2.96 2.636 7.523 4.385 10.141 2.719 4.068 3.755 4.83 7.148 5.258 3.907.492 4.01.613 6.661 7.807 4.589 12.454 14.587 22.91 28.544 29.853 7.652 3.806 13.887 5.02 19.946 3.884 8.602-1.614 21.956-20.916 26.475-38.27 1.585-6.086 2.153-12.352 2.613-28.858.546-19.544.435-21.589-1.515-28.011-1.52-5.004-3.104-7.897-5.703-10.417-3.385-3.282-4.023-3.497-10.793-3.646-3.958-.087-9.221-.639-11.696-1.226-5.713-1.355-9.338-1.294-15.071.251m-35.241 91.883c.344 5.423-2.227 33.309-3.48 37.744-.572 2.024-.804 1.511-1.208-2.667l-.5-5.173-6 4.528c-3.3 2.491-6.169 4.688-6.376 4.882-.706.666 6.275 19.652 7.327 19.924.577.15 6.899 1.061 14.049 2.025 16.622 2.242 21.371 3.683 25.04 7.597l2.96 3.156-4-2.528c-2.2-1.391-5.575-3.016-7.5-3.61-2.965-.917-26.985-5.127-29.25-5.128-1.459 0-.7 2.579 2.725 9.252 10.416 20.298 23.418 30.044 44.411 33.291 4.789.741 4.692.973 2.58-6.2-.299-1.014.487.121 1.746 2.522l2.288 4.365 5.613-.508c10.29-.931 18.834-6.468 21.555-13.969 2.02-5.568 1-22.246-1.525-24.939-1.002-1.069-17.205 2.039-21.424 4.11-2.744 1.347-3.45 1.457-2.573.4 2.252-2.713 6.805-4.36 15.093-5.459 4.543-.603 8.412-1.232 8.597-1.4.888-.803-7.862-17.371-9.95-18.841l-2.386-1.68-.545 4.778-.544 4.778-.804-4c-2.18-10.853-1.972-10.846-5.534-.187-1.804 5.397-3.466 9.628-3.692 9.401-.227-.227 1.395-7.102 3.603-15.279S621 277.011 621 276.331c0-.892-1.356-1.076-4.859-.661-6.971.825-18.68-2.876-27.565-8.714-7.703-5.061-16.43-13.207-19.235-17.955-.975-1.651-2.045-3.001-2.379-3.001s-.457 2.363-.274 5.25M537 293.679c-1.925.833-3.651 1.66-3.835 1.836s.705 4.296 1.976 9.153c1.906 7.288 2.308 11.367 2.297 23.332-.016 17.359-.61 19.434-12.58 43.943-6.913 14.155-8.841 17.223-13.849 22.048l-5.817 5.605 2.753 8.563c2.381 7.404 4.805 12.675 9.812 21.341.636 1.1 1.846 4.529 2.69 7.621 1.49 5.461 1.654 5.645 5.793 6.479 2.343.473 27.66.891 56.26.929 33.009.044 55.287.49 61 1.223 10.396 1.333 23.236 1.845 24.119.962.82-.82 3.302-12.568 3.346-15.835.035-2.587-.025-2.609-4.715-1.731-2.612.489-7.45.556-10.75.148l-6-.742 8-.626c13.139-1.027 19.724-5.754 25.669-18.428 3.003-6.401 3.281-7.813 3.251-16.5-.05-14.274-2.147-20.23-14.963-42.5-3.482-6.05-10.538-19.304-15.681-29.453l-9.349-18.453-5.464-2.203c-3.005-1.211-5.609-2.062-5.787-1.89s.441 1.791 1.375 3.598c5.908 11.424 8.788 28.15 6.495 37.71-1.614 6.726-7.274 13.168-14.258 16.23-6.552 2.872-21.262 3.843-29.687 1.961-12.484-2.789-24.993-10.486-33.071-20.35-5.368-6.554-12.585-20.457-18.637-35.9-4.105-10.476-4.368-10.68-10.393-8.071m389.5 1.965c-12.289 2.96-13.791 3.583-18.015 7.477-2.376 2.19-5.794 6.824-7.595 10.298l-3.275 6.316-13.557 4.729c-20.556 7.169-25.6 8.454-37.558 9.561-24.334 2.252-32.832 3.739-43 7.521-5.5 2.046-10.225 3.929-10.5 4.185-1.083 1.008 8.959 8.914 12.616 9.933 3.343.933 3.51 1.101 1.199 1.21-1.477.069-3.89.584-5.364 1.145-2.185.83-2.578.754-2.131-.411.717-1.867-12.802-13.009-20.377-16.794-3.101-1.55-9.195-3.731-13.541-4.847-8.992-2.308-33.829-5.191-37.178-4.315-2.311.604-3.187-1.137-.974-1.937 1.894-.685-3.654-6.146-11.774-11.591-8.498-5.698-21.384-10.209-31.073-10.878-6.764-.466-19.779 1.426-25.954 3.773l-2.487.946 4.615 9.267c5.951 11.95 22.738 41.729 23.536 41.751 1.193.033 4.095-11.115 3.586-13.775l-.516-2.7 1.831 2.261 1.83 2.26 3.328-3.11C698.6 343.781 707.481 337 708.474 337c.435 0-2.618 3.569-6.786 7.931s-8.441 9.649-9.497 11.75c-2.12 4.217-4.71 14.133-3.903 14.94.282.282 3.965.033 8.185-.554 9.332-1.298 11.813-1.339 11.099-.184-.3.486 2.036 1.819 5.191 2.962 17.008 6.165 31.163 8.284 58.237 8.72 11.825.19 23.3.805 25.5 1.367 14.864 3.792 38.448-3.08 71.464-20.826 29.805-16.02 32.08-17.012 35.536-15.505 1.65.72 4.706 1.329 6.792 1.354l3.792.045-.292-7.75-.292-7.75-2.75.322c-1.513.176-2.75-.161-2.75-.75 0-.59.675-1.072 1.5-1.072s3.275-1.775 5.445-3.945c3.99-3.99 7.055-11.428 7.055-17.12 0-2.342.742-3.004 5.558-4.959l5.558-2.255 1.573 2.245c1.951 2.786 7.806 5.329 10.384 4.511 1.06-.337 1.927-.953 1.927-1.37 0-1.049-8.746-12.324-10.749-13.857-1.926-1.474-2.01-1.471-9.751.394M523 299.215l-4.5 1.985 5.25 2.607c2.888 1.434 5.25 2.894 5.25 3.246s-2.362-.176-5.25-1.174c-9.487-3.278-16.975-1.862-30.55 5.774-3.685 2.073-7.246 3.857-7.914 3.964-4.185.674-16.706 13.644-24.396 25.271-2.92 4.414-5.479 7.856-5.687 7.648s1.766-4.53 4.387-9.605c6.168-11.942 18.23-24.703 25.91-27.409 13.231-4.662 22.466-8.961 21.006-9.779-3.118-1.744-11.132-1.904-17.756-.352-10.724 2.511-18.314 6.908-26.75 15.497-9.329 9.498-15.084 20.293-19.07 35.774l-2.791 10.838-.069-5.75c-.039-3.163-.344-5.75-.678-5.75-1.463 0-13.601 10.499-20.432 17.673C407.304 381.914 377 427.47 377 432.75c0 4.924 21.331 37.298 32.008 48.577 7.507 7.931 20.629 19.769 32.385 29.216 4.415 3.548 4.818 3.697 4.13 1.53-.474-1.492 1.507.217 5.228 4.512 3.295 3.803 7.198 8.028 8.672 9.388s3.482 4.285 4.462 6.5c2.727 6.165 9.783 9.616 20.965 10.256 9.908.566 12.133 1.579 24.532 11.173 7.301 5.648 11.689 7.41 13.035 5.233.742-1.201-10.667-11.918-17.917-16.828-10.934-7.405-12.694-11.374-3.096-6.979 6.856 3.138 13.303 7.462 21.096 14.149 3.3 2.831 7.113 5.907 8.473 6.835 2.96 2.021 7.027 2.221 7.027.345 0-1.932-17.442-17.695-24.51-22.151-3.295-2.077-6.89-4.585-7.99-5.575-1.1-.989-3.35-2.539-5-3.445l-3-1.648 4 .661c7.73 1.276 20.878 9.261 31.601 19.191 5.529 5.12 10.442 9.31 10.917 9.31 3.881 0-.909-8.527-10.193-18.144-3.659-3.79-8.088-6.972-13.479-9.682-4.417-2.221-9.404-5.193-11.083-6.606-2.3-1.935-4.248-2.593-7.907-2.668l-4.856-.101 4-.94c5.062-1.191 6.684-.786 19.5 4.86 6.436 2.835 12.435 6.313 15.5 8.986 7.615 6.641 12.508 7.261 8.673 1.098-4.516-7.257-11.323-12.632-20.011-15.803-4.563-1.666-10.043-3.919-12.178-5.008l-3.88-1.98-11.302 2.389c-13.03 2.754-21.001 3.73-20.227 2.478.296-.479-3.203-5.035-7.774-10.125-4.572-5.09-10.694-12.269-13.604-15.955s-6.507-7.659-7.994-8.831c-1.567-1.236-1.968-1.9-.953-1.581 2.181.686 2.234 1.145-.821-7.018-3.773-10.08-11.25-23.823-17.61-32.369-6.346-8.526-8.914-11.056-13.662-13.457-1.839-.93-3.125-1.909-2.858-2.175.753-.753 7.221 2.206 11.982 5.481l4.303 2.961 5.958-3.998c12.603-8.455 20.081-15.688 38.137-36.884 3.948-4.635 9.236-10.434 11.75-12.886s4.571-4.74 4.571-5.085-3.712-.497-8.25-.339l-8.25.288 6.5-1.388c3.575-.763 9.65-1.668 13.5-2.01s8.124-.857 9.499-1.146c2.324-.488 2.374-.616.711-1.832-1.644-1.202-1.531-1.397 1.4-2.419 3.919-1.366 3.89-1.366 3.89.018 0 .621 2.544 3.573 5.653 6.561 4.2 4.036 5.87 5.095 6.496 4.121.464-.721 3.317-6.261 6.34-12.311 9.057-18.126 10.278-29.75 5.457-51.949-1.07-4.922-2.282-9.258-2.695-9.635s-2.776.208-5.251 1.299m423.693 1.862c2.629 4.476 4.013 5.412 5.807 3.923 3.221-2.673.36-7-4.628-7h-2.985zM654 308c1.098 2.051 3.469 2.668 4.41 1.146.29-.469-.605-1.369-1.988-2-3.41-1.553-3.663-1.464-2.422.854m274.223 2.557c-1.572 1.101-2.223 2.574-2.223 5.032 0 3.768-2.222 9.894-4.503 12.414-1.223 1.352-1.503 33.983-1.96 229.037-.294 125.103-.783 267.772-1.088 317.042l-.554 89.583 4.033 2.669c2.315 1.532 5.315 4.905 7.043 7.917 3.948 6.883 3.838 7.965-.263 2.588-8.284-10.86-20.111-13.505-31.888-7.131-13.84 7.492-17.606 23.646-9.469 40.624l3.753 7.831-4.141 4.493c-2.278 2.472-5.283 6.986-6.678 10.032-8.52 18.611 5.061 40.001 24.148 38.031 10.167-1.049 19.023-6.679 24.686-15.694 3.338-5.312 3.622-4.92.951 1.312-2.179 5.084-8.253 12.269-11.148 13.188-1.653.524-1.922 1.582-1.922 7.542 0 3.813-.412 6.933-.917 6.933-.504 0-1.741-1.127-2.75-2.505l-1.833-2.504-25.5 3.495c-14.025 1.922-26.737 3.499-28.25 3.504-3.934.014-3.423 1.431 2.083 5.784l4.833 3.82 37.417-4.687c20.579-2.578 45.292-5.831 54.917-7.23s23.493-3.312 30.817-4.249c13.057-1.672 13.369-1.667 16 .258 9.067 6.634 69.101 48.314 69.589 48.314.327 0 .575-5.963.551-13.25l-.043-13.25-29.8-20.214-29.8-20.215-15.907 2.081c-8.749 1.145-16.083 2.243-16.299 2.44-.215.197.685 1.254 2 2.35 1.316 1.095 1.942 2.016 1.392 2.045s-9.273 1.108-19.384 2.397c-14.228 1.814-18.59 2.711-19.293 3.968-.5.893-1.792 2.096-2.873 2.675-1.534.821-1.293.1 1.105-3.303 1.803-2.558 3.107-5.704 3.161-7.629.052-1.802.586-3.459 1.189-3.682 1.397-.517 32.055-4.733 83.845-11.53l40.75-5.349v-32.119l-9.75 1.148-9.75 1.148-5.303-2.981-5.303-2.981-47.197 5.724c-25.958 3.148-47.759 5.89-48.447 6.094-2.209.655-1.396 3.434 1 3.416 2.706-.021 24.987-2.615 60.25-7.015 22.348-2.789 26.421-3.062 29-1.944l3 1.3-4 .842c-4.189.882-86.587 11.834-89.036 11.834-1.133 0-1.463 2.788-1.687 14.25l-.277 14.25-2-4c-1.987-3.974-2.002-6.257-2.254-356.25-.241-334.389-.343-352.25-2-352.254-.96-.002-3.208-.895-4.996-1.985-2.651-1.616-3.25-2.615-3.25-5.415 0-1.889-.782-4.797-1.739-6.463-1.466-2.555-1.55-3.53-.536-6.215.803-2.128.882-3.783.239-4.986-1.465-2.736-1.186-4.326 1.437-8.191 1.748-2.576 2.102-3.838 1.3-4.64-1.437-1.437-1.834-1.396-4.478.456m20.277 3.088c-3.66 1.741-5.977 2.222-8.644 1.797-2.999-.479-3.916-.195-5.175 1.603-.841 1.201-1.296 2.796-1.009 3.543.802 2.09 7.039 2.819 13.634 1.592 8.733-1.624 12.184-5.704 7.944-9.392-1.579-1.373-2.237-1.29-6.75.857m3.276 11.912c-.306.307-4.319.869-8.917 1.25-8.065.669-8.359.781-8.359 3.193 0 2.441.195 2.507 8.24 2.79 9.722.343 12.26-.656 12.26-4.825 0-2.709-1.673-3.958-3.224-2.408m-63.276 13.01c-3.3 1.356-4.65 2.198-3 1.872 3.253-.642 11.636-4.25 10-4.303-.55-.018-3.7 1.076-7 2.431m54.5-.635c-4.795.419-6.5.954-6.5 2.038 0 3.501 11.929 5.628 14.46 2.578 1.356-1.633 1.066-4.803-.46-5.033-.55-.084-3.925.104-7.5.417m-47.5 16.73c-2.75 1.416-12.65 6.722-22 11.792-19.322 10.476-29.505 15.178-41.009 18.934-16.998 5.551-27.642 6.746-37.263 4.185-3.637-.968-11.392-1.42-25-1.457-27.704-.075-35.977-1.272-57.255-8.282-10.67-3.516-13.235-4.022-17.301-3.412l-4.774.716.801 4.681c2.812 16.433-2.268 34.851-12.18 44.163-1.385 1.302-2.525 3.301-2.532 4.442-.042 6.659-6.537 30.892-11.875 44.306-5.673 14.258-7.004 22.554-7.261 45.27-.246 21.637.77 30.381 5.169 44.5 6.001 19.264 8.333 38.911 6.123 51.601-.899 5.161-.834 7.97.322 13.932 3.003 15.492 3.915 35.176 2.689 58-2.52 46.884-11.429 88.21-26.724 123.967-4.971 11.621-5.418 13.332-6.353 24.329-.553 6.506-1.777 15.711-2.719 20.457-1.512 7.611-1.573 10.227-.519 22.171 3.139 35.581 1.308 49.601-12.348 94.543-3.509 11.55-6.518 21.879-6.686 22.954-.277 1.775.842 2.117 12.195 3.725 6.875.974 24.65 3.566 39.5 5.761s41.85 6.051 60 8.569c30.55 4.238 64.183 9.067 114 16.368 11 1.613 20.303 2.744 20.673 2.516s.981-1.873 1.357-3.654c.955-4.52 5.172-12.079 8.535-15.302l2.827-2.708-3.016-5.976c-9.191-18.206-3.445-38.316 13.346-46.706 4.881-2.439 7.368-3.047 12.47-3.047 3.505 0 7.953.66 9.884 1.467 2.676 1.118 3.602 1.178 3.892.25.208-.669.676-136.721 1.038-302.336l.658-301.12-5.332-.5c-2.933-.275-6.007-.764-6.832-1.086s-3.75.572-6.5 1.987m-397.263 14.865c-2.881 1.939-5.237 3.708-5.237 3.93 0 1.768 9.457 19.543 10.398 19.543 2.615 0 12.602-12.802 12.602-16.155 0-1.659-9.844-10.845-11.621-10.845-.498 0-3.262 1.587-6.142 3.527m-14.405 13.228c-2.52 2.61-9.18 10.145-14.799 16.745-10.839 12.733-20.862 22.214-30.283 28.648-3.163 2.159-5.75 4.155-5.75 4.434 0 .28 2.185 3.75 4.857 7.713 6.167 9.15 8.032 12.874 12.619 25.205 3.895 10.471 9.364 18.233 24.38 34.607l6.06 6.608 4.792-.785c2.636-.432 8.617-1.714 13.292-2.85s10.075-2.074 12-2.083c3.464-.017 3.539-.111 7.372-9.257 2.13-5.082 4.073-10.815 4.319-12.74.454-3.552-5.304-31.748-8.174-40.031-.851-2.458-3.783-8.969-6.515-14.469s-5.949-13.72-7.149-18.266c-1.201-4.547-4.491-12.757-7.311-18.245l-5.128-9.978zm36.644 12.745c.919 8.474 3.392 14.195 8.596 19.889 5.004 5.475 13.309 10.283 19.317 11.183 3.058.458 3.05.442-.483-.947-6.466-2.541-10.066-4.732-14.514-8.831-5.766-5.316-8.335-9.64-11.141-18.761-2.203-7.16-2.291-7.285-1.775-2.533m3.527 55.121c.003 2.838 4.558 19.206 6.923 24.879 1.954 4.689 1.964 4.86.163 2.743l-1.92-2.256-1.035 4.756c-.568 2.616-2.856 9.219-5.084 14.672S519 505.67 519 506.084s2.861 1.705 6.359 2.869c8.656 2.88 14.78 6.967 19.326 12.896 3.588 4.679 4.439 5.185 14.315 8.511 5.775 1.945 16.35 4.754 23.5 6.243 11.467 2.388 15.358 2.718 33 2.802 19.021.09 30.723-1.071 34.535-3.426 1.082-.669 1.553-5.435 2.09-21.171.381-11.17 1.173-22.108 1.76-24.308 1.797-6.736 1.272-7.18-2.955-2.5-4.931 5.46-4.324 4.188 3.585-7.5 5.483-8.102 9.722-17.999 10.705-24.99.487-3.461-19.854-4.736-78.22-4.904-27.775-.079-53.312-.531-56.75-1.004-5.755-.792-6.25-.711-6.247 1.019M612 463.825c0 .454-.916 5.913-2.036 12.131-1.119 6.218-1.875 11.466-1.68 11.662.507.507 3.55-13.124 4.323-19.368.358-2.887.368-5.25.022-5.25s-.629.371-.629.825M642 492c0 .733.3 1.033.667.667a.95.95 0 0 0 0-1.334c-.367-.366-.667-.066-.667.667m-39.674 20.613c-1.68 3.005-2.007 4.687-1.435 7.389l.74 3.498 1.739-3.306c1.057-2.01 1.62-4.907 1.435-7.389l-.305-4.082zM495 516.5c0 .275.225.5.5.5s.5-.225.5-.5-.225-.5-.5-.5-.5.225-.5.5m107 .5c0 .733.3 1.033.667.667a.95.95 0 0 0 0-1.334c-.367-.366-.667-.066-.667.667m-51.507 19.236c-.615 1.402-2.037 2.384-3.737 2.58l-2.744.316 2.972 3.698c4.388 5.461 4.884 9.393 1.599 12.678-1.452 1.452-3.186 2.458-3.854 2.235-.667-.222-1.676.524-2.242 1.66-1.679 3.366-5.757 4.23-10.3 2.181l-3.915-1.765-2.591 2.59c-4.564 4.565-8.782 3.36-21.108-6.031-8.948-6.817-12.274-8.378-17.854-8.378-4.056 0-4.806.401-7.957 4.25-4.278 5.226-9.187 13.131-11.309 18.208-1.503 3.597-1.493 3.771.183 3.128.975-.374 3.819-.909 6.319-1.189l4.545-.509-5.121 1.859c-7.571 2.748-13.03 7.805-23.483 21.753-5.485 7.318-16.896 25.169-16.896 26.43 0 .503 1.688 1.457 3.75 2.119 6.031 1.936 23.087 10.734 31.75 16.377 14.636 9.534 31.863 25.257 43.212 39.439l1.893 2.365 10.684-11.865c15.349-17.047 14.675-15.538 8.662-19.397-2.765-1.774-4.824-3.428-4.576-3.677.248-.248 1.503.238 2.788 1.08 4.145 2.715 15.136 6.381 22.837 7.615 6.448 1.034 8.404.969 13.942-.469 6.901-1.79 14.632-5.204 25.058-11.064 3.575-2.009 5.375-2.724 4-1.589-7.503 6.194-22.608 13.081-34.066 15.533-2.481.531-2.552.755-2.146 6.826 1.305 19.512 1.618 21.288 3.72 21.079 1.095-.109 9.642-1.321 18.992-2.693 33.767-4.956 44.707-5.983 64.395-6.047l19.395-.062-.633-15c-1.121-26.542-3.979-40.511-9.01-44.035-1.151-.806-1.642-1.465-1.092-1.465s2.029.721 3.287 1.602 2.576 1.314 2.928.961c1.259-1.259 1.445-19.667.281-27.791-1.138-7.941-3.989-20.64-6.187-27.561-.86-2.708-1.426-3.184-3.204-2.698-2.032.556-2.053.505-.358-.859 1.663-1.338 1.708-2.121.586-10.137-1.203-8.604-1.24-8.682-3.801-8.115-20.841 4.611-47.186 4.666-68.035.142-10.165-2.206-23.828-5.986-29.488-8.158-.593-.227-1.525.605-2.071 1.85m505.845 51.181c4.186 1.851 8.716 6.494 10.79 11.06 2.842 6.256 2.318 8.85-.711 3.523-3.517-6.185-7.191-9.916-11.917-12.104-5.923-2.742-7.086-2.381-4.028 1.253 14.668 17.432 15.509 52.275 1.642 68.068-3.485 3.97-3.579 3.835 3.677 5.297 2.337.471 4.075.152 6-1.1 2.369-1.542 2.538-1.555 1.346-.1-1.493 1.821-1.356 1.927 3.99 3.091 2.315.503 2.702.201 3.25-2.542.343-1.712.623-4.583.623-6.379s.89-5.227 1.978-7.625c1.288-2.839 1.986-6.559 2-10.668.023-6.524-1.241-7.625-2.356-2.052-1.117 5.588-1.304 2.679-.619-9.639.367-6.6.749-10.875.848-9.5s.616 3.175 1.149 4c.654 1.012.974-2.621.985-11.172l.015-12.673-3.277-4.327c-3.937-5.199-8.81-7.853-14.223-7.745l-4 .079zm-21.888 3.998c-10.445 4.521-16.296 25.943-11.969 43.823 2.972 12.282 8.937 22.45 14.53 24.766 4.193 1.737 8.846-.443 12.905-6.047 5.068-6.996 6.56-13.001 6.573-26.457.013-13.594-1.718-20.676-6.931-28.352-5.072-7.47-9.949-9.966-15.108-7.733m.75 29.785c-1.666 1.666-1.504 7.303.252 8.76 4.026 3.342 8.266-2.689 5.191-7.383-1.84-2.807-3.574-3.246-5.443-1.377m-607.545 10.56c-4.55 7.22-17.067 30.815-23.249 43.824-11.201 23.573-18.159 41.84-23.965 62.916-1.515 5.5-3.315 10.675-4 11.5-3.169 3.818-18.023 29.12-20.13 34.291-1.298 3.185-2.987 9.035-3.754 13-1.468 7.589-9.454 31.145-10.28 30.319-.266-.265.446-3.323 1.582-6.796 3.337-10.205 8.297-28.847 7.951-29.884-.458-1.373-21.574 19.443-26.953 26.57-12.522 16.592-17.811 29.539-36.359 89l-6.55 21 2.202 1.5c3.533 2.407 26.047 11 28.819 11 .408 0 4.744-5.288 9.636-11.75 4.903-6.478 15.637-18.48 23.924-26.75 21.133-21.091 28.545-32.956 37.477-60 1.817-5.5 4.118-11.913 5.113-14.25 2.225-5.224 1.21-5.369-5.235-.75a679 679 0 0 1-10.134 7.089l-5.25 3.59 3.944-3.613c2.168-1.987 7.793-6.263 12.5-9.504 10.673-7.348 44.056-40.961 44.056-44.36 0-.28-2.587.816-5.75 2.436s-4.904 2.364-3.87 1.654c18.33-12.59 24.905-21.79 38.017-53.196.896-2.146 1.871-3.661 2.167-3.366.295.296-1.941 6.31-4.969 13.365-3.029 7.054-5.391 12.942-5.25 13.083.344.345 56.768-64.128 57.914-66.176 1.141-2.038.012-3.745-9.388-14.2-9.385-10.438-20.803-20.143-32.871-27.94-9.789-6.324-22.635-13.103-23.328-12.311-.216.247-3.601 5.24-7.522 11.097-8.146 12.165-17.859 30.21-23.337 43.352-2.063 4.95-3.765 8.421-3.782 7.712-.055-2.282 6.55-18.414 11.916-29.108 5.873-11.701 8.193-15.47 15.942-25.899 3.07-4.131 5.028-7.644 4.516-8.1-.498-.442-2.815-1.542-5.149-2.444l-4.244-1.64zM1020 649.941c0 3.268.341 6.152.758 6.409.416.258 2.554.798 4.75 1.2 3.85.707 3.934.665 2.356-1.159-.9-1.04-2.82-4.253-4.267-7.141s-2.848-5.25-3.114-5.25-.483 2.673-.483 5.941m53.607 7.641c-.981 2.557-.695 9.418.393 9.418.55 0 1-2.475 1-5.5 0-5.678-.345-6.649-1.393-3.918m-539.136 10.124c-4.321 4.837-12.382 13.532-17.914 19.324-14.844 15.541-68.548 77.511-77.84 89.821-10.6 14.042-21.585 26.711-32.212 37.149-9.578 9.408-10.978 11.65-14.99 24-10.304 31.725-19.243 46.521-41.084 68-11.115 10.932-29.383 32.362-29.407 34.5-.006.55 1.336 1.767 2.982 2.703 3.2 1.821 3.937 5.167 1.954 8.872-.869 1.623-.636 2.098 1.406 2.874 1.827.695 3.391.449 6.17-.967 11.546-5.887 27.374-1.855 31.462 8.013 1.429 3.449 2.307 3.611 7.594 1.402 5.494-2.295 11.235-1.328 14.408 2.427 2.359 2.792 3.235 3.052 15.5 4.599 24.525 3.093 89.001 11.547 99.5 13.047 5.775.824 21.075 2.86 34 4.522s24.799 3.246 26.387 3.518l2.887.495-.683-9.753c-.376-5.363-1.607-16.052-2.735-23.752-1.541-10.513-1.921-16.864-1.527-25.5.633-13.86 2.008-20.461 8.749-42 7.14-22.811 7.088-22.521 5.291-29.482-4.225-16.368-5.486-36.82-3.483-56.518.8-7.865-.471-17.629-6.248-48-4.028-21.178-6.434-41.943-7.414-64-.061-1.375-.668-8.854-1.348-16.62l-1.236-14.119-4.57-1.061c-2.513-.583-5.284-1.336-6.157-1.674-1.123-.435-3.882 1.955-9.442 8.18m510.168-.012c-.351.352-.639 8.247-.639 17.546 0 15.561-.139 16.88-1.75 16.575-1.25-.237-1.841-1.473-2.067-4.323-.174-2.196-.624-4.292-1-4.658-.62-.605-38.146 1.795-38.834 2.484-.161.161 12.857 4.625 28.929 9.92l29.222 9.627 8-.683 8-.682.301-5.78.301-5.78-3.604-1.505c-1.983-.829-4.93-1.771-6.551-2.096-2.484-.496-2.947-.272-2.947 1.429 0 1.67-1.731 3.232-3.582 3.232-.23 0-.418-7.393-.418-16.429v-16.429l-5.75-1.182c-3.162-.65-6.025-1.345-6.361-1.544s-.898-.074-1.25.278m17.577 14.394.284 11.328 4.39 1.269c2.415.698 5.227 1.535 6.25 1.859 1.742.553 1.86-.164 1.86-11.348v-11.938l-5.012-.665c-2.757-.366-5.697-.928-6.534-1.249-1.317-.505-1.484.94-1.238 10.744M491 684c0 .733.3 1.033.667.667a.95.95 0 0 0 0-1.334c-.367-.366-.667-.066-.667.667m134.5.053c-13.036 1.273-60.952 8.134-61.572 8.817-1.151 1.268.983 28.076 3.512 44.13 4.02 25.52 9.273 52.663 9.87 51 .296-.825 1.067-3.218 1.714-5.317 1.848-6.002 2.26-3.568.527 3.119-2.279 8.798-3.867 30.771-3.301 45.698.498 13.145 3.05 27.518 8.331 46.913 2.683 9.856 2.61 12.739-.113 4.402-3.321-10.172-3.246-10.212-8.115 4.334-10.27 30.683-12.004 45.171-8.48 70.851 2.654 19.342 4.037 41.624 4.19 67.5l.118 20-3.091 6.843c-3.006 6.657-3.813 12.358-2.463 17.396.842 3.14 2.079 1.961 2.873-2.739.371-2.194 1.011-4.198 1.422-4.452.906-.56-.059 5.348-2.524 15.452-1.716 7.031-1.867 7.281-2.417 4l-.587-3.5-1.757 4c-7.279 16.575-5.367 23.842 6.863 26.081 3.355.615 3.824.506 2.905-.674-.602-.774-1.393-2.307-1.759-3.407-.428-1.289.416-.755 2.371 1.5 5.125 5.911 7.838 11.243 8.78 17.255 1.104 7.046 2.866 9.105 10.089 11.789 3.088 1.148 7.273 3.696 9.3 5.662 2.969 2.879 4.658 3.669 8.676 4.055 4.386.421 5.305.163 7.602-2.134 2.152-2.152 2.424-2.968 1.54-4.62-.81-1.513-2.113-2.014-5.289-2.037-3.639-.027-3.942-.184-2.215-1.148 1.1-.614 2.124-1.212 2.275-1.327.15-.116-1.537-2.022-3.75-4.235-6.197-6.196-4.771-6.88 2.473-1.187 7.408 5.822 10.502 9.375 10.502 12.062 0 2.277 3.218 2.513 4.999.366 1.848-2.226-.306-6.607-5.686-11.567-2.456-2.263-4.293-4.287-4.084-4.496 1.012-1.012 10.607 6.753 11.748 9.507 1.517 3.662 2.299 4.27 4.433 3.451 2.865-1.099 1.771-5.244-2.66-10.074-2.57-2.802-3.401-4.184-2.102-3.497 1.181.625 3.994 3.233 6.25 5.796l4.102 4.661v-3.419c0-4.679-1.588-6.621-12.912-15.792-6.012-4.869-11.217-10.065-13.448-13.426-3.809-5.738-17.64-32.157-17.64-33.694 0-.488.686-.625 1.525-.303 1.333.512 1.441-.786.862-10.328-1.104-18.177.744-26.177 24.793-107.32 6.526-22.019 8.234-38.955 6.456-64l-1.242-17.5-4.132 8.75c-2.273 4.813-4.338 8.75-4.588 8.75-.251 0 1.289-4.443 3.42-9.873 3.896-9.924 7.304-22.434 6.648-24.402-.194-.582-1.404 1.83-2.688 5.359-2.501 6.873-8.42 13.919-11.686 13.912-1.406-.003-1.118-.461 1.165-1.853 3.616-2.205 6.216-7.294 10.377-20.305 2.749-8.596 3.102-11.08 3.199-22.5.107-12.648.126-12.749 1.267-6.838l1.158 6 6.257-14.661c4.386-10.278 6.86-17.752 8.275-25 1.111-5.686 2.44-11.689 2.954-13.339.872-2.8.899-2.75.412.75-.288 2.063-.298 3.75-.024 3.75 1.261 0 8.013-29.36 10.54-45.833 2.222-14.491 4.044-33.063 4.049-41.286l.003-5.619-3.75-.62c-4.941-.817-26.657-.574-36.75.411M490 686.5c0 .275.225.5.5.5s.5-.225.5-.5-.225-.5-.5-.5-.5.225-.5.5m499.636 15.14c-1.166 8.506-.798 13.081 1.114 13.849 5.972 2.397 62.536 22.511 63.307 22.511.527 0 .943-4.349.943-9.861v-9.861l-31.75-10.65c-17.462-5.858-32.026-10.646-32.364-10.639-.338.006-.9 2.099-1.25 4.651M1070 717.73c-1.925.152-5.412.528-7.75.835l-4.25.558V739l3.25-.009c1.787-.004 5.612-.292 8.5-.639l5.25-.631v-9.801c0-5.391-.338-9.952-.75-10.135s-2.325-.208-4.25-.055m-88.5 1.229-3 .722 3 1.253c1.65.689 12.675 4.843 24.5 9.231a25471 25471 0 0 1 35 13.016c13.201 4.926 13.677 5.024 21.5 4.421 11.052-.851 12.5-1.345 12.5-4.264v-2.43l-9.75.655c-11.048.742-7.722 1.669-55.36-15.442-12.436-4.466-23.236-8.068-24-8.003-.765.065-2.74.444-4.39.841m-7.29 11.129.29 8.088 11.289 4.332 11.289 4.333-.289-8.128-.289-8.129-11-4.29c-6.05-2.36-11.131-4.292-11.29-4.293-.16 0-.16 3.639 0 8.087m26.79 10.247v8.234l4.5 1.667 4.5 1.668v-3.281c0-2.747-.362-3.269-2.219-3.202-2.314.082-3.433-2.278-2.38-5.023.433-1.129 1.028-1.239 2.484-.459 1.491.798 2.056.657 2.552-.635.79-2.058-.836-3.678-5.687-5.665l-3.75-1.537zm13 5.573v7.907l18.043 7.093c9.924 3.9 18.699 7.092 19.5 7.092 1.155 0 1.457-1.665 1.457-8.036v-8.035l-4.415-1.893c-5.879-2.52-32.495-12.036-33.664-12.036-.506 0-.921 3.558-.921 7.908m-39.986 2.735.015 7.857 11.485 4.683L997 765.867v-15.59l-10.25-4.25c-5.638-2.338-10.812-4.473-11.5-4.745-.937-.372-1.246 1.473-1.236 7.361m-588.645 6.068c-4.338 4.284-9.562 10.264-11.61 13.289-3.902 5.763-8.047 16.449-9.262 23.877-.885 5.415.952 4.875 1.975-.581.823-4.386 3.196-9.296 4.492-9.296.503 0 1.216-2.015 1.585-4.478.875-5.835 4.349-11.153 13.915-21.304 4.292-4.556 7.576-8.511 7.298-8.79-.279-.279-4.056 2.998-8.393 7.283m684.131-4.043c-2.2.183-5.912.585-8.25.894l-4.25.561v260.053l3.75-.561c2.063-.309 5.829-.841 8.371-1.182l4.62-.621.514-27.656c.843-45.385.86-232.17.021-231.988-.427.093-2.576.318-4.776.5m-68.5 8.797c0 7.99.059 8.086 6.433 10.509 2.45.932 2.567.818 2.567-2.487 0-2.996-.304-3.431-2.25-3.225-1.868.198-2.303-.314-2.563-3.012-.322-3.34.569-4.094 2.526-2.137 1.344 1.344 3.287.335 3.287-1.708 0-1.149-7.544-5.405-9.583-5.405-.229 0-.417 3.359-.417 7.465m13 5.307v7.985l3.25 1.294c1.788.711 10.146 4.141 18.574 7.621s15.74 6.328 16.25 6.328.926-3.519.926-7.82v-7.82l-18.25-7.288-19.5-7.786c-.937-.375-1.25 1.497-1.25 7.486m-611.393-5.19c-1.222 3.185-.608 17.479.906 21.104 2.096 5.017 2.739 3.721.856-1.725-1.052-3.04-1.436-7.089-1.206-12.711.185-4.538.273-8.25.194-8.25s-.416.712-.75 1.582M974 764.891c0 4.817.065 4.918 4.25 6.619 4.164 1.693 17.784 6.49 18.425 6.49.179 0 .325-1.96.325-4.356v-4.356l-10.543-4.644c-5.798-2.554-10.973-4.644-11.5-4.644s-.957 2.201-.957 4.891m27.238 10.625c-.154 3.557.174 4.48 1.777 4.989 1.082.343 2.374.373 2.871.065.498-.307 1.162.114 1.478.936.944 2.459 2.432 1.698 3.16-1.617.795-3.617-.333-5.092-5.56-7.266l-3.536-1.471zM974 779.429v7.642l4.75 2.081a966 966 0 0 0 11.5 4.907l6.75 2.828-.032-7.694-.032-7.693-9.718-4.212c-5.345-2.317-10.506-4.503-11.468-4.857-1.57-.579-1.75.14-1.75 6.998m-390.344-.679c-2.2 17.363-1.591 33.028 1.487 38.25.545.925.592.35.121-1.5-.42-1.65-.719-11.663-.664-22.25.056-10.587.001-19.25-.121-19.25s-.492 2.138-.823 4.75M581 777c0 .733.3 1.033.667.667a.95.95 0 0 0 0-1.334c-.367-.366-.667-.066-.667.667m433 3.878c0 2.132.563 4.316 1.25 4.853.981.766 30.367 13.65 36.512 16.008 1.053.404 1.284-.658 1.045-4.798l-.307-5.317-18.488-7.312c-10.168-4.022-18.83-7.312-19.25-7.312-.419 0-.762 1.745-.762 3.878m-12.791 10.167.291 8.058 4.25 1.9 4.25 1.899v-3.439c0-2.971-.307-3.407-2.25-3.201-1.868.198-2.303-.314-2.563-3.012-.3-3.103 1.003-4.37 2.313-2.25 1.103 1.785 2.5 1.058 2.5-1.301 0-1.739-1.108-2.839-4.541-4.506l-4.54-2.206zm-605.326.509c-2.833 3.605-7.606 8.555-10.608 11-5.836 4.753-6.113 5.745-.666 2.379 3.795-2.346 12.985-12.207 15.698-16.845 2.918-4.99 1.104-3.568-4.424 3.466M1014 796.97v7.969l7.75 3.633c17.373 8.142 29.293 13.428 30.283 13.428.669 0 .943-2.967.757-8.212l-.29-8.212-18.5-8.254c-10.175-4.539-18.837-8.269-19.25-8.288s-.75 3.552-.75 7.936m-39.967 1.28.033 8.25 6.217 2.864a2125 2125 0 0 0 11.508 5.255l5.29 2.392-.29-8.15c-.213-5.974-.691-8.376-1.791-8.996-1.809-1.021-20.395-9.852-20.75-9.86-.138-.003-.235 3.707-.217 8.245m-352.594 5.305c-2.164 6.881-7.267 14.932-14.518 22.908-3.675 4.041-4.455 5.277-2.421 3.837 7.615-5.396 14.472-15.243 17.55-25.202 1.089-3.521 1.797-6.584 1.575-6.806s-1.206 2.146-2.186 5.263M1001 811.299v8.299l3.75 1.446c2.063.795 4.087 1.598 4.5 1.784s.75-1.269.75-3.233c0-3.089-.298-3.539-2.209-3.333-2.345.253-3.46-2.076-2.364-4.933.474-1.233.895-1.307 2.041-.356 1.802 1.496 3.435.587 3.105-1.727-.218-1.534-6.807-6.185-8.823-6.23-.413-.009-.75 3.719-.75 8.283m13.21 5.916.29 8.215 18.5 8.726c10.175 4.799 18.856 8.752 19.29 8.785.435.032.66-3.638.5-8.156-.269-7.618-.472-8.308-2.79-9.493-3.538-1.808-35.301-16.292-35.728-16.292-.194 0-.222 3.697-.062 8.215M974 818.324v8.215l10.25 4.846c5.638 2.666 10.813 5.067 11.5 5.338.937.368 1.25-1.532 1.25-7.602v-8.092l-5.971-3.015c-3.285-1.658-8.46-4.114-11.5-5.459L974 810.11zm27 12.99v8.287l4.5 2.187 4.5 2.186v-4.109c0-3.485-.221-3.926-1.456-2.901-2.018 1.674-3.544.444-3.544-2.856q.002-5.178 2.7-2.942c.914.759 1.721.813 2.375.159 1.685-1.685.042-3.87-4.613-6.131l-4.462-2.168zm13 6.453v8.837l18.25 8.812c10.037 4.846 18.813 9.033 19.5 9.305.944.372 1.246-1.677 1.234-8.364l-.015-8.857-17.735-8.439c-9.754-4.641-18.522-8.82-19.484-9.285-1.598-.773-1.75-.081-1.75 7.991m-40 .471v8.405l10.75 5.184c5.913 2.852 11.087 5.182 11.5 5.179s.75-3.503.75-7.778v-7.772l-10.75-5.46c-5.913-3.003-11.087-5.618-11.5-5.811-.413-.194-.75 3.43-.75 8.053m27 13.742v7.979l3.96 2.021c5.044 2.573 5.04 2.574 5.04-.91 0-2.274-.502-3.003-2.24-3.25-2.299-.328-3.37-2.789-2.359-5.422.444-1.158 1.012-1.247 2.584-.406 1.772.948 2.015.775 2.015-1.436 0-1.924-.932-2.991-3.96-4.536-2.178-1.111-4.203-2.02-4.5-2.02s-.54 3.591-.54 7.98m-400.89.802c-.112 6.406 1.585 12.118 4.583 15.431 2.765 3.056 3.628 1.957.956-1.218-1.512-1.798-2.802-4.91-3.211-7.75-.376-2.61-1.029-6.545-1.451-8.745-.716-3.732-.775-3.578-.877 2.282m374.1 5.255.29 8.036 11.291 5.994 11.291 5.994-.291-8.192-.291-8.193-10.5-5.83c-5.775-3.207-10.856-5.835-11.29-5.839-.435-.004-.66 3.61-.5 8.03m39.79.956v7.993l12.75 6.404c7.013 3.522 15.53 7.983 18.928 9.912s6.436 3.251 6.75 2.936.572-4.292.572-8.84v-8.269l-18.64-9.065c-10.252-4.985-19.027-9.064-19.5-9.064s-.86 3.597-.86 7.993m-13 13.335v8.302l3.75 1.909a409 409 0 0 0 4.5 2.268c.413.198.714-1.815.671-4.474-.043-2.658-.306-4.27-.583-3.583-.278.688-1.367 1.25-2.421 1.25-1.478 0-1.917-.712-1.917-3.108 0-2.817.235-3.05 2.5-2.481 2.129.534 2.5.282 2.5-1.693 0-1.759-1.088-2.848-4.5-4.506l-4.5-2.186zm-26.987 5.422.013 7.75 11.237 6.236 11.237 6.235.297-7.142c.163-3.928.08-7.706-.184-8.396-.433-1.128-20.408-12.433-21.968-12.433-.355 0-.639 3.487-.632 7.75m39.987 1.526v8.276l18.108 9.474c9.96 5.211 18.66 9.605 19.333 9.765.895.213 1.203-1.898 1.142-7.837l-.083-8.128-18.974-9.913c-10.436-5.452-19.099-9.913-19.25-9.913-.152 0-.276 3.724-.276 8.276m-13 13.539v7.815l3.75 1.909a409 409 0 0 0 4.5 2.268c.413.198.75-1.253.75-3.224 0-3.155-.298-3.583-2.5-3.583-2.111 0-2.5-.467-2.5-3 0-3.145 1.666-3.934 3.8-1.8.933.933 1.2.641 1.2-1.316 0-1.881-.98-3.066-3.886-4.7-2.138-1.201-4.163-2.184-4.5-2.184-.338 0-.614 3.517-.614 7.815m-27 4.128v7.808l10.937 6.124c6.015 3.369 11.19 6.125 11.5 6.125s.563-3.338.563-7.418c0-8.474 1.267-7.107-14.75-15.912l-8.25-4.535zm40 2.464v8.172l6.75 3.746c3.713 2.06 12.15 6.834 18.75 10.608s12.358 6.528 12.795 6.12c.437-.409.662-4.3.5-8.648l-.295-7.905-19.25-10.133-19.25-10.133zm-13.438 5.365c-.309.309-.562 3.567-.562 7.24 0 7.249.614 8.285 6.75 11.393l3.25 1.646v-3.525c0-3.094-.306-3.526-2.5-3.526-2.19 0-2.5-.433-2.5-3.5 0-3.37 1.213-4.583 2.5-2.5 1.028 1.663 2.5 1.124 2.5-.915 0-1.926-8.284-7.468-9.438-6.313M974 915.987v6.988l4.078 2.574c6.711 4.237 16.507 9.451 17.755 9.451.775 0 1.167-2.292 1.167-6.829v-6.83l-10.781-6.17c-5.929-3.394-11.104-6.171-11.5-6.171-.395 0-.719 3.144-.719 6.987m40 3.94v7.926l5.75 3.242c3.163 1.783 11.506 6.598 18.541 10.7s12.969 7.278 13.187 7.06c.219-.218.709-3.836 1.09-8.039l.692-7.643-4.38-2.232c-2.409-1.228-10.993-5.992-19.075-10.587S1014.86 912 1014.555 912s-.555 3.567-.555 7.927m-13.498 11.721c.254 4.207.582 7.729.73 7.827 2.484 1.648 7.657 4.525 8.136 4.525.348 0 .632-1.341.632-2.981 0-2.346-.533-3.115-2.5-3.608-1.946-.489-2.5-1.269-2.5-3.519 0-3.053 1.664-3.931 2.638-1.392.894 2.33 2.362 1.767 2.362-.905 0-1.787-1.137-3.072-4.428-5-2.436-1.427-4.676-2.595-4.98-2.595-.303 0-.344 3.442-.09 7.648m-26.294 3.471.292 8.288 10.5 6.251c5.775 3.438 10.837 6.272 11.25 6.297s.75-3.447.75-7.714v-7.759l-10.75-6.439c-5.913-3.54-11.106-6.612-11.542-6.825s-.66 3.342-.5 7.901m-701.649-1.898c-5.093 12.252-10.558 26.358-10.552 27.236.026 4.055 29.067 16.191 43.552 18.2l4.059.562 4.114-9.359c6.261-14.245 8.408-20.053 7.901-21.375-.254-.661-2.318-1.499-4.586-1.862-6.916-1.105-24.872-7.515-34.253-12.226l-8.871-4.456zm741.171-.518c-.245.438-.538 3.761-.651 7.384l-.205 6.586 8.813 5.306a2744 2744 0 0 0 19.563 11.629l10.75 6.325v-16.632l-13.75-7.686c-7.562-4.228-16.073-9.042-18.912-10.698s-5.363-2.652-5.608-2.214M1000 950.915v7.914l4.626 2.586c2.544 1.422 4.794 2.585 5 2.585s.374-1.575.374-3.5c0-3.067-.31-3.5-2.5-3.5-2.111 0-2.5-.467-2.5-3 0-3.35 1.594-3.903 3.608-1.25 1.199 1.579 1.331 1.457 1.36-1.257.027-2.513-.714-3.458-4.509-5.75-2.497-1.509-4.747-2.743-5-2.743-.252 0-.459 3.562-.459 7.915m-26 3.82v7.949l10.96 6.658c6.028 3.662 11.203 6.658 11.5 6.658s.54-3.556.54-7.903v-7.903l-9.927-6.1c-14.095-8.662-13.073-8.712-13.073.641m39.82-3.222c-.71.71.065 14.772.858 15.56.452.45 9.034 5.775 19.072 11.834l18.25 11.016v-16.605l-5.25-2.85c-2.888-1.567-11.399-6.551-18.916-11.076-7.516-4.525-13.822-8.071-14.014-7.879m-678.57 5.978c-3.918 1.703-4.059 2.753-.696 5.203 3.026 2.204 2.481 4.962-1.263 6.386-6.526 2.481 1.791 7.98 13.123 8.677 6.21.382 7.509.146 10.509-1.911 4.403-3.018 5.029-4.846 1.66-4.846-2.089 0-2.583-.478-2.583-2.5 0-2.111.467-2.5 3-2.5 1.65 0 3-.389 3-.865 0-1.632-4.177-6.175-7.039-7.655-3.652-1.889-15.355-1.882-19.711.011m-13.63 5.5c-2.283 5.706-2.113 6.171 2.123 5.819 2.981-.247 4.02-.892 5.106-3.168 1.526-3.199.578-4.851-3.479-6.064-1.786-.534-2.391.016-3.75 3.413m570.046-2.257c-18.282 6.092-25.327 30.817-13.626 47.824l2.873 4.175-4.257 4.443c-4.424 4.617-7.932 11.062-8.964 16.469-.49 2.566-.24 3.24 1.354 3.657 2.559.669 2.525 2.698-.046 2.698-1.648 0-1.996.659-1.978 3.75.038 6.555 5.356 15.241 11.267 18.404 1.728.926 1.753.836.376-1.331-.813-1.278-2.264-5.62-3.225-9.65-1.474-6.179-1.561-8.138-.558-12.5 1.689-7.339 4.632-12.952 9.173-17.493l3.93-3.93-3.625-7.847c-6.605-14.296-5.483-26.601 3.32-36.392 5.09-5.662 10.665-8.635 18.332-9.776l5.488-.817-4.928-1.709c-5.98-2.074-8.62-2.069-14.906.025m108.542 9.972.292 7.705 4 2.762c2.2 1.518 4.337 2.776 4.75 2.794s.75-2.047.75-4.589c0-3.934-.217-4.443-1.456-3.414-2.051 1.702-3.544.428-3.544-3.023 0-2.896 1.291-3.898 2.5-1.941.994 1.608 2.5 1.152 2.5-.757 0-1.442-7.675-7.243-9.583-7.243-.276 0-.37 3.468-.209 7.706m-626.458-3.478c-4.907 1.27-5 3.951-.216 6.221 4.983 2.365 8.693 1.726 9.892-1.704.605-1.729.612-3.078.019-3.621-1.652-1.513-5.823-1.899-9.695-.896m-114.25 6.521c-5.402 6.13-8.489 11.262-8.495 14.123-.004 1.996.233 2.175 1.495 1.128.825-.685 1.5-1.005 1.5-.712s-5.126 5.635-11.391 11.872c-9.766 9.722-12.041 12.624-15.949 20.34-4.518 8.919-6.062 10.791-3.147 3.814.832-1.991 1.393-3.742 1.245-3.889-.466-.467-23.157 17.425-25.508 20.114-1.238 1.415-2.25 3.495-2.25 4.622 0 1.128-1.125 3.387-2.5 5.021-2.323 2.761-3.327 7.657-1.87 9.115.347.347 2.911-1.365 5.698-3.803s5.261-4.239 5.497-4.002c.237.236-1.619 2.709-4.124 5.495-5.142 5.72-6.754 10.388-4.4 12.743 1.345 1.345 2.24.734 8.247-5.634 3.706-3.929 6.967-6.914 7.246-6.635s-2.035 3.827-5.143 7.885c-6.055 7.905-7.348 12.708-3.901 14.487 1.424.734 3.474-.931 11-8.936 5.088-5.411 9.25-9.379 9.25-8.818 0 2.242-3.513 7.692-8.129 12.611-3.877 4.131-4.871 5.892-4.871 8.628 0 3.913 1.369 5.406 5.765 6.285 4.963.993 10.518-2.781 14.165-9.623 1.843-3.458 5.284-7.629 8.707-10.553 4.225-3.61 6.409-6.492 8.62-11.381 6.783-14.996 8.333-17.726 14.171-24.962 3.364-4.171 6.895-8.697 7.845-10.057 1.865-2.67 2.388-1.131.692 2.039-1.444 2.697.353 2.523 5.577-.538 5.461-3.2 7.891-8.741 6.923-15.78-.647-4.709-.734-4.815-2.567-3.155-3.386 3.064-2.012.31 2.83-5.672 2.929-3.617 5.568-8.33 6.934-12.381 1.214-3.597 2.122-6.54 2.018-6.54-1.327 0-15.726-5.871-20.68-8.431l-6.5-3.359zm753.507 5.001.006 7.75 19.244 12.13c10.584 6.672 19.631 11.774 20.105 11.338s.543-4.319.153-8.63l-.709-7.838-18.771-11.25c-10.324-6.187-19.055-11.25-19.403-11.25s-.629 3.487-.625 7.75m-5.007 21.719c0 8.563.322 11.529 1.25 11.522.688-.004 6.875-.676 13.75-1.491s13.159-1.487 13.964-1.491c2.253-.014-.146-1.97-9.464-7.72-4.4-2.715-10.587-6.605-13.75-8.644l-5.75-3.706zm-104.43 40.735c-1.313 1.874-1.342 2.509-.192 4.25 2.007 3.04 5.201 3.118 7.13.174 3.382-5.161-3.395-9.483-6.938-4.424m166.43 12.449c-1.375.21-11.355 1.529-22.178 2.931s-20.92 2.883-22.436 3.288c-2.578.689-1.619 1.515 14.678 12.652 16.427 11.225 29.873 20.218 32.686 21.863.984.575 1.25-3.758 1.25-20.328 0-11.582-.338-20.998-.75-20.923s-1.875.308-3.25.517m-858.783 27.597c-.792.964-.015 1.279 3.397 1.375 3.648.103 4.224-.116 3.282-1.25-1.424-1.717-5.31-1.789-6.679-.125m633.887 22c-1.716 7.287-3.117 13.983-3.112 14.879.008 1.657 10.715 11.497 11.575 10.637.576-.576 5.128-20.55 5.984-26.26.61-4.063.53-4.2-4.808-8.318-2.985-2.304-5.673-4.188-5.973-4.188s-1.95 5.963-3.666 13.25M1144 1163.113c-10.175 1.578-19.062 3.084-19.75 3.346-.932.357-1.25 4.773-1.25 17.343 0 9.276.224 17.089.499 17.363.436.436 38.265-5.27 44.251-6.675 2.224-.522 2.25-.722 2.25-17.509V1160l-3.75.123c-2.062.067-12.075 1.413-22.25 2.99"/></g></svg>
