<svg xmlns="http://www.w3.org/2000/svg" width="512" height="512" viewBox="0 0 512 512"><g transform="scale(0.4082934609250399)"><path fill="#fff" fill-rule="evenodd" d="M575.557 65.096c-12.165 2.987-20.955 7.721-31.192 16.796-10.232 9.071-14.304 15.486-16.954 26.711-2.076 8.792-1.346 24.582 1.66 35.897 1.169 4.4 2.73 11.018 3.469 14.707 1.62 8.086 2.286 9.404 8.004 15.842l4.456 5.018v10.917c0 12.385-1.236 19.507-4.516 26.016-2.887 5.729-3.984 6.653-15.484 13.047-10.104 5.617-13.936 8.301-23.5 16.458-3.3 2.814-7.575 5.729-9.5 6.477-14.829 5.762-24.886 13.579-32.915 25.582-5.649 8.446-10.476 21.976-11.582 32.46-.713 6.761 1.118 20.555 4.036 30.408 2.093 7.064 1.813 14.864-1.015 28.302-4.952 23.535-5.394 36.971-1.947 59.266 3.508 22.69 9.476 32.594 26.567 44.093 4.755 3.199 11.998 8.753 16.097 12.342 8.742 7.655 14.446 10.513 21.041 10.543 6.298.029 10.111-1.691 16.468-7.426l5.25-4.737.106 6.342c.163 9.744-.116 11.779-2.703 19.721-1.322 4.057-2.406 8.107-2.41 9-.004.892-2.205 4.847-4.891 8.789-9.661 14.178-11.406 24.953-7.583 46.833 1.935 11.079 2.458 16.699 2 21.5-.342 3.575-3.787 21.553-7.657 39.951-7.063 33.579-8.414 37.924-14.799 47.607l-2.017 3.058 2.088 3.942c1.148 2.168 3.771 6.417 5.828 9.442 3.691 5.428 4.361 5.767 9.217 4.655.373-.085.92 8.395 1.215 18.845s.988 22.15 1.539 26c2.376 16.602 1.194 27.79-5.016 47.5-3.775 11.981-5.904 25.737-5.911 38.2-.006 9.455-.135 9.996-5.116 21.5-15.666 36.18-17.952 43.273-20.064 62.27-1.591 14.305-.397 25.591 6.111 57.753 6.805 33.628 9.033 48.335 9.739 64.277.52 11.764.322 14.586-1.539 21.94-2.813 11.111-2.761 17.427.186 22.579 2.143 3.747 2.211 4.355 1.007 9-2.501 9.646-1.466 17.209 3.362 24.563 3.306 5.036 4.205 8.772 5.305 22.052.531 6.399 1.414 12.816 1.963 14.261s4.045 5.781 7.769 9.637c6.741 6.981 12.294 9.941 15.989 8.523.829-.318 2.999.343 4.822 1.47 2.166 1.338 4.985 2.039 8.137 2.022 2.653-.014 9.998.082 16.323.214 10.535.219 11.765.05 14.654-2.011 2.405-1.715 4.544-2.251 9-2.254 7.159-.004 11.293-2.256 13.785-7.51 3.131-6.597 1.108-11.523-14.307-34.841-14.745-22.303-28.132-49.454-28.132-57.055 0-2.272-.939-7.496-2.088-11.61-3.055-10.947-3.929-23.241-2.84-39.917 1.739-26.622 4.964-41.69 15.32-71.563 3.05-8.8 6.027-19.092 6.615-22.87.633-4.063.952-18.57.781-35.5l-.288-28.63 4.616-10c6.157-13.338 9.409-23.073 11.462-34.319 1.561-8.55 2.215-10.078 7.922-18.5 7.392-10.909 10.945-17.719 14.185-27.181 2.148-6.276 7.087-30.925 10.363-51.716 1.178-7.48 1.318-7.75 4.57-8.823 4.233-1.397 4.704-2.204 4.922-8.427.098-2.789.49-6.054.872-7.257.607-1.912 1-2.046 3.141-1.071 1.346.613 2.447 1.767 2.447 2.564 0 2.756 9.251 22.796 18.256 39.547 10.909 20.292 13.004 25.851 16.634 44.134 1.779 8.958 4.14 17.231 6.457 22.626 2.009 4.678 3.653 9.86 3.653 11.516s-1.093 9.57-2.43 17.585c-7.181 43.075-5.837 59.221 7.041 84.601 7.444 14.671 10.051 21.546 12.788 33.721 3.515 15.641 4.099 21.443 4.028 40-.072 18.574-.156 19.314-3.75 32.984-5.606 21.319-4.933 27.652 3.848 36.217 3.963 3.866 6.725 5.607 10.759 6.779 8.838 2.569 16.519 3.508 28.756 3.514 13.923.007 18.954 1.207 33.974 8.101 11.204 5.142 11.493 5.214 23.913 5.902 6.915.383 13.84 1.215 15.388 1.85 1.548.634 6.273 1.151 10.5 1.149 8.402-.004 13.428-2.036 14.663-5.927.361-1.138 1.414-2.079 2.339-2.091 2.129-.028 5.612-2.82 7.066-5.662 2.869-5.61-.078-12.677-8.169-19.589-6.213-5.308-6.608-5.497-20.525-9.809-12.893-3.996-17.302-7.123-42.36-30.048-18.184-16.636-18.826-17.356-20.742-23.269-5.572-17.191-6.223-24.61-7.071-80.601-.648-42.83-1.048-51.656-2.962-65.5-2.465-17.834-2.363-22.557.917-42.5 3.193-19.406 3.016-28.772-.819-43.418l-3.121-11.919 1.608-13.081c1.776-14.437 1.453-40.003-.704-55.784l-1.189-8.702 4.127-4.689c2.27-2.579 4.127-4.987 4.127-5.352s-1.355-2.8-3.011-5.412c-2.154-3.396-4.133-9.361-6.948-20.946-2.165-8.908-6.467-23.622-9.559-32.697a13221 13221 0 0 1-9.168-27l-3.547-10.5 1.164-9.075c1.841-14.364-.046-23.09-7.146-33.047-2.181-3.058-3.164-5.903-3.807-11.022-.476-3.795-1.113-7.565-1.415-8.378s-.739-9.128-.97-18.478-.898-21.703-1.482-27.45c-1.251-12.312-.255-18.078 5.31-30.733 4.633-10.539 6.579-18.283 6.579-26.188v-6.451l9.75 9.961c5.362 5.478 13.125 13.96 17.25 18.848 4.696 5.564 12.523 12.93 20.935 19.7C777.534 452.327 778.649 453 782.847 453c7.302 0 15.153-2.995 19.653-7.498 4.965-4.968 7.199-9.386 13.452-26.608 7.902-21.768 8.842-32.498 3.72-42.507-1.376-2.688-6.862-10.737-12.191-17.887s-9.915-13.558-10.189-14.241 1.219-3.828 3.318-6.991c14.698-22.143 10.465-41.319-11.378-51.54-3.583-1.677-8.693-3.258-11.355-3.514s-5.25-.971-5.75-1.589c-.501-.619-2.964-9.225-5.473-19.125-4.144-16.354-4.849-18.243-7.708-20.657-3.254-2.747-9.648-4.843-14.774-4.843-3.183 0-10.991 2.106-18.172 4.903-5.711 2.223-19.617 11.969-20.789 14.568-.84 1.867-.441 4.488 1.836 12.035.498 1.654.644 4.622.324 6.597-.525 3.231-.269 3.779 2.561 5.493 3.854 2.334 9.544 13.528 7.775 15.297-1.529 1.529-3.707 1.389-3.707-.238 0-.74-.855-2.119-1.901-3.065-1.833-1.659-1.926-1.576-2.582 2.308-.374 2.216-.433 4.43-.13 4.92s-.513 1.892-1.815 3.114l-2.366 2.223-1.169-3.542c-.643-1.948-3.202-6.145-5.686-9.327s-5.134-6.96-5.888-8.395c-1.211-2.308-2.132-2.671-7.97-3.139-9.185-.738-17.937-5.186-24.342-12.372-4.684-5.256-4.913-5.776-4.494-10.209 1.844-19.485 15.113-36.063 38.055-47.548 20.282-10.153 42.895-12.148 57.734-5.094 12.005 5.707 16.953 13.159 17.016 25.625.021 4.209.309 7.486.641 7.282 1.694-1.045 4.098-11.954 3.537-16.048-1.808-13.186-12.194-22.294-29.64-25.993-19.109-4.051-48.156 3.744-67.5 18.116-7.848 5.83-16.876 16.444-19.622 23.07l-2.19 5.283-9.094-4.556C632.559 231.279 630 229.385 630 226.507c0-1.726 1.114-2.98 4.161-4.682 2.289-1.279 5.012-3.475 6.051-4.881 2.311-3.127 8.812-26.757 11.86-43.112 2.038-10.935 2.136-12.89 1.057-21.189-.837-6.445-.89-10.699-.18-14.417 1.055-5.52-.152-14.534-3.482-25.989-1.182-4.065-1.301-6.173-.51-9.021 2.498-8.996.205-16.047-7.574-23.285-15.469-14.394-42.666-20.523-65.826-14.835m7.943 5.84c-8.201 1.341-13.553 3.066-20.743 6.686C555.456 81.299 548 87.359 548 89.616c0 .761-.64 1.384-1.422 1.384-2.527 0-8.45 8.107-10.563 14.455-2.955 8.881-3.461 17.477-1.671 28.4.843 5.146 1.748 9.571 2.011 9.834s1.434-.478 2.602-1.646c4.488-4.488 9.698-4.742 15.406-.749 2.589 1.811 5.637 7.043 5.637 9.674 0 1.992-3.435 1.003-6.452-1.858-4.267-4.045-6.705-4.561-9.854-2.084-5.313 4.179-4.361 14.498 2.025 21.958 4.019 4.696 7.141 6.507 12.849 7.455 3.97.659 4.159.877 7.832 9.033 6.165 13.688 8.237 15.862 20.98 22.022 19.888 9.612 30.359 12.095 39.868 9.454 6.895-1.915 8.561-4.311 11.787-16.948 7.678-30.075 9.026-39.955 6.841-50.143-.848-3.956-.829-6.851.081-11.799 1.131-6.16 1.021-7.256-1.808-18.058-1.657-6.325-3.704-13.138-4.548-15.141l-1.536-3.64-3.95 1.954c-6.536 3.234-13.247 3.362-25.615.489-15.645-3.633-16.202-3.687-24.395-2.36-9.463 1.533-9.881 2.169-8.344 12.711 1.391 9.548.665 12.539-5.064 20.849-4.381 6.355-4.876 4.583-.856-3.061 3.823-7.267 4.32-9.719 3.126-15.438-2.281-10.93-2.285-11.765-.066-13.774 1.155-1.044 2.099-2.304 2.099-2.799s-2.531-2.019-5.624-3.387c-6.488-2.869-6.674-3.707-.518-2.324 2.367.532 10.68.845 18.473.694 12.215-.235 15.59.067 24.475 2.191 10.219 2.443 10.36 2.449 16.5.692 9.56-2.736 11.588-2.989 13.203-1.648 1.22 1.012 1.491.933 1.491-.435 0-7.123-12.961-17.262-28.234-22.087-8.588-2.713-23.049-3.892-31.266-2.55m-32.104 125.361c-.169 22.913-3.269 28.424-22.303 39.648-10.399 6.133-24.799 17.246-25.014 19.305-.044.412 2.961.75 6.678.75s8.186.41 9.933.911c3.056.876 3.408.651 9.232-5.902 6.815-7.668 16.607-14.535 28.681-20.113l8.162-3.771-.886-4.812c-.487-2.647-1.095-5.375-1.351-6.063s-.072-1.25.408-1.25 2.264 2.464 3.964 5.476c3.426 6.071 2.268 5.794 14.399 3.451 2.64-.51 7.567-.927 10.95-.927 3.742 0 5.779-.358 5.201-.914-.523-.503-4.936-2.512-9.809-4.466-16.505-6.617-23.839-13.319-29.24-26.726-2.95-7.32-3.039-7.435-6.401-8.218l-2.5-.583zM619 225.893c0 .491.675 1.152 1.5 1.469.914.35 1.5.001 1.5-.893 0-.808-.675-1.469-1.5-1.469s-1.5.402-1.5.893m-44.796 4.644c-16.491 5.617-27.965 12.297-37.295 21.712-13.5 13.622-19.003 30.39-13.106 39.932 5.159 8.348 21.58 15.829 36.447 16.606 4.813.252 8.75.261 8.75.022s-.686-5.583-1.525-11.873c-2.508-18.818-.758-25.287 8.157-30.139 5.667-3.085 21.034-6.797 28.135-6.797 6.139 0 8.643 1.819 10.211 7.421.75 2.678 2.227 5.138 3.642 6.065 1.903 1.248 2.38 2.432 2.38 5.911 0 2.393.614 6.096 1.364 8.227s1.913 7.749 2.583 12.482l1.219 8.606 8.667.641c19.497 1.442 30.353 7.185 36.259 19.182 2.994 6.082 3.131 6.859 2.588 14.693-.316 4.55-.875 9.51-1.244 11.024-.603 2.476-.293 2.91 3.081 4.32 2.063.862 6.802 1.823 10.532 2.135l6.781.569-2.858-5.666c-1.572-3.116-3.163-7.699-3.536-10.185-1.377-9.184 2.904-22.11 10.324-31.173 3.427-4.186 3.46-4.319 2.283-9-1.575-6.267-5.513-13.378-9.403-16.983-2.252-2.087-4.978-3.266-9.64-4.172-12.277-2.386-20.143-8.504-23.908-18.597-1.623-4.35-2.367-5.152-5.729-6.173-2.125-.645-5.315-1.208-7.089-1.25-2.737-.065-3.51.477-5.101 3.577l-1.874 3.654-.519-6.465c-.951-11.848-6.505-20.576-16.28-25.583-7.755-3.972-14.053-5.237-26-5.223-9.068.012-12.281.451-18.296 2.5M739 241.87c0 .478 2.756 1.412 6.125 2.075 4.635.912 6.794 1.938 8.878 4.22 2.754 3.014 2.754 3.014 2.27.485-.687-3.595-3.001-5.262-9.072-6.537-6.382-1.34-8.201-1.394-8.201-.243m-102.134 1.88c.515.963 1.257 3.887 1.649 6.5l.712 4.75H652v-2.987c0-2.696-.682-3.331-6.975-6.5-7.929-3.993-9.538-4.341-8.159-1.763m86.561 3.732c-2.995 2.995-2.242 4.352 2.573 4.634 1.375.08.002.468-3.052.862-7.513.969-10.948 3.315-10.948 7.476 0 2.47.586 3.492 2.5 4.364 2.11.961 2.5 1.819 2.5 5.494 0 2.395.337 4.687.75 5.094.413.406 1.432 2.843 2.265 5.416 1.207 3.73 1.917 4.613 3.5 4.357 1.092-.176 6.935-.45 12.985-.608 6.193-.162 13.604-1.005 16.96-1.929 3.278-.903 7.039-1.642 8.359-1.642 2.079 0 2.312-.344 1.75-2.582-.356-1.419-2.169-4.792-4.027-7.493-2.144-3.117-3.982-7.563-5.028-12.165-2.03-8.922-3.535-10.746-8.919-10.804-2.252-.024-6.12-.477-8.595-1.007-10.942-2.345-10.685-2.355-13.573.533M493 260.832c-10.631 4.661-16.345 8.568-22.598 15.451C460.987 286.649 456 300.104 456 315.145c0 13.154 2.36 22.897 9.38 38.723 3.656 8.243 5.113 13.15 3.889 13.101-.423-.017-2.294-2.055-4.157-4.528-1.864-2.474-3.571-4.316-3.793-4.093-.883.882-6.425 29.724-7.427 38.652-1.209 10.763-.107 23.079 3.262 36.482 4.018 15.983 9.749 24.128 23.285 33.095 4.434 2.937 11.626 8.564 15.984 12.505 9.543 8.63 12.832 10.239 18.01 8.809 7.595-2.097 33.287-27.625 44.004-43.723 5.804-8.718 23.388-40.005 23.882-42.493.099-.502-2.519-1.693-5.819-2.646-13.338-3.851-21.147-10.783-22.874-20.307-.254-1.4-.949-3.456-1.544-4.569S551 370.42 551 368.329v-3.802l-8.75 9.111c-8.81 9.173-20.194 18.729-25.75 21.615-1.65.857-7.419 3.684-12.82 6.282-7.867 3.784-11.53 6.339-18.414 12.844-7.708 7.285-8.518 7.812-7.861 5.121 1.844-7.557 9.118-16.456 18.331-22.426 4.866-3.153 5.065-3.448 3.72-5.501-.782-1.193-2.734-5.747-4.338-10.121s-3.682-9.752-4.617-11.952l-1.699-4 2.876 2.723c1.581 1.498 5.108 7.348 7.836 13s5.07 10.456 5.204 10.674c.688 1.125 13.699-6.642 20.01-11.945 8.676-7.291 9.674-9.922 9.086-23.952-.323-7.712-.918-10.629-3.16-15.5-4.876-10.591-12.901-16.882-20.28-15.898-3.832.511-3.847.5-1.374-1.007 2.185-1.332 2.254-1.529.55-1.56-4.137-.075.171-1.984 5.963-2.642 4.973-.565 6.462-1.206 8.795-3.787l2.808-3.106-.437 4.766c-.255 2.781.009 5.041.633 5.427.588.364 1.247.129 1.464-.522.558-1.672 2.224-.403 2.224 1.694 0 .96 1.161 3.296 2.58 5.191 1.419 1.894 3.855 5.941 5.413 8.992 2.5 4.898 10.636 12.952 13.083 12.952.412 0 2.814-2.895 5.339-6.433s7.912-9.181 11.973-12.539l7.382-6.107-.941-4.21c-1.754-7.851-2.521-8.371-12.494-8.472-16.941-.172-32.172-5.994-37.969-14.513-3.622-5.322-7.381-16.794-7.333-22.381.028-3.302 1.82-9.642 4.37-15.462.563-1.284-.22-1.851-3.79-2.75-8.694-2.19-16.286-1.389-25.613 2.699m102.5 7.259c-2.75 1.046-6.705 1.903-8.79 1.905-4.559.005-11.209 3.199-12.784 6.142-1.77 3.308-.156 17.78 3.092 27.729 4.402 13.481 6.392 18.194 7.479 17.717 10.976-4.826 19.96-7.945 26.679-9.262 4.578-.898 8.407-1.683 8.508-1.744.101-.062-1.351-5.28-3.227-11.595A2567 2567 0 0 1 610.332 278c-1.492-5.225-3.133-10.062-3.645-10.75-1.28-1.716-5.243-1.418-11.187.841m160 19.903c-26.774 3.985-52.476 20.598-61.669 39.86-9.883 20.707.401 36.491 26.153 40.144 8.333 1.182 19.527-.059 30.695-3.402 35.331-10.575 59.794-39.527 50.179-59.389-4.443-9.178-12.06-14.385-24.533-16.772-8.001-1.531-12.819-1.633-20.825-.441m-32 3.006c-.782 1.266.542 1.266 2.5 0 1.293-.835 1.266-.971-.191-.985-.93-.008-1.969.435-2.309.985M614 316.494c-26.227 5.863-46.782 20.129-56.011 38.876-8.985 18.251-2.421 31.941 18.566 38.721 5.872 1.897 8.192 2.102 18.334 1.621 11.797-.561 19.428-2.267 30.111-6.734 16.993-7.104 32.479-19.802 39.003-31.978 3.158-5.894 3.483-7.26 3.49-14.66.006-7.463-.249-8.523-2.993-12.405-7.118-10.071-16.149-14.056-33-14.563-7.136-.215-13.283.179-17.5 1.122m176.576 32.383c-.354.572-4.577 3.671-9.385 6.887-10.067 6.734-22.35 12.16-33.453 14.778L740 372.366l.02 9.567c.025 11.734 1.26 20.747 3.486 25.439 2.732 5.757 12.499 16.661 21.038 23.488 4.376 3.499 10.122 8.381 12.769 10.85 4.414 4.116 5.116 4.432 8.454 3.806 4.483-.841 10.186-3.682 12.366-6.16 2.597-2.951 5.393-9.076 10.94-23.968 6.149-16.507 7.256-24.606 4.393-32.141-2.33-6.131-22.046-35.736-22.89-34.37M542 357.083c0 5.642 1.068 6.046 4.353 1.647l1.974-2.645-2.414-2.009c-1.327-1.105-2.75-2.024-3.163-2.043-.413-.018-.75 2.255-.75 5.05m122.392 9.255c-3.005 4.181-3.079 4.533-2.238 10.678 2.002 14.639 3.696 16.98 13.15 18.174 7.658.966 17.324 3.105 18.257 4.038.384.383-.441 1.216-1.833 1.85-2.438 1.111-2.478 1.276-1.115 4.537 1.685 4.033 1.154 4.208-2.764.911-2.853-2.4-6.445-3.672-13.998-4.958-2.008-.341-5.231-1.694-7.164-3.006l-3.514-2.385-4.471 4.284c-3.324 3.185-5.848 4.606-9.837 5.539-7.514 1.757-11.257 3.417-15.633 6.933-2.237 1.799-5.762 3.413-8.614 3.946-3.8.71-5.868 1.927-9.722 5.724-3.234 3.185-4.896 4.267-4.896 3.186 0-1.79 6.083-10.186 9.412-12.99 5.79-4.877 16.499-10.355 24.339-12.449 4.677-1.249 9.319-3.008 10.315-3.909 2.382-2.156 4.163-10.73 3.352-16.138-.696-4.641-1.426-5.203-3.505-2.698-2.012 2.424-11.603 8.713-18.913 12.401-12.142 6.126-29.211 10.971-38.815 11.016l-4.685.022-6.879 13.228c-14 26.924-25.972 44.817-37.891 56.631l-5.451 5.403.332 13.097.333 13.097 4.778 2.726c9.659 5.511 22.094 8.851 43.686 11.736 28.985 3.873 45.686 3.627 68.713-1.01 9.822-1.978 21.363-5.282 23.656-6.773.702-.457 2.727-7.321 4.5-15.255 2.747-12.292 3.265-13.759 3.508-9.924.156 2.475-.549 8.663-1.569 13.75-1.019 5.087-1.469 9.25-1.001 9.25s3.053-1.116 5.744-2.479c4.8-2.433 4.905-2.586 5.603-8.17.432-3.46.068-11.797-.928-21.271-2.8-26.617-1.997-35.774 4.469-50.928 6.841-16.033 7.323-19.133 5.816-37.379l-1.305-15.803-5.112-2.34c-3.023-1.384-6.316-2.174-8.057-1.933-1.62.224-7.22-.547-12.445-1.712-15.329-3.42-14.11-3.514-17.608 1.353m51.2 9.152c-.424 1.687-.19 3.416.611 4.513 3.309 4.537 16.047 19.081 16.4 18.727.219-.219.104-5.872-.256-12.564L731.693 374l-2.597-.009c-1.428-.004-4.896-.285-7.707-.622-4.941-.594-5.133-.524-5.797 2.121M466.63 387.5c-2.732 8.938-3.021 12.008-1.623 17.248 1.284 4.81 6.561 14.252 7.966 14.252.42 0-.105-3.937-1.168-8.75-1.062-4.812-2.249-13.25-2.636-18.75l-.705-10zm194.716 49.302c-1.185 4.784-2.487 9.756-2.893 11.049-.615 1.955-.421 2.291 1.154 1.997 2.905-.543 5.4-6.566 5.321-12.848-.119-9.525-1.257-9.588-3.582-.198m-66.647 6.383c-2.64 1.676-4.596 3.251-4.347 3.501.667.666 8.066-3.279 9.587-5.113 1.955-2.355.126-1.792-5.24 1.612m93.639-.079c-1.158 1.159-5.196 3.117-8.972 4.353l-6.866 2.247 5.248.741c6.408.904 10.918-1.262 12.939-6.214 1.521-3.73.665-4.14-2.349-1.127M647.5 453.42c-5.158 1.331-7.145 2.188-5.593 2.412 3.614.523 10.575-.733 12.706-2.291 3.1-2.267 1.32-2.297-7.113-.121m13.045 25.886c-2.131 5.014-2.633 7.41-2.123 10.131.368 1.96 1.022 3.563 1.454 3.563.99 0 2.677-3.244 4.617-8.876 1.853-5.38 1.887-7.222.175-9.563-1.207-1.651-1.595-1.204-4.123 4.745m-55.018 11.944c2.062 7.01 7.196 16.161 11.069 19.732 4.094 3.773 8.81 5.945 10.103 4.653.332-.333-2.999-4.359-7.404-8.947s-9.24-10.445-10.747-13.015c-2.979-5.084-4.058-5.95-3.021-2.423m90.433 20.262c-8.089 4.121-24.615 9.347-38.194 12.077-17.882 3.594-43.193 4.412-61.572 1.987-25.351-3.343-44.838-8.218-53.66-13.423l-3.335-1.968-1.493 5.928-1.493 5.928 4.493 2.633c13.36 7.829 46.61 15.474 73.794 16.968 24.459 1.343 61.814-6.211 82.632-16.711l5.632-2.841-.524-4.795c-.909-8.302-1.061-8.442-6.28-5.783m-165.335 19.335c-3.738 5.435-6.544 12.642-7.809 20.054-.979 5.734-.844 7.976 1.024 17.099 4.223 20.626 3.859 29.808-2.298 57.931-7.03 32.108-10.426 44.421-14.566 52.813l-4.067 8.244 2.64 4.506c1.452 2.478 3.017 4.737 3.476 5.021.46.285 3.679-3.6 7.155-8.631l6.32-9.147.711 3.881c.391 2.135 1.066 7.702 1.5 12.371l.789 8.489 7 2.824c15.065 6.077 23.137 7.864 38.081 8.429 17.969.68 31.501-1.622 46.169-7.854 3.88-1.649 4.25-2.12 4.25-5.41 0-3.001 5.844-32.061 7.572-37.65.402-1.301-.213-1.755-2.709-2-2.841-.279-1.978-.845 7.179-4.703 5.725-2.413 13.57-5.46 17.433-6.772 6.529-2.217 7.855-3.213 18.775-14.098 6.462-6.442 11.75-11.402 11.75-11.022 0 1.02-5.319 9.859-10.997 18.274-6.8 10.077-11.556 13.439-26.178 18.507-9.51 3.297-9.502 4.909.045 9.317 4.197 1.938 10.33 4.293 13.63 5.233 11.385 3.244 11.459 3.28 6.934 3.368-6.477.126-15.367-1.871-22.273-5.002-3.514-1.593-6.729-2.686-7.145-2.429-1.508.932-1.976 6.781-.89 11.097l1.111 4.413h4.664c2.565 0 7.124.679 10.131 1.509 7.993 2.207 22.245 2.929 30.968 1.571 15.743-2.453 30.022-8.604 48-20.677 14.819-9.952 13.695-8.428 10.77-14.613-1.376-2.909-4.365-12.594-6.642-21.521-4.651-18.233-6.266-23.392-15.109-48.269-5.578-15.691-6.19-18.172-5.921-24 1.023-22.197.383-26.803-4.656-33.475-1.329-1.76-1.734-1.823-3.717-.579-34.441 21.602-90.784 27.17-137.725 13.61-4.675-1.35-8.802-2.14-9.171-1.756-2.657 2.77-8.121 16.182-9.854 24.189-2.591 11.972-4.799 19.708-6.666 23.354-2.218 4.33-2.641 2.493-.805-3.494 1.026-3.347 1.601-8.53 1.536-13.849-.123-10.042 2.263-18.444 7.612-26.805 1.919-3 3.12-5.778 2.668-6.174s-4.726-2.769-9.501-5.274l-8.681-4.554zM677 563.689c-15.441 1.629-72.728 14.703-66.812 15.248 2.074.191 35.702-4.494 50.312-7.009 9.35-1.609 17.675-2.912 18.5-2.895 1.553.031 1.146.451-7.955 8.211-2.415 2.059-4.12 4.015-3.788 4.346 1.327 1.328 12.77-6.063 18.788-12.136l6.397-6.454-5.971.16c-3.284.088-7.546.326-9.471.529m0 38.342c-5.775 1.027-24.45 3.953-41.5 6.502-31.525 4.714-34.123 5.177-33.348 5.952.67.67 38.553-1.29 49.064-2.538 18.217-2.163 39.784-8.168 39.784-11.078 0-1.166-1.703-1.025-14 1.162m52 77.091c-7.748 5.682-23.951 13.418-34.15 16.306-17.768 5.031-30.481 5.314-46.956 1.045-3.363-.872-6.311-1.39-6.549-1.151-.721.721 8.285 20.447 14.691 32.178 16.095 29.477 18.132 34.821 22.456 58.912.88 4.902 2.902 11.974 4.495 15.717 3.069 7.212 7.384 14.234 8.416 13.694.646-.337 9.419 18.193 10.263 21.677.33 1.36-.531.8-2.688-1.75-1.744-2.062-3.916-3.76-4.825-3.772s-2.989-2.013-4.623-4.447c-1.633-2.433-3.123-4.271-3.311-4.083s-.769 3.201-1.293 6.696c-5.553 37.076-5.978 44.361-3.436 58.806 2.039 11.588 2.772 13.607 10.597 29.197 10.221 20.366 14.409 37.86 15.875 66.32.958 18.6-.118 29.952-4.023 42.435-1.135 3.629-2.306 10.423-2.603 15.098-.492 7.756-.334 8.806 1.812 12 1.446 2.151 4.593 4.62 8.168 6.407 5.493 2.745 6.768 2.947 23 3.64 19.936.851 27.142 2.361 40.684 8.521 11.611 5.282 16.158 6.376 26.624 6.408 4.757.014 9.938.67 12.5 1.582 5.795 2.064 14.313 2.041 17.501-.048 1.933-1.267 2.423-2.335 2.184-4.762-.277-2.806-.786-3.25-4.93-4.302-4.891-1.241-12.879-5.308-12.879-6.556 0-.408 2.619.285 5.819 1.539s7.524 2.6 9.609 2.991 4.833 1.838 6.109 3.214l2.319 2.503 1.143-2.136c.906-1.691.812-2.641-.451-4.568-.877-1.338-2.146-2.445-2.821-2.459s-3.027-.92-5.227-2.011c-3.671-1.821-3.753-1.945-1-1.498 1.65.268 4.083.794 5.406 1.168 3.689 1.045 1.743-1.251-4.266-5.035-3.325-2.093-7.59-3.674-12.077-4.476-14.007-2.505-22.117-7.976-48.927-33.012-28.509-26.622-28.295-25.889-29.623-101.11-.699-39.598-1.285-52.901-2.927-66.5-2.446-20.244-2.58-28.913-.629-40.414 1.994-11.753 3.575-27.362 3.502-34.586-.071-7.153-3.895-20-5.953-20-1.459 0-9.76 9.632-15.046 17.46-2.856 4.23-3.231 4.446-7.236 4.165-7.282-.51-14.311-6.37-19.087-15.912-2.997-5.988-8.027-21.156-7.268-21.915.316-.317 1.052.68 1.636 2.215 6.282 16.522 17.828 29.75 24.505 28.074 3.236-.812 10.886-9.653 14.182-16.39 1.85-3.781 2.899-5.083 3.13-3.884.23 1.197 1.066 1.7 2.485 1.495 1.935-.279 2.265-1.345 3.5-11.308 2.468-19.906 1.655-67.563-1.15-67.456-.636.025-3.632 1.86-6.657 4.078m-209.637 42.534c.374 7.614 1.124 16.769 1.668 20.344s1.427 14.15 1.965 23.5 1.2 18.35 1.471 20l.493 3-1.125-3.25c-.618-1.788-1.438-3.25-1.821-3.25s-1.692 3.487-2.909 7.75-3.365 11.8-4.772 16.75c-3.403 11.967-3.988 25.638-1.93 45.09 2.737 25.863 1.701 30.674-3.271 15.185-2.685-8.367-3.074-9.03-3.965-6.775-.543 1.375-3.046 6.906-5.563 12.29-10.069 21.543-14.608 39.383-14.597 57.367.007 11.366 1.447 21.171 7.323 49.843 4.621 22.546 7.36 40.17 8.703 56 1.2 14.15.965 17.437-2.22 31.07-2.227 9.529-2.036 12.698.991 16.437l1.83 2.26 4.536-6.384c2.495-3.511 5.259-7.733 6.143-9.383 1.496-2.793 1.61-2.84 1.647-.678.022 1.278-2.21 7.165-4.96 13.082s-5.007 11.398-5.015 12.178c-.013 1.17-.188 1.156-1-.082-1.4-2.132-2.671.082-3.497 6.089-.734 5.339.446 10.589 3.289 14.632 4.446 6.322 5.37 9.498 6.29 21.619.508 6.688 1.335 13.591 1.838 15.34s3.382 5.687 6.397 8.75c4.643 4.718 6.033 5.57 9.09 5.57 1.984 0 3.608-.155 3.608-.343s-.876-2.889-1.946-6c-1.071-3.112-1.576-5.657-1.123-5.657 1.431 0 2.821 2.353 4.136 7 1.524 5.389 4.497 9 7.407 9 3.962 0 4.417-1.649 2.505-9.08-.979-3.806-1.43-6.92-1.002-6.92 1.053 0 5.023 9.377 5.023 11.864 0 4.262 6.274 6.921 8.891 3.768.861-1.038.652-2.912-.865-7.75-2.442-7.793-2.586-9.592-.636-7.974.764.635 2.411 3.952 3.659 7.373 2.693 7.377 4.489 9.719 7.451 9.719 2.326 0 5.5-2.827 5.5-4.898 0-.683-1.402-4.608-3.115-8.723s-2.799-7.797-2.414-8.181c.929-.925 4.172 3.164 7.116 8.973 2.761 5.45 5.709 7.829 9.701 7.829 5.075 0 8.668-2.706 8.697-6.55.028-3.799-1.745-4.365-7.304-2.333-6.378 2.331-6.779 2.315-3.82-.15 1.298-1.082 3.661-1.967 5.25-1.967s2.889-.185 2.889-.41c0-1.285-9.255-16.449-15.006-24.59-11.397-16.129-25.993-45.956-25.995-53.121-.001-1.859-1.238-8.104-2.75-13.879-2.581-9.858-2.743-11.722-2.649-30.5.153-30.67 3.906-52.226 13.845-79.527 7.43-20.409 8.579-26.554 8.446-45.181-.059-8.411-.407-17.992-.773-21.292l-.665-6-3.188 6.145c-7.724 14.889-15.615 39.919-17.768 56.355-1.376 10.509-2.634 8.94-2.005-2.5 1.481-26.92 5.184-39.464 21.108-71.5 16.241-32.675 21.439-48.046 19.941-58.96-.366-2.665-.266-4.014.242-3.266 1.112 1.639 13.004-15.859 17.696-26.04 4.455-9.665 5.816-14.765 10.071-37.734 5.33-28.769 5.059-26.327 2.849-25.632-11.544 3.629-19.135 4.9-31.899 5.339-20.31.699-34.048-2.392-52.887-11.902l-5.93-2.994zm45.147 53.699c-3.729 3.56-10.187 6.868-18.912 9.687-5.358 1.731-6.935 2.712-7.739 4.816-1.496 3.914-3.033 12.944-2.631 15.452.275 1.712.862 1.04 2.695-3.083 2.996-6.743 6.441-9.585 14.936-12.321 8.267-2.662 10.323-2.258 16.596 3.263l4.788 4.215-.72-3.442c-.824-3.942-3.086-7.881-4.831-8.412-.656-.2-2.409-.629-3.896-.954l-2.704-.591 3.06-4.923c3.703-5.957 3.421-7.586-.642-3.707M542 827.87c0 3.55 8.882 6.066 15.713 4.451 6.198-1.466 4.345-2.778-4.919-3.485-4.788-.364-9.175-.954-9.75-1.309s-1.044-.201-1.044.343m172.682 177.342c-2.765 7.164-3.27 14.961-1.303 20.11 1.582 4.143 7.051 10.582 8.098 9.534.274-.273-.499-3.166-1.717-6.427-1.586-4.248-2.362-9.048-2.737-16.929l-.523-11z"/></g></svg>
