<svg xmlns="http://www.w3.org/2000/svg" width="512" height="512" viewBox="0 0 512 512"><g transform="scale(0.4082934609250399)"><path fill="#fff" fill-rule="evenodd" d="M616.5 32.629c-31.046 4.824-52.99 30.737-52.388 61.862l.174 8.99-4.246.725c-26.389 4.505-29.82 45.758-4.841 58.206 8.864 4.417 20.645 2.835 27.617-3.71l2.316-2.174-.658 5.486c-.926 7.719-4.279 19.638-7.089 25.199-3.844 7.608-7.815 11.283-20.517 18.991-6.592 4-14.547 9.34-17.677 11.868-3.937 3.178-7.862 5.252-12.733 6.727-14.157 4.287-25.363 14.138-32.501 28.572-6.162 12.461-7.137 17.024-7.554 35.386-.313 13.788-.672 16.85-2.362 20.162-7.291 14.293-10.532 29.677-9.653 45.831l1.241 22.843c.391 7.203.165 15.059-.597 20.75-1.103 8.229-1.718 9.927-6.07 16.758-15.316 24.043-18.849 36.056-22.468 76.399-1.911 21.302-4.567 38.874-8.164 54-2.288 9.624-3.115 11.563-6.608 15.5-4.205 4.74-8.696 13.193-8.712 16.4-.01 1.817-.8 1.876-18.036 1.343-20.745-.64-27.781.369-37.772 5.421-12.378 6.258-23.413 21.69-26.698 37.336-1.27 6.05-1.472 41.223-1.487 259.191-.011 168.084-.353 252.398-1.023 252.813-.554.342-11.466 2.21-24.25 4.151-15.527 2.358-23.825 4.048-24.994 5.092-1.521 1.359-1.75 3.548-1.75 16.753 0 13.3.222 15.391 1.782 16.803 1.092.988 6.914 2.466 15.037 3.817l13.255 2.206 19.713-3.644c20.899-3.863 167.282-28.682 169.164-28.682.61 0 .111-1.35-1.109-3-1.274-1.723-3.138-3-4.379-3-2.816 0-133.519 21.769-161.668 26.926l-21.705 3.977-11.295-1.945c-6.212-1.07-11.408-1.948-11.545-1.951-.648-.018-.156-23.944.5-24.328.412-.241 5.832.186 12.043.95 11.092 1.364 11.608 1.336 29-1.573 9.739-1.63 25.132-4.094 34.207-5.477l46-7.011c39.616-6.039 83.964-12.568 85.364-12.568.761 0 1.14 2.89 1.149 8.75.011 7.43.382 9.398 2.459 13.044 7.422 13.03 27.589 15.654 50.159 6.527 9.063-3.665 9.794-3.794 22.369-3.933 7.15-.08 14.377-.593 16.059-1.142 3.017-.983 3.084-.928 4.787 3.866 5.305 14.936 24.032 19.477 49.557 12.018l11.402-3.332 17.134.714c14.652.61 18.069.462 23.597-1.021 3.555-.954 8.423-2.065 10.817-2.47 2.394-.404 4.758-1.362 5.255-2.128s.787-5.213.647-9.882l-.255-8.49-4.5-2.201c-2.475-1.211-5.906-2.229-7.624-2.261-8.358-.158-20.712-8.205-33.316-21.702-5.367-5.747-7.277-8.612-8.431-12.644-5.936-20.748-4.28-53.347 4.989-98.213 6.17-29.861 12.324-63.221 13.984-75.796 2.31-17.508 1.453-43.076-1.968-58.704-6.653-30.397-6.58-29.918-5.514-35.863.555-3.1 2.642-10.587 4.637-16.637 3.456-10.482 3.653-11.825 4.189-28.5l.562-17.5 7.306-16.261C702.793 720.574 711 692.151 713.982 667c1.419-11.963 2.953-38.632 3.7-64.342.757-26.012-.592-40.685-7.368-80.158-3.021-17.6-5.854-36.297-6.295-41.549-.442-5.252-2.171-15.174-3.843-22.049l-3.041-12.499 1.43-11.952c2.792-23.351 5.262-41.612 5.685-42.034.986-.986 7.867 15.734 8.714 21.174.507 3.25 1.444 9.487 2.083 13.86 2.454 16.777 10.488 39.601 20.256 57.544 2.247 4.128 9.242 15.83 15.543 26.005C765.852 535.229 778 558.258 778 562.475c0 3.967 1.698 9.152 4.153 12.679 1.016 1.46 1.847 2.888 1.847 3.173s-5.989.665-13.309.846c-13.077.321-13.442.393-20.895 4.08-12.013 5.943-19.984 15.794-25.687 31.747-1.459 4.08-1.656 29.842-2.109 275.983l-.5 271.484-24 3.691c-27.063 4.162-31.043 5.119-32.484 7.812-.559 1.044-1.016 7.978-1.016 15.408 0 18.53-.445 18.053 19.642 21.037l15.097 2.242 125.381-20.925c88.381-14.751 125.896-21.386 127.13-22.484 1.506-1.341 1.748-3.453 1.735-15.153-.009-7.477-.402-14.204-.873-14.949-1.378-2.173-21.484-5.413-29.112-4.69l-6.5.616V877.786c0-246.504-.077-257.558-1.834-263.786-5.287-18.735-18.273-31.239-35.345-34.035-3.202-.524-8.521-.966-11.821-.981-5.774-.026-6.056-.149-7.5-3.256-1.221-2.628-3.821-4.444-14-9.774-6.875-3.6-16.276-9.082-20.891-12.183-9.379-6.3-8.004-3.932-16.693-28.771-6.124-17.509-9.842-33.285-13.314-56.5-4.785-31.986-8.166-41.082-23.62-63.54-8.084-11.747-8.445-12.881-10.994-34.46-3.138-26.563-5.954-37-14.487-53.684l-4.953-9.684.624-15.842c.702-17.822-.432-28.614-4.189-39.886-8.387-25.161-27.23-38.969-54.594-40.008-10.458-.397-10.781-.484-22.25-5.935-12.765-6.068-12.487-5.699-11.009-14.641.566-3.418.783-3.613 3.055-2.75 1.345.512 5.003.928 8.13.926 7.064-.004 11.573-2.524 13.853-7.739.903-2.066 4.693-10.282 8.421-18.257 7.458-15.953 9.144-22.638 8.768-34.773-.132-4.25.392-11.47 1.165-16.045 1.274-7.543 1.234-9.267-.433-18.5-1.011-5.6-2.173-12.983-2.582-16.407-1.077-9.018-5.206-16.507-13.985-25.366-8.27-8.345-16.922-13.315-29.522-16.959-6.882-1.99-23.737-3.294-30-2.321m.5 7.425c-17.04 2.075-31.521 11.876-39.207 26.535C572.872 75.977 571 83.895 571 95.327c0 8.328.23 9.611 1.811 10.113.996.316 3.261 2.07 5.032 3.898l3.222 3.324 4.907-2.428c4.329-2.143 5.325-2.291 8.452-1.259 1.95.643 4.433 2.299 5.518 3.678 1.471 1.87 2.521 2.335 4.126 1.825 3.952-1.254 10.17-7.882 16.669-17.766 10.918-16.608 19.434-23.38 32.983-26.23 7.874-1.656 17.201-.661 23.725 2.53 2.17 1.062 4.116 1.76 4.324 1.552.807-.807-4.893-11.349-8.269-15.293-5.009-5.852-15.768-12.706-24.538-15.633-6.575-2.194-21.008-4.872-24.284-4.507-.648.073-4.103.488-7.678.923m35.5 36.285c-11.583 3.836-17.58 8.984-27.068 23.231-8.151 12.241-14.121 17.906-20.037 19.016-2.847.534-3.939.143-6.923-2.476-9.654-8.477-19.516 1.996-15.259 16.205 2.534 8.46 13.26 15.613 19.29 12.866 3.267-1.489 3.265.27-.003 2.411-2.286 1.498-2.5 2.258-2.5 8.893 0 8.022-3.163 27.924-5.416 34.074-1.881 5.137-1.909 4.117-.12-4.386 3.217-15.295 3.684-20.366 2.514-27.303-.671-3.979-1.854-7.352-2.913-8.311-1.692-1.532-1.818-1.239-2.446 5.694-1.678 18.511-7.886 34.601-17.254 44.72l-5.593 6.041 2.618 5.352c1.441 2.943 3.767 6.59 5.17 8.104s2.388 2.916 2.189 3.115c-1.049 1.048-8.04-5.24-10.392-9.347-1.492-2.606-2.834-4.902-2.982-5.102-.358-.483-7.375 3.87-7.375 4.575 0 .301 1.101 3.6 2.447 7.331 5.924 16.422 8.788 43.222 6.613 61.886-3.129 26.849-11.786 46.649-24.311 55.605l-2.751 1.967 8.556 16.975c4.706 9.336 9.005 17.252 9.554 17.592s.867 1.025.707 1.525c-.16.499 1.276 5.977 3.19 12.172 2.275 7.36 3.9 11.103 4.687 10.801 3.006-1.154 17.275-3.694 26.579-4.733 13.536-1.51 53.336-1.451 67.506.101 6.202.679 16.327 2.263 22.5 3.519s11.326 2.203 11.452 2.104.775-4.505 1.442-9.791l1.214-9.611-3.519-5.327c-5.714-8.648-12.424-21.717-15.859-30.888l-3.207-8.561-5.65 1.909c-7.205 2.435-19.79 2.537-27.8.224-20.057-5.79-35.346-22.441-41.525-45.224-2.93-10.805-2.911-28.562.043-39.787 4.254-16.168 14.486-31.82 25.989-39.754 2.554-1.761 7.957-4.374 12.008-5.807l7.365-2.606-3.848-2.27c-3.054-1.802-4.75-2.147-8.209-1.673-6.325.867-15.991 5.809-25.427 13-12.602 9.604-17.518 11.807-8.744 3.918 13.251-11.914 20.262-16.173 30.218-18.358l5.72-1.255-3.118-3.55c-3.991-4.546-8.564-14.366-9.381-20.145l-.636-4.5 3.538 7.208c3.78 7.699 9.54 14.657 14.568 17.599l3.089 1.806v-20.001l4.266 1.888c6.987 3.09 13.529 4.223 17.269 2.989 2.706-.894 3.657-2.062 5.521-6.784 1.238-3.138 3.714-8.682 5.503-12.321 7.07-14.386 8.667-20.369 8.911-33.384.124-6.6.771-14.317 1.439-17.15 1.286-5.455.41-15.522-2.249-25.85-1.211-4.706-1.633-5.171-7.162-7.912-6.908-3.425-17.463-4.414-23.998-2.249m-96 34.551c-5.068 2.339-7.839 5.361-10.563 11.519-7.38 16.685 4.469 37.552 21.345 37.585 6.317.013 14.691-5.548 17.233-11.443 1.179-2.735 1.029-3.269-2.068-7.325-4.627-6.059-5.816-10.283-5.146-18.278.508-6.056.347-6.913-1.618-8.6-6.477-5.561-12.337-6.617-19.183-3.458M592 196c0 .733.3 1.033.667.667a.95.95 0 0 0 0-1.334c-.367-.366-.667-.066-.667.667m49.64 17.083c-14.289 4.915-25.115 15.915-31.417 31.922-4.264 10.832-5.591 19.389-4.941 31.865 1.409 27.086 16.94 48.843 39.068 54.735 6.292 1.675 18.167 1.797 24.314.249 4.538-1.142 4.549-1.155 3.896-4.75-2.947-16.237-3.586-21.837-3.456-30.271.131-8.402-.128-10.058-1.977-12.654-3.221-4.524-2.586-4.662 2.373-.517 3.268 2.732 4.5 4.492 4.5 6.429 0 4.22 3.563 23.437 6.435 34.708 4.518 17.729 10.699 31.321 23.055 50.701 4.761 7.466 5.623 8.403 5.06 5.5-1.9-9.794-1.237-9.429 2.754 1.518 5.953 16.33 11.774 29.022 17.172 37.444 2.481 3.871 4.118 7.038 3.638 7.038-.737 0-4.724-4.432-9.841-10.94-3.32-4.222 1.938 19.911 7.94 36.44 5.511 15.178 14.529 32.914 26.948 53 19.577 31.662 28.012 48.253 28.218 55.5.225 7.942 3.96 12.635 17.588 22.101L815 591.459v17.445l-3.653 3.548c-2.01 1.951-4.09 3.548-4.623 3.548s-.409.675.276 1.5c1.924 2.318 9.104 1.905 13.04-.75 3.557-2.4 3.969-3.492 5.959-15.821.675-4.178 2.059-8.66 3.09-10l1.867-2.429-.051 7.5c-.083 12.162-1.201 17.656-4.241 20.829-1.481 1.545-2.386 3.116-2.011 3.49 1.164 1.165 6.316.748 9.202-.744 3.693-1.91 5.063-5.284 6.293-15.498.568-4.717 1.893-10.377 2.945-12.577l1.912-4-.548 10.25c-.365 6.815-.198 10.25.497 10.25.634 0 1.091-3.249 1.161-8.25.099-7.08.232-7.683.942-4.25 1.441 6.963 1.109 11.04-1.057 13-1.1.995-2.003 2.303-2.006 2.905-.004.602-.652 2.333-1.441 3.845-1.427 2.736-1.418 2.75 1.89 2.75 2.591 0 4.096-.854 6.82-3.869 4.688-5.19 6.089-9.643 4.796-15.25-.556-2.41-1.021-7.318-1.035-10.908-.015-4.125-.572-7.31-1.512-8.652-1.386-1.979-10.321-5.845-11.284-4.883-.237.238.289 1.462 1.17 2.72S845 580.28 845 581.3c0 1.543-.683 1.271-4.046-1.607-2.225-1.905-6.612-4.838-9.75-6.518-9.432-5.051-10.171-6.274-1.861-3.079 11.989 4.608 12.376 3.154 1.019-3.825-20.676-12.706-22.228-14.758-30.894-40.877-6.185-18.64-9.834-34.321-12.963-55.708-2.584-17.66-5.554-30.015-9.3-38.686-1.07-2.475-5.966-10.575-10.882-18s-9.902-15.3-11.082-17.5c-4.44-8.285-10.244-20.5-9.74-20.5.288 0 2.107 2.475 4.042 5.5s3.735 5.5 4 5.5c.264 0 .252-1.687-.027-3.75-2.906-21.48-3.998-28.147-6.018-36.75-1.291-5.5-3.733-13.084-5.427-16.854-4.271-9.502-12.77-22.249-18.965-28.445-2.861-2.86-4.842-5.198-4.404-5.194 1.261.012 12.298 9.053 12.298 10.074 0 .505.383.919.85.919 1.403 0 2.128-21.777 1.081-32.5-2.796-28.654-14.66-45.442-36.868-52.172-6.507-1.972-19.359-2.632-29.063-1.492-4.675.549-8.656.841-8.847.65s1.496-.9 3.75-1.575 4.097-1.545 4.097-1.933c0-1.35-11.774-5.978-15.125-5.945-1.856.019-6.012.941-9.235 2.05m-97.14 9.493c-3.3 2.488-7.687 6.167-9.75 8.177s-3.75 3.112-3.75 2.45c0-3.434-11.827 1.949-19.248 8.762-10.787 9.902-16.497 24.005-17.458 43.121-.345 6.862-.217 11.914.303 11.914.497 0 2.382-1.687 4.189-3.75l3.286-3.75-3.97 8.096c-11.482 23.417-15.241 35.662-15.451 50.322-.18 12.64 1.373 35.505 2.336 34.379.376-.438 1.494-3.047 2.485-5.797 2.047-5.677 8.539-17.822 9.183-17.178.234.233-.954 3.896-2.639 8.138-3.887 9.785-8.973 29.208-13.427 51.28-4.122 20.432-5.998 24.949-5.091 12.26.334-4.675.837-9.4 1.118-10.5.891-3.497-3.16 2.189-7.63 10.71-8.932 17.024-10.816 25.074-14.566 62.242-2.649 26.252-4.82 39.549-9.155 56.048-2.235 8.509-3.26 10.712-6.874 14.778-4.013 4.515-8.314 13.132-7.141 14.306.297.296 2.997.792 6.001 1.102 6.143.634 12.087-.874 15.426-3.915l2.178-1.983 3.53 3.531c1.942 1.941 7.037 5.242 11.323 7.335s8.134 4.264 8.552 4.826.652 4.654.521 9.095c-.19 6.402.136 8.649 1.575 10.845l1.814 2.769 3.446-6.844c3.367-6.689 3.43-7.039 2.769-15.345l-.675-8.5-8.855-9.288c-4.87-5.108-8.855-9.721-8.855-10.25s-.97-.962-2.155-.962c-1.967 0-2.022-.153-.629-1.75.839-.962 1.832-4.225 2.208-7.25.375-3.025 2.459-10.837 4.632-17.361 3.82-11.474 6.12-16.47 20.256-44.018 13.305-25.928 16.786-37.412 18.849-62.168.731-8.774 1.475-14.941 1.653-13.703.179 1.238.673 2.25 1.099 2.25 1.24 0 10.694-20.667 13.953-30.5 1.64-4.95 4.178-13.95 5.639-20l2.658-11-8.579-17.753c-11.56-23.923-14.606-35.382-13.112-49.331.387-3.615.92-6.357 1.184-6.093.265.264.923 3.674 1.464 7.577s1.634 8.785 2.428 10.848l1.445 3.752-.563-4.5a634 634 0 0 0-1.054-8c-.335-2.393-.199-3.025.433-2 .508.825 1.222 3.462 1.586 5.859.969 6.369 7.391 25.731 10.748 32.405l2.9 5.764 3.033-2.242c3.906-2.888 9.441-11.254 12.617-19.069 6.499-15.993 9.353-38.782 7.323-58.476-1.537-14.92-6.785-36.303-8.887-36.214-.346.014-3.329 2.062-6.629 4.549M707 348.418c3.655 4.002 13.807 11.108 14.656 10.259.396-.396-6.794-6.019-16.656-13.024-.825-.586.075.658 2 2.765m-164.934 24.127c-2.208 11.33-7.068 24.669-14.053 38.567-6.079 12.098-7.013 14.671-7.013 19.323 0 8.103-3.541 26.958-6.937 36.937-1.66 4.88-7.406 17.255-12.768 27.5-16.751 32.007-21.616 43.594-24.222 57.69l-1.088 5.884 8.397 8.527c4.619 4.69 8.913 9.54 9.543 10.777 1.065 2.091 1.805 2.25 10.494 2.25 8.849 0 9.38.12 9.951 2.25 1.526 5.695 1.436 5.75-9.379 5.75h-10.008l.639 5.439c.556 4.737.299 6.02-1.991 9.928-1.447 2.469-2.631 4.735-2.631 5.035s6.863.67 15.25.822l15.25.276.313 3.25.314 3.25h-17.395c-17.121 0-17.413.036-18.623 2.297-.677 1.264-2.215 2.925-3.419 3.693-4.223 2.691-19.982 3.877-38.067 2.866-6.661-.373-6.997-.52-10.693-4.684l-3.815-4.3-17.975.314-17.975.314-4.333 3.044c-2.382 1.675-5.457 5.05-6.832 7.5l-2.5 4.456-.258 248.75c-.142 136.813.048 248.75.422 248.75s14.665-2.073 31.758-4.606a29341 29341 0 0 1 63.005-9.25l31.927-4.644 2.282-4.5c10.978-21.649 11.094-59.828.418-137.804-1.68-12.266-3.064-23.966-3.076-26s-1.614-8.196-3.561-13.696c-6.369-17.995-7.854-32.998-4.927-49.781 2.192-12.573 5.439-20.707 18.358-45.994l11.636-22.776.623-14.724c.359-8.495 1.358-17.687 2.36-21.725 1.038-4.182 1.716-10.624 1.684-16-.05-8.352-1.134-15.689-7.757-52.5-2.958-16.445-4.222-47.546-2.499-61.5.611-4.95 1.638-14.4 2.282-21l1.17-12-2.796-6.977c-6.97-17.391-6.992-40.916-.06-62.36 2.226-6.885 8.633-21.202 17.151-38.327 7.479-15.035 14.931-31.155 16.561-35.823 4.578-13.114 7.792-26.027 7.794-31.317.007-12.154-14.155-59.01-20.295-67.151-1.376-1.824-1.553-1.556-2.636 4M593 368.63c-9.321 1.335-16.06 2.644-15.662 3.041.257.257 3.998-.048 8.314-.678 4.317-.629 13.698-1.493 20.848-1.92l13-.776-12-.012c-6.6-.007-13.125.148-14.5.345m5 33.404c-14.494 1.252-30 4.036-30 5.387 0 .614 1.121 6.057 2.491 12.097s2.495 13.268 2.5 16.062c.008 4.671-4.742 24.049-8.376 34.17-.84 2.337-1.139 4.25-.666 4.25.474 0 6.866-.73 14.206-1.622 18.677-2.269 57.642-2.318 72.068-.09 13.7 2.115 24.863 4.971 36.618 9.369 5.137 1.922 9.458 3.348 9.601 3.169.589-.737-2.665-17.217-5.94-30.083-3.893-15.293-4.057-16.338-2.002-12.743l1.429 2.5.107-3c.059-1.65.892-9.75 1.851-18q1.745-15 .73-15.682c-1.222-.821-10.394-2.464-24.617-4.409-12.91-1.766-55.739-2.607-70-1.375m-1.5 33.519c0 29.654.04 30.268 1.667 25.482 4.468-13.145 4.869-33.277.954-47.875-1.082-4.037-2.115-7.487-2.294-7.667-.18-.179-.327 13.347-.327 30.06M740.072 410c-.04 7.414 1.338 11.189 7.968 21.828 3.477 5.579 6.469 9.997 6.648 9.818s-1.75-5.011-4.287-10.736-5.893-13.785-7.458-17.91l-2.846-7.5zm-246.126 17.153c-1.206 2.391-4.563 6.849-7.459 9.907s-6.696 8.391-8.442 11.851c-3.559 7.05-3.522 9.233.056 3.392 1.282-2.092 5.347-7.004 9.035-10.917 5.143-5.457 7.073-8.351 8.282-12.42 1.985-6.686 1.37-7.444-1.472-1.813M582 479.431c-6.325.722-14.089 1.852-17.253 2.512-5.642 1.177-5.796 1.3-7.972 6.379-1.22 2.848-3.228 7.181-4.463 9.629s-2.146 4.546-2.028 4.663c.119.117 2.241-.179 4.716-.657 6.425-1.242 27.273-1.208 26.5.043-.34.55-3.252 1-6.471 1-5.992 0-18.816 2.115-24.799 4.089-3.016.995-3.975 2.403-9.712 14.258C530.383 542.287 527 555.326 527 573.451c0 16.089 5.261 33.082 12.956 41.846 3.767 4.291 3.024 4.733-2.101 1.251l-3.609-2.453-.612 3.703c-1.235 7.47-2.104 7.001 13.116 7.077 8.515.042 18.89.854 27.25 2.131 7.425 1.134 15.638 2.334 18.25 2.667l4.75.606V615.78l-4.936-5.401c-15.189-16.619-19.247-43.82-10.11-67.768 1.593-4.176 2.105-2.795.895 2.416-1.578 6.795-.395 26.145 2.137 34.957 4.568 15.897 12.883 27.3 24.736 33.92l5.778 3.228-5.75-.494-5.75-.493v4.427c0 2.436.337 4.417.75 4.404s4.125-.94 8.25-2.06c10.126-2.749 28.07-4.847 41.789-4.885 16.821-.046 30.266 1.682 51.803 6.658 2.022.468 2.113.024 2.732-13.353.734-15.87-.538-42.568-2.827-59.336-2.191-16.045-4.594-28.243-5.895-29.922-1.839-2.373-20.53-10.8-30.102-13.573-12.629-3.657-32.222-6.481-50.992-7.349l-16.008-.74 13.634-.823c27.821-1.677 55.24 3.167 75.472 13.335 4.319 2.171 8.012 3.787 8.207 3.592s-.471-5.229-1.479-11.187L697.5 494.5l-5.5-2.643c-9.212-4.427-22.873-8.638-35.5-10.943-15.112-2.758-56.15-3.574-74.5-1.483M795.543 537.5c.951 2.2 2.335 6.204 3.075 8.899 1.701 6.189 2.382 6.881 2.382 2.417 0-1.935-1.163-5.723-2.583-8.417-3.31-6.275-5.124-8.106-2.874-2.899M452.5 579c-.34.55.084 1 .941 1s1.559-.45 1.559-1-.423-1-.941-1-1.219.45-1.559 1m372.494 1.496c1.86 1.372 3.723 3.047 4.14 3.721s1.071.911 1.454.528c.958-.957-1.373-3.583-4.716-5.311-4.24-2.193-4.637-1.712-.878 1.062m-443.639 7.543c-10.911 2.16-22.567 11.71-27.408 22.456-6.361 14.124-5.947-4.904-5.947 273.099v252.699l7.651-.646c4.208-.356 9.383-.647 11.5-.647H371l.008-245.25c.005-165.577.346-247.34 1.051-251.684 1.559-9.609 4.482-15.446 10.481-20.929 7.902-7.222 12.224-8.137 38.422-8.137h21.331l4.81-4.5c3.556-3.326 5.618-4.5 7.904-4.5 1.701 0 4.416-.685 6.034-1.521 2.964-1.533 7.198-1.196 9.697.772 1.56 1.228 2.541-1.012 2.087-4.767-.521-4.303-5.713-5.668-24.825-6.528-22.003-.989-61.473-.94-66.645.083M760 587.935c-8.774 2.679-17.239 9.627-22.429 18.408-7.066 11.958-6.571-9.857-6.571 289.37v269.818l8.25-.686c4.538-.377 9.708-.722 11.489-.765l3.239-.08.261-265.25.261-265.25 2.23-5.5c3.106-7.663 7.346-12.399 14.04-15.686 5.373-2.639 6.666-2.835 20.73-3.156 8.27-.189 15.561-.805 16.25-1.373 1.385-1.141 1.789-13.785.441-13.785-.445 0-3.424-1.575-6.621-3.5l-5.812-3.5-16.629.086c-9.146.047-17.754.429-19.129.849m102.714 4.2c.984 5.548.962 10.485-.065 14.615-.787 3.168-.725 3.25 2.456 3.25 7.911 0 16.222 7.311 18.779 16.519.793 2.859 1.106 76.269 1.11 260.378l.006 256.398 10.664-.69c5.865-.379 11.04-.922 11.5-1.206 1.25-.773 1.055-513.408-.199-521.399-2.011-12.815-9.183-23.495-19.278-28.709-4.384-2.264-6.778-2.744-15.467-3.099l-10.28-.421zM461.681 602.75c-.24.413-1.156 3.258-2.035 6.324s-2.51 6.398-3.623 7.405c-2.678 2.424-2.554 3.521.4 3.521 4.137 0 8.125-4.33 9.937-10.787.902-3.214 1.64-6.152 1.64-6.529 0-.932-5.772-.872-6.319.066m8.974 1c-.264.962-.778 3.55-1.142 5.75s-1.339 5.052-2.167 6.337c-1.884 2.924-1.088 3.822 2.102 2.369 3.389-1.544 5.933-6.625 4.582-9.149-.566-1.059-1.03-3.08-1.03-4.491 0-2.908-1.617-3.47-2.345-.816m-21.301 4.793c-2.361 2.782-5.368 5.059-7.76 5.874l-3.906 1.332 2.652 1.738c3.661 2.399 8.695 1.289 13.131-2.895 2.78-2.622 3.529-4.099 3.529-6.96 0-5.14-2.795-4.807-7.646.911m26.626 7.494c-1.095 2.047-.387 2.44 2.438 1.356 1.989-.763 2.033-2.006.097-2.749-.872-.335-1.917.24-2.535 1.393m300.489 1.025c-3.966 1.154-9.306 6.42-11.598 11.438-1.754 3.841-1.828 14.429-1.849 266.25-.013 153.48.349 262.25.872 262.25.492 0 8.254-1.137 17.25-2.526s32.781-4.998 52.856-8.02c20.075-3.023 37.962-5.761 39.75-6.086l3.25-.591V885.755c0-194.766-.28-254.958-1.201-258.031-.66-2.204-2.626-5.519-4.368-7.366-2.802-2.971-3.764-3.358-8.349-3.358-4.562 0-5.609.415-8.764 3.48-3.725 3.617-8.38 5.124-13.064 4.228-1.495-.286-4.036.162-5.646.995-2.194 1.134-4.458 1.342-9.018.828-3.35-.378-8.905-.628-12.346-.556-7.433.155-11.457-1.796-13.775-6.681L798.906 616l-9.703.09c-5.337.05-11.067.487-12.734.972M638 625.644c-9.384.922-23.695 3.329-28.636 4.818l-5.137 1.548-.695 15.745c-1.034 23.436.087 34.244 8.785 84.745 6.381 37.043 6.697 39.911 6.69 60.75-.007 17.366.736 22.285 2.517 16.675.362-1.142.871-1.864 1.13-1.605 1.057 1.058-3.991 18.665-10.005 34.894-8.942 24.13-11.676 35.398-12.368 50.979-.73 16.43 1.209 26.835 7.28 39.061 2.341 4.715 7.713 36.109 12.021 70.246 3.089 24.481 1.511 73.161-2.999 92.5-.834 3.575-3.588 12.575-6.12 20-5.862 17.187-6.769 21.899-5.322 27.647 3.152 12.518 18.024 15.905 41.03 9.345l11.329-3.231 18.123.707c16.803.657 18.686.55 25.868-1.466 4.261-1.195 8.543-1.965 9.517-1.71 2.934.767 4.378-.702 3.079-3.13-1.026-1.916-3.154-2.793-11.587-4.777-1.864-.438-2.385-.852-1.376-1.094.893-.214 4.491.273 7.994 1.082 3.504.81 6.571 1.271 6.817 1.026 1.535-1.536-10.423-6.916-13.094-5.892-.801.308-4.224-.086-7.607-.875-7.417-1.731-19.528-10.052-28.781-19.777-7.919-8.323-9.845-11.656-12.632-21.859-2.091-7.655-2.318-10.576-2.289-29.496.04-26.251 1.756-38.179 14.961-104 3.531-17.6 6.946-36.95 7.59-43 1.416-13.315.678-35.753-1.563-47.5-1.797-9.421-8.572-35.985-10.966-43-1.411-4.132-1.406-4.337.06-2.5.878 1.1 2.191 3.35 2.917 5 1.518 3.452 1.742 3.017 3.342-6.5.601-3.575 2.517-10.775 4.257-16 2.821-8.467 3.196-10.955 3.444-22.876.153-7.357-.088-12.982-.536-12.5-.715.769-4.863 12.327-6.416 17.876-.308 1.1-.349-2.232-.091-7.404s.529-14.172.603-20c.113-8.974.252-9.83.912-5.596.428 2.75.818 7.453.866 10.45.105 6.536.815 5.96 4.873-3.95 1.689-4.125 4.884-11.442 7.101-16.259 9.316-20.245 18.448-50.463 21.53-71.241 1.251-8.429 3.566-34.09 3.58-39.667.004-1.868-11.149-4.847-25.496-6.809-8.755-1.198-37.331-2.084-44.5-1.38m-104.165 6.029c-2.224.589-3.367 12.54-3.237 33.827.11 18.065 1.009 25.953 6.035 53 4.723 25.416 5.368 39.765 2.57 57.128-2.722 16.887-3.184 21.372-2.201 21.372.446 0 2.163-3.263 3.815-7.25 5.224-12.611 6.019-14.287 6.051-12.75.017.825-1.45 5.775-3.259 11-7.658 22.115-12.76 34.393-20.359 49-14.047 26.999-19.056 44.23-17.878 61.5.746 10.95 2.73 19.581 6.52 28.369 2.128 4.935 3.017 8.933 3.478 15.631.341 4.95 1.761 16.65 3.157 26 4.022 26.945 6.311 47.998 7.532 69.265.623 10.854 1.267 19.875 1.431 20.046s.907-4.555 1.652-10.5c1.746-13.931 2.475-7.863.865 7.189-2.352 21.983-6.255 36.915-15.423 59-6.16 14.841-6.144 22.135.065 28.644 6.161 6.459 22.773 6.572 38.351.259 9.387-3.804 9.666-3.85 23.5-3.943 18.912-.127 20.122-.46 20.923-5.766.348-2.307 1.246-5.973 1.995-8.147 1.84-5.335 1.162-6.547-3.664-6.547-5.157 0-17.491-8.021-26.416-17.178-5.406-5.547-6.468-7.306-8.664-14.351-7.098-22.777-9.235-50.65-6.667-86.971 2.087-29.517 5.85-50.302 12.942-71.5 6.587-19.685 8.478-30.939 7.793-46.373-.529-11.94-4.347-33.587-8.663-49.113-1.067-3.842-1.756-7.17-1.53-7.396s1.882 2.787 3.681 6.696c3.281 7.13 4.77 8.792 4.77 5.325 0-1.024 2.927-10.408 6.505-20.852 6.851-20 9.477-33.456 9.51-48.723.011-4.93.308-6.611.985-5.564.533.825 1.006 4.2 1.051 7.5l.081 6 3.376-8.569c1.856-4.713 4.925-13.713 6.818-20l3.444-11.431-2.822-15c-5.889-31.307-6.434-36.554-6.43-62.006l.003-24.005-9.511-.115c-5.23-.063-14.891-.848-21.468-1.744-11.061-1.508-26.779-1.997-30.707-.957m71.748 127.122c-.965 3.138-3.707 10.655-6.093 16.705s-4.844 13.925-5.461 17.5c-1.55 8.977-3.336 15.05-9.701 32.992-3.171 8.937-5.557 17.4-5.638 20-.077 2.479.861 10.661 2.085 18.181 4.017 24.685 2.742 39.167-5.749 65.278-6.341 19.499-6.637 20.705-8.973 36.602-2.821 19.194-4.198 40.338-4.163 63.947.034 23.16 1.728 38.847 5.656 52.38 2.389 8.231 2.986 9.255 8.156 14 10.713 9.833 18.142 14.717 25.924 17.041 1.839.549 2.336-.009 3.684-4.143 7.42-22.748 9.694-70.793 5.173-109.278-3.401-28.95-8.389-57.553-11.05-63.364-4.942-10.797-6.601-18.367-7.15-32.636-.826-21.481 2.099-35.249 13.597-64 7.571-18.93 7.221-15.416 5.318-53.5-1.159-23.182-2.034-32.281-3.172-32.984-.379-.234-1.478 2.141-2.443 5.279m-48.857 4.705c-.397 1.65-1.011 8.63-1.364 15.511-.549 10.692-.368 13.382 1.248 18.5l1.89 5.989.257-10.5c.337-13.744-1.033-33.644-2.031-29.5m82.373 10.5c-.09 9.888 1.622 19.516 4.469 25.134 1.412 2.786 2.748 4.884 2.969 4.662.389-.389-6.068-33.163-6.947-35.264-.238-.568-.459 1.893-.491 5.468m-6.153 5.149c-4.032 14.795-6.101 26.339-4.42 24.658 1.542-1.542 4.712-13.127 5.512-20.143 1.046-9.166.636-10.858-1.092-4.515M525 902.606c0 13.13 4.565 25.947 11.483 32.242l3.201 2.913 5.658-4.964c6.413-5.625 7.509-7.993 1.955-4.224-4.85 3.292-7.024 2.826-10.964-2.351-3.751-4.927-9.333-21.216-9.333-27.234 0-2.193-.45-3.988-1-3.988-.579 0-1 3.202-1 7.606m123.3 2.239c-1.964 8.425-11.773 27.588-17.949 35.066-.186.225-1.248-.413-2.36-1.419-3.043-2.754-8.685-14.704-10.023-21.226-1.534-7.48-1.906-8.661-2.535-8.032-.985.985 1.641 17.89 3.585 23.072 1.818 4.848 6.095 10.694 7.822 10.694.418 0 1.249-.489 1.847-1.087.783-.783.954.267.613 3.75l-.474 4.837 2.063-3.235c1.134-1.779 4.037-5.658 6.45-8.621s5.577-7.818 7.031-10.789c3.116-6.369 5.852-18.553 5.429-24.178l-.299-3.98zm-131.685 5.405c-1.201 9.105.129 16.461 4.053 22.407 5.022 7.61 6.556 7.217 2.62-.671-2.684-5.382-3.676-9.033-4.662-17.161l-1.253-10.325zm92.685 10.851c.325 1.319.904 5.904 1.287 10.188.597 6.681 1.053 8.069 3.207 9.764 1.381 1.086 2.627 1.856 2.769 1.711.141-.145-.836-3.61-2.171-7.7s-2.704-9.162-3.041-11.272c-.338-2.11-1.07-4.118-1.628-4.463-.633-.392-.792.275-.423 1.772m-69.175 154.302c-1.429 9.256-1.121 18.026.808 22.986.617 1.588 1.224 2.713 1.348 2.5s-.001-8.039-.278-17.389l-.503-17zm94.875-6.18c0 .306-.9 4.931-2 10.277-2.761 13.417-2.603 23.175.517 32 1.361 3.85 2.476 8.688 2.479 10.75.006 5.29 1.468 4.686 1.675-.693.105-2.71-.577-5.912-1.75-8.211-2.197-4.311-2.41-11.278-.953-31.326.498-6.863.71-12.676.469-12.916-.24-.241-.437-.187-.437.119M559.065 1095c-.051 3.575-.382 7.583-.736 8.906-.431 1.609-.284 2.184.443 1.735 1.616-.999 2.607-11.046 1.413-14.321-.896-2.46-1.039-1.989-1.12 3.68m90.055 7.782c-.066 4.005-.793 8.955-1.615 11l-1.494 3.718 1.94-2.293c2.5-2.956 3.574-10.226 2.294-15.536-.977-4.055-1.008-3.969-1.125 3.111m-104.996 7.718c-.019 2.75.584 6.35 1.34 8l1.374 3 .081-3.563c.059-2.585.901-4.349 3.071-6.427 1.644-1.575 2.764-3.089 2.489-3.364s-1.821.766-3.436 2.313l-2.937 2.813-.64-2.886c-1.116-5.026-1.307-5.009-1.342.114m378.376 34.552c-7.15.998-18.4 2.564-25 3.481-34.65 4.811-123.096 18.164-181 27.328-17.214 2.724-18.436 2.791-28 1.53-5.5-.726-11.251-1.335-12.78-1.355l-2.78-.036.28 12.714.28 12.714 12.826 1.892 12.827 1.892 17.673-3.064c43.086-7.468 121.944-20.691 170.674-28.617 29.15-4.741 54.237-8.861 55.75-9.155l2.75-.535V1143l-5.25.118c-2.888.066-11.1.936-18.25 1.934m-605.893 8.53c-.844 2.2-.576 13.391.393 16.418.521 1.628.835-1.074.9-7.75.099-10.179-.128-11.704-1.293-8.668m381.02 32.668c-.476 3.194-.476 8.306 0 11.5l.857 5.75.308-5.75c.169-3.162.169-8.338 0-11.5l-.308-5.75z"/></g></svg>
