<svg xmlns="http://www.w3.org/2000/svg" width="512" height="512" viewBox="0 0 512 512"><g transform="scale(0.4082934609250399)"><path fill="#fff" fill-rule="evenodd" d="M912 13.132c-13.265.799-26.119 3.17-30.241 5.577-6.015 3.512-6.608 5.775-6.856 26.134-.149 12.165-.591 18.461-1.314 18.693-.599.193-12.339 1.047-26.089 1.899-58.059 3.596-92.796 5.729-139 8.534-26.95 1.637-63.625 3.89-81.5 5.008-44.3 2.77-175.278 10.835-187 11.514-5.225.303-23.783 1.469-41.24 2.592l-31.74 2.042-13.956-5.53c-7.676-3.041-15.105-5.818-16.51-6.171-2.449-.614-2.554-.943-2.554-7.998 0-6.825-.227-7.615-3.148-10.942-4.118-4.69-6.748-5.962-18.531-8.964-6.952-1.771-12.513-2.504-19.037-2.511-12.279-.012-30.643 2.624-35.483 5.093-7.333 3.741-7.408 4.098-8.179 39.158-2.874 130.569-4.6 213.76-4.61 222.251L245 329.523l-13.672.217c-8.571.137-15.566.775-18.75 1.711-16.613 4.885-32.254 23.722-41.558 50.049-3.579 10.126-7.994 29.94-8.023 36-.01 2.2-.298 5.688-.639 7.75l-.62 3.75h-22.157c-20.989 0-22.392.119-26.619 2.25-5.879 2.965-8.962 8.81-8.962 16.994 0 3.201.608 7.275 1.351 9.054 1.648 3.945 7.91 9.624 10.934 9.917 1.218.118 12.312.23 24.652.25l22.438.035 1.767 8.936c6.367 32.193 23.295 59.758 42.485 69.18 5.443 2.673 6.87 2.909 19.483 3.227l13.611.342-.395 13.658c-.217 7.511-1.285 52.582-2.374 100.157-1.905 83.306-3.281 140.618-6.431 268-.809 32.725-1.534 64.836-1.61 71.357l-.139 11.857-4.136 1.821c-3.725 1.64-16.89 6.56-61.585 23.011-16.995 6.256-21.195 9.332-23.545 17.247-.828 2.788-1.506 7.932-1.506 11.429 0 4.873-.486 7.017-2.08 9.173-2.661 3.599-2.205 7.824 1.109 10.286 1.98 1.471 6.75 2.322 22 3.923 25.209 2.648 30.247 2.341 40.19-2.448 6.948-3.346 7.834-4.1 8.864-7.539 1.114-3.716 1.461-3.945 12.781-8.416 28.314-11.182 75.987-29.712 116.136-45.142 58.082-22.321 63.354-24.364 71.436-27.677 3.814-1.564 7.088-2.692 7.273-2.506.186.186 2.313 8.201 4.727 17.812 5.792 23.065 7.95 37.118 7.301 47.539-.484 7.763-.734 8.497-4.435 13-2.157 2.625-7.141 9.097-11.076 14.382-9.132 12.265-16.423 18.972-31.018 28.533-14.446 9.464-16.985 11.526-20.458 16.623-3.325 4.88-3.798 12.26-1 15.606 3.907 4.67 13.493 8.466 25.25 9.998 3.025.394 6.483 1.26 7.684 1.924 5.382 2.974 18.321.52 22.255-4.22.718-.865 2.287-1.573 3.487-1.573 4.696 0 12.505-5.1 18.062-11.794 8.252-9.942 11.395-11.683 23.595-13.07 17.459-1.985 26.579-7.669 28.781-17.937 1.505-7.017.15-13.92-6.422-32.712-3.075-8.793-6.003-18.237-6.506-20.987-1.945-10.621-2.846-36.069-1.912-54.006.833-15.997 1.278-19.009 3.985-27 8.327-24.581 5.825-48.043-8.635-80.976-4.369-9.949-4.379-10.002-3.207-15.964 1.234-6.272 3.094-8.673 10.933-14.118 2.934-2.037 4.073-2.321 6.153-1.53 9.931 3.776 22.912 3.266 29.452-1.157 1.95-1.319 6.513-7.212 11.034-14.249 5.944-9.254 10.697-15.032 20.768-25.25 7.182-7.288 13.543-13.25 14.134-13.25 2.111 0 15.63 24.235 21.475 38.5 1.803 4.4 3.892 8.976 4.643 10.169 1.759 2.795 8.312 5.854 15.897 7.421l5.992 1.237 3.388 6.536c6.198 11.953 18.904 29.848 28.077 39.539 9.128 9.645 9.359 9.802 25.887 17.514 1.375.642 4.911 2.697 7.858 4.567 6.129 3.889 13.895 5.331 20.159 3.741 2.923-.742 3.983-.705 3.983.14 0 .633-1.631 10.373-3.624 21.644s-3.947 22.409-4.343 24.752-1.013 4.554-1.373 4.914-12.693 4.553-27.407 9.319c-14.714 4.765-27.725 9.186-28.914 9.823-4.671 2.505-6.549 7.572-7.399 19.964-.868 12.648-.466 14.387 3.84 16.594 3.69 1.892 36.738 4.92 40.831 3.741 4.373-1.259 7.47-2.969 10.514-5.805 1.444-1.344 8.644-4.69 16-7.434 17.932-6.689 31.876-12.064 46.623-17.97 9.195-3.683 13.558-4.908 17.5-4.915 3.996-.008 6.504-.728 10.486-3.012 7.943-4.555 8.4-5.677 7.421-18.217-.902-11.562-2.186-14.692-7.06-17.213-3.939-2.037-23.612-3.835-28.047-2.563-1.878.539-3.596.8-3.816.579-.22-.22 1.891-13.825 4.692-30.233 2.801-16.407 6.938-41.082 9.194-54.832s4.221-25.132 4.368-25.293c.309-.339 86.016 4.468 95.074 5.333l6.059.578-.436 6.023c-.644 8.911 1.947 17.313 7.385 23.941 2.437 2.972 4.475 5.857 4.528 6.411.275 2.902.357 37.502.088 37.504-.173.002-1.227-.485-2.34-1.081-2.911-1.557-7.382.555-8.893 4.202-1.592 3.843-.705 20.135 1.356 24.893.836 1.93 3.359 5.82 5.606 8.643l4.087 5.132-.055 41.857-.054 41.857-23.064 17c-12.686 9.35-24.103 18.233-25.373 19.74-2.934 3.483-4.162 10.038-4.852 25.9-.549 12.639-.549 12.64 2.081 15.27 1.447 1.447 3.572 2.827 4.724 3.066 5.872 1.222 45.616 4.669 49.191 4.266 3.019-.34 6.184-1.981 11.717-6.073 4.17-3.084 8.055-6.491 8.633-7.572.579-1.081 1.052-4.417 1.052-7.414v-5.448l29.613-22.368c16.287-12.302 45.429-34.292 64.759-48.867 19.331-14.575 39.692-29.988 45.247-34.25l10.101-7.75h16.966l7.081-4.973c3.895-2.735 7.329-5.772 7.632-6.75.304-.977.197-6.988-.236-13.356-.634-9.313-1.224-12.284-3.014-15.179-2.684-4.343-9.203-7.742-14.849-7.742h-4.068l-.625-19.75c-.715-22.579-2.147-99.722-3.634-195.75-.562-36.3-1.675-105.566-2.473-153.926l-1.451-87.925 2.938-8.77c3.767-11.243 6.537-25.18 8.076-40.629l1.22-12.25 8.609-.117c4.734-.065 23.788-.402 42.341-.75l33.732-.633 2.983-3c8.066-8.114 7.398-30.557-1.089-36.601-2.883-2.052-3.36-2.066-43.637-1.246-22.397.456-41.397.833-42.222.838-1.075.006-1.572-1.266-1.755-4.491-.94-16.582-5.704-40.139-10.718-53l-3.313-8.5-1.201-79c-.66-43.45-1.497-102.625-1.861-131.5-.658-52.224-.673-52.519-2.922-56.144-2.089-3.364-5.779-5.833-10.73-7.176-1.1-.299-15.725-4.593-32.5-9.543s-33.087-9.719-36.25-10.597L950 46.944l-.024-7.222c-.045-13.558-2.285-17.851-12.107-23.197-6.215-3.382-12.454-4.201-25.869-3.393m-9.5 6.021c-16.354 1.823-22.196 4.988-22.977 12.448-.224 2.145-.434 11.179-.465 20.077L879 67.856l-5.25.536c-7.289.744-32.705 2.431-54.75 3.635-10.175.556-43.925 2.571-75 4.479a69104 69104 0 0 1-82 4.993c-30.097 1.799-135.769 8.22-148 8.992-8.345.528-64.954 3.973-114.732 6.983-13.877.839-27.94 1.526-31.25 1.526-3.408 0-6.018.441-6.018 1.016 0 .559-1.238.954-2.75.879-3.378-.167-24.083 2.668-26.513 3.63-.969.384-2.41.161-3.202-.496s-2.309-.918-3.372-.581-3.129.069-4.59-.597c-2.327-1.06-2.932-.936-4.865.995-1.909 1.907-2.256 3.509-2.559 11.807-.376 10.286.848 14.786 3.776 13.887.866-.265 15.075-1.168 31.575-2.006s33.375-1.769 37.5-2.07 32.7-1.874 63.5-3.496c86.101-4.534 145.681-7.774 183-9.951 18.7-1.091 51.55-2.897 73-4.014s62.85-3.373 92-5.014 58.625-3.239 65.5-3.55c18.729-.849 17 .369 17-11.97V76.976l-3.75.474c-2.062.26-7.8.713-12.75 1.007-10.392.616-68.244 4.085-92.5 5.546-9.075.547-39.9 2.336-68.5 3.976s-65.95 3.883-83 4.985-42.7 2.684-57 3.514c-47.162 2.739-145.405 8.492-180.5 10.569-18.975 1.123-39.675 2.271-46 2.551-6.325.279-12.963.729-14.75 1l-3.25.493v7.454c0 4.303-.423 7.455-1 7.455-.582 0-1-3.282-1-7.845 0-10.527.346-10.795 15-11.632 6.325-.361 21.85-1.299 34.5-2.084s30.65-1.878 40-2.427c22.156-1.304 56.173-3.308 119-7.01 28.05-1.654 65.175-3.899 82.5-4.991s58.95-3.562 92.5-5.49c61.187-3.516 92.049-5.376 133-8.014 12.1-.78 27.87-1.708 35.044-2.063l13.044-.644 1.206 2.647c.683 1.5 1.206 6.96 1.206 12.6 0 12.393-1.059 13.953-9.476 13.953-5.551 0-106.732 5.455-120.524 6.498-4.125.312-24.825 1.454-46 2.538a18648 18648 0 0 0-74 3.959 33804 33804 0 0 1-64 3.516c-15.675.841-44.925 2.429-65 3.529-86.715 4.751-108.713 5.937-129 6.957-11.825.595-28.025 1.507-36 2.027s-16.503.952-18.95.961c-5.464.019-4.458 1.275 2.699 3.37 4.311 1.262 7.35 1.371 17 .61 6.463-.51 13.612-.842 15.886-.738l4.134.189.623 34.542c.342 18.998 1.068 75.267 1.614 125.042.545 49.775 1.179 97.036 1.409 105.024.25 8.722.014 15.244-.591 16.325-.554.991-.779 2.03-.499 2.309.553.553 5.279-3.841 5.011-4.658-.091-.275-.693-50.675-1.338-112s-1.471-123.988-1.835-139.251c-.615-25.741-.54-27.751 1.042-27.75 1.151.001 1.87 1.055 2.215 3.251.28 1.787.981 54.55 1.558 117.25.576 62.7 1.319 124.054 1.649 136.342l.602 22.341 4.635-.656c2.55-.362 6.436-.69 8.636-.731l4-.073-.287-42.612c-.158-23.436-.608-85.8-1-138.588l-.713-95.976-8.25.313c-4.702.179-8.25-.091-8.25-.626 0-1.316 19.24-2.371 20.5-1.125 1.033 1.022 2.109 100.446 2.367 218.711.133 61.247.135 61.319 2.186 61 2.046-.319 2.052-.514 1.869-59.32-.101-32.45-.462-95.45-.803-140-.34-44.55-.585-81.109-.544-81.241.1-.326 22.85-1.638 100.425-5.789 36.025-1.928 81.925-4.398 102-5.489s61.475-3.338 92-4.993c30.525-1.654 84.023-4.603 118.884-6.552s64.467-3.406 65.789-3.239l2.406.303.21 41.5c.207 40.763.247 41.5 2.211 41.5 1.959 0 2.015-.914 2.741-45 .407-24.75.857-51.525 1-59.5.2-11.176-.028-14.443-.991-14.25-1.49.298-1.675-1.369-.25-2.25.611-.378 1-8.153 1-19.988 0-21.045.099-21.442 5.905-23.68 5.294-2.04 17.538-3.832 26.183-3.832 7.554 0 8.912.247 8.912 1.622 0 1.182.339 1.343 1.25.59 1.614-1.333 7.279.575 13.864 4.668 4.655 2.894 4.886 2.938 4.886.947 0-3.072-6.182-8.377-12.529-10.752-6.079-2.274-15.294-2.558-29.971-.922m2 1.847c-.34.55-.168 1 .382 1s1.278-.45 1.618-1 .168-1-.382-1-1.278.45-1.618 1m2 8.105c-2.75.478-7.925 1.071-11.5 1.317-4.711.325-6.775.914-7.5 2.141-.712 1.206-.64 1.825.25 2.149.98.356 1.25 12.815 1.25 57.71 0 67.077-.795 99.578-2.437 99.578-.615 0-1.889.9-2.831 2-3.895 4.55-13.101.362-12.699-5.777.296-4.511.046-5.223-1.833-5.223-3.246 0-4.201 2.16-4.178 9.45.027 8.602 2.231 13.975 8.469 20.644 2.435 2.603 4.74 5.977 5.121 7.497s.4 11.871.041 23.003c-.489 15.156-.356 20.338.527 20.633 2.044.681.001 3.773-2.494 3.773-3.51 0-5.686-3.008-5.686-7.86 0-2.829-.494-4.393-1.513-4.783-2.927-1.124-4.487 1.595-4.487 7.823 0 9.272 1.642 13.984 7.136 20.476 2.72 3.214 5.147 6.744 5.392 7.844s.565 12.918.709 26.263c.249 22.937.161 24.295-1.605 24.855-3.042.964-5.997-2.85-6.069-7.833-.057-3.887-.295-4.285-2.563-4.285-2.491 0-2.5.033-2.499 9.5.001 10.912 1.037 13.735 8.052 21.954l4.447 5.209.15 25.919c.082 14.255.195 26.481.25 27.168.152 1.905-3.938 2.069-5.775.232-.953-.953-1.625-3.263-1.625-5.585 0-2.612-.515-4.157-1.513-4.54-2.419-.929-4.171 1.318-4.841 6.207-.692 5.049.369 7.432 5.984 13.436 5.511 5.894 6.22 8.87 6.447 27.064.169 13.467-.049 16.486-1.205 16.715-2.87.567-5.254-2.391-5.36-6.652-.125-4.982-1.707-7.04-3.97-5.162-1.144.949-1.541 3.249-1.536 8.907.007 9.996 1.209 13.95 5.851 19.251 2.108 2.407 4.335 5.326 4.948 6.485.738 1.397 1.156 12.196 1.24 31.995.113 26.772-.045 29.991-1.522 30.892-2.64 1.61-5.719-2.892-5.362-7.841.343-4.754-1.893-6.952-4.702-4.62-1.455 1.207-1.637 2.781-1.227 10.609.512 9.784 1.283 11.674 9.059 22.202l3.209 4.344-.23 31.156c-.243 32.891-.34 33.518-4.717 30.317-1.279-.935-1.977-2.788-2.114-5.611-.228-4.704-1.524-6.616-3.872-5.715-1.269.487-1.563 2.364-1.545 9.883.024 10.29 1.491 14.852 6.7 20.846 1.641 1.889 3.489 4.396 4.105 5.569.751 1.433 1.148 12.448 1.207 33.5.074 26.869-.129 31.503-1.415 32.324-2.778 1.772-5.619-2.093-5.619-7.644 0-5.245-1.744-7.101-4.513-4.803-1.783 1.48-2.052 13.414-.434 19.241.573 2.064 3.383 6.789 6.245 10.5l5.202 6.748-.267 29.5c-.147 16.225-.26 30.063-.25 30.75.03 2.228-3.89 1.322-5.605-1.295-1.405-2.145-1.467-2.921-.39-4.933.703-1.313 1.007-3.092.676-3.955-.765-1.993-5.03-2.036-6.664-.067-1.354 1.632-4.188 1.847-11.36.864-6.731-.922-5.688-2.218 2.11-2.622l6.75-.35-7.629-.196-7.628-.196-1.268 3.061c-1.372 3.311-5.974 7.232-9.975 8.498-1.375.435-7.121.719-12.769.632-10.344-.16-14.37-1.244-17.176-4.625-.715-.861-2.27-1.566-3.455-1.566s-3.196-.729-4.467-1.62c-1.847-1.293-2.808-1.394-4.77-.5-3.688 1.681-10.943 1.397-12.842-.502-1.496-1.496-1.731-1.477-3.025.25-1.656 2.211-7.655 16.546-7.14 17.062.196.195 16.958 1.239 37.25 2.319s40.645 2.322 45.229 2.759l8.335.796-.68-7.671c-.735-8.309.109-11.293 3.442-12.165 2.259-.591 4.838 1.678 3.117 2.742-1.405.868-1.336 10.386.105 14.631.635 1.869 3.122 6.839 5.527 11.043l4.372 7.645-.276 15.273c-.186 10.274-.648 15.397-1.411 15.65-2.09.695-4.366-2.778-4.366-6.661 0-4.164-1.826-6.439-4.382-5.458-2.304.884-2.982 4.551-2.218 12.002.861 8.413 1.844 10.784 7.128 17.203 2.448 2.973 4.703 6.916 5.068 8.861 1.037 5.528-.244 49.389-1.478 50.623-1.635 1.635-5.2-2.065-4.88-5.063.351-3.28-2.434-5.131-4.784-3.181-1.472 1.222-1.623 2.605-1.068 9.825.732 9.524 1.962 12.675 7.623 19.526l3.991 4.829-.009 39.641c-.004 21.802-.287 41.961-.628 44.797l-.619 5.155-21.122 15.749a14297 14297 0 0 1-24.478 18.226c-4.897 3.615-6.144 7.544-6.144 19.361 0 5.616-.557 11.75-1.237 13.631-1.135 3.139-1.047 3.574 1.072 5.289 2.796 2.264 3.345 2.354 29.583 4.834 23.467 2.217 21.292 2.568 32.082-5.171l6-4.303.5-6.795c.331-4.503 1.023-7.189 2.051-7.964.853-.642 17.953-13.609 38-28.814a26216 26216 0 0 1 76.334-57.621c38.943-29.267 39.946-29.942 42.5-28.61 4.779 2.494 9.106 1.715 15.84-2.852 3.43-2.326 6.406-4.689 6.612-5.25.206-.562.049-5.622-.35-11.245-1.048-14.815-3.858-18.176-15.915-19.039l-6.865-.491-.591-18.123c-.325-9.968-1.061-46.473-1.634-81.123-.574-34.65-1.465-87.3-1.98-117-.516-29.7-1.41-86.85-1.988-127-.577-40.15-1.315-80.779-1.641-90.287l-.591-17.287-2.473 4.645-2.473 4.645 1.097 66.142c4.259 256.73 6.651 381.559 7.326 382.234.238.239 2.064-.247 4.055-1.079 1.992-.832 6.071-1.513 9.065-1.513 4.851 0 5.725.335 8.032 3.077 2.23 2.649 2.589 4.02 2.589 9.875 0 3.739.249 8.092.554 9.673.496 2.568.028 3.23-4.377 6.198-6.383 4.3-11.497 4.244-11.999-.132-.177-1.545-.665-2.67-1.085-2.5-.673.273-83.459 62.501-140.093 105.305-11.275 8.521-21.056 16.508-21.735 17.749-.68 1.24-1.242 4.306-1.25 6.814-.018 5.464-.699 6.39-8.78 11.945l-6.265 4.307-11.735-1.185c-24.567-2.479-30.808-3.394-33.132-4.856-2.367-1.49-2.389-1.651-1.804-13.292.658-13.081 2.26-18.364 6.099-20.113 1.969-.897 3.205-.82 5.802.361 3.379 1.538 25.09 4.203 34.607 4.249l5.307.025-.667 11.5c-.529 9.124-1.042 11.892-2.482 13.397-1.757 1.837-1.797 1.523-1.241-9.75.315-6.406.248-11.647-.15-11.647-1.327 0-34.032-3.959-36.812-4.456-4.16-.743-5.487 2.841-5.904 15.944-.347 10.885-.327 11 2.146 12.171 2.897 1.371 36.533 4.456 38.859 3.563.861-.33 4.169-2.33 7.351-4.443l5.786-3.844.004-5.217c.002-3.297.679-6.322 1.837-8.218 1.009-1.65 10.794-9.713 21.746-17.917s24.638-18.502 30.413-22.883c33.633-25.514 108.87-81.593 110.921-82.675 2.092-1.105 2.601-1.032 3.75.54.731.999 1.329 2.369 1.329 3.043 0 2.164 2.4 2.196 6.25.082 3.404-1.868 3.744-2.434 3.69-6.124-.089-6.08-1.487-13.513-2.786-14.812-.631-.631-3.655-1.424-6.718-1.761l-5.571-.613-12.682 9.074c-6.976 4.991-30.908 22.76-53.183 39.486-29.826 22.396-40.585 29.969-40.823 28.736-.516-2.672-1.873-1.944-2.534 1.358-1.053 5.268-11.243 13.398-15.06 12.016-1.625-.588-.843-1.562 5.131-6.389l7.049-5.695.584-49.233c.321-27.078 1.054-127.083 1.629-222.233s1.285-209.225 1.579-253.5c.698-105.182 1.169-187.709 2.051-359.19l.723-140.69-5.789-2.56c-3.184-1.408-6.356-2.56-7.048-2.56-1.721 0-2.324 38.253-3.01 191-.303 67.375-.967 183.925-1.475 259s-1.202 187.125-1.54 249c-1.166 213.462-2.266 342.866-2.925 343.932-.363.587.042 1.068.899 1.068 2.965 0 1.537 2.515-3.589 6.322-3.943 2.928-5.339 3.512-5.973 2.5-.539-.863-.082-1.889 1.318-2.955l2.144-1.633-2.92-.574c-1.607-.315-9.671-1.083-17.921-1.706-8.25-.622-15.371-1.485-15.824-1.917-.713-.679-.063-127.633 1.812-354.037.29-34.925.964-132.125 1.498-216 1.839-288.477 1.966-301.042 3.069-303.102.581-1.085.762-2.898.404-4.028-.516-1.626-.268-1.979 1.194-1.697 1.78.345 1.836 3.17 1.548 77.842-.325 84.22-1.529 275.159-3.3 523.485-.62 86.9-1.189 184.325-1.264 216.5l-.137 58.5 10.5.618c5.775.34 12.75.79 15.5 1l5 .382.656-74.5c.361-40.975 1.16-167.65 1.776-281.5.615-113.85 1.541-268.2 2.056-343s1.241-183.137 1.614-240.75L921.278 28l-4.889.118c-2.689.064-7.139.509-9.889.987M947 54.577c0 2.432.45 4.423 1 4.423s1-.45 1-1c0-1.572 2.302-1.212 12.238 1.914 5.094 1.603 17.137 5.228 26.762 8.056 27.903 8.198 36.391 11.105 38.094 13.048 2.038 2.325 3.524 21.532 1.825 23.579-.771.93-.925 6.887-.505 19.619.332 10.056 1.062 54.059 1.623 97.784 1.448 112.801 1.12 104.698 4.441 109.5l2.767 4-.629-31c-.345-17.05-1.107-63.85-1.691-104s-1.369-83.9-1.744-97.223c-.639-22.686-.814-24.354-2.756-26.296-1.374-1.374-9.133-4.105-22.999-8.094-30.516-8.779-53.534-15.838-56.676-17.382L947 50.153zm-669.5 4.609c-12.353 1.124-16.76 2.25-19.949 5.098l-2.482 2.216-1.514 68c-.832 37.4-1.991 95.225-2.575 128.5-1.196 68.166-1.438 73-3.657 73-2.306 0-16.866 7.832-18.971 10.204-1.018 1.149-1.402 1.887-.852 1.641a572 572 0 0 0 6-2.825c2.75-1.308 6.638-2.465 8.64-2.572s4.17-.522 4.817-.921c.647-.4 1.431-.473 1.742-.162.454.454-.692 71.35-2.948 182.475-.196 9.613-.575 12.522-1.718 13.161-1.255.703-1.27 1.187-.105 3.364 1.141 2.133 1.174 11.389.201 57.339-1.403 66.294-3.744 168.319-5.111 222.796-.552 22-1.466 58.675-2.03 81.5-2.339 94.605-3.007 115.418-3.729 116.12-.417.405-8.859 3.665-18.759 7.243a5925 5925 0 0 0-39.722 14.571c-11.947 4.436-22.1 8.066-22.563 8.066-1.095 0-5.686 4.934-6.978 7.5-1.137 2.258-2.162 9.559-2.388 17-.105 3.469-.777 5.695-2.194 7.271-3.765 4.186-1.357 4.922 23.845 7.294l23 2.165 7.895-3.365c7.989-3.405 9.069-4.362 10.006-8.865.57-2.736-2.9-1.3 91.099-37.708 35.905-13.907 53.127-20.525 101.357-38.948 7.896-3.017 15.235-5.551 16.309-5.631 1.442-.109 1.818-.68 1.434-2.18-.285-1.118-1.999-7.34-3.809-13.826-3.049-10.926-3.451-11.753-5.462-11.251-2.699.674-3.081-1.083-3.229-14.859-.058-5.446-.551-12.646-1.095-16-1.233-7.594-1.238-25.117-.012-41.869.818-11.181.691-13.922-1.014-22-2.385-11.302-2.45-15.587-.349-23.268 1.984-7.253 1.975-4.205.438-146.537-.651-60.268-1.045-110.023-.876-110.568.318-1.023-5.629-8.355-6.776-8.355-.356 0 .061 1.079.925 2.397 1.383 2.111 1.695 14.384 2.61 102.75.572 55.194 1.042 125.817 1.045 156.94.002 31.122.301 72.121.663 91.109l.66 34.522 4.472-.504c6.83-.769 4.981 1.798-3.363 4.672-3.811 1.312-24.825 9.074-46.699 17.25S313.742 1008 313.479 1008c-.264 0-.479-.888-.479-1.974 0-1.146 1.154-2.565 2.75-3.382 4.934-2.527 62.142-23.575 64.484-23.726.696-.044-.214-.728-2.023-1.518-1.808-.791-3.485-1.991-3.725-2.669-.384-1.083-2.13-157.217-4.14-370.231-.581-61.579-.869-70.842-2.393-77l-1.733-7-.102 29.5c-.056 16.225.545 83.275 1.335 149 2.611 217.048 2.943 274 1.598 274-.667 0-13.737 4.563-29.046 10.14s-28.547 9.866-29.419 9.531c-1.955-.75-1.995-15.886-.207-77.171.658-22.55.954-41.45.659-42-.802-1.492-1.731 22.314-3.002 77-.627 26.95-1.359 50.05-1.628 51.334-.268 1.283-.079 2.081.421 1.772.499-.309 1.198-2.372 1.551-4.584.391-2.443 1.186-4.022 2.024-4.022.76 0 14.367-4.723 30.239-10.496s29.516-10.498 30.321-10.5c4.402-.012-3.982 3.759-28.464 12.801-14.85 5.485-28.012 10.278-29.25 10.651-1.662.501-2.25 1.439-2.25 3.588 0 3.865-3.675 6.218-10.061 6.443-5.638.198-6.737.847-4.995 2.945.675.814.967 1.902.648 2.418-.618 1.001-17.289 7.55-21.772 8.553-1.474.33-3.339 1.259-4.145 2.065-1.478 1.478-12.587 6.12-33.675 14.07-6.325 2.384-16.9 6.406-23.5 8.937-10.12 3.881-12.548 4.47-15.5 3.761-3.413-.821-3.175-.968 9.5-5.906 7.15-2.785 21.871-8.387 32.713-12.447l19.712-7.383-10.212-1.166-10.213-1.165-26 9.819c-14.3 5.4-29.5 11.05-33.777 12.555s-7.549 2.965-7.269 3.244c.279.28 5.332 1.132 11.228 1.895 5.895.762 10.949 1.616 11.231 1.897.281.282-.034 1.385-.701 2.453s-1.236 3.409-1.265 5.204c-.142 8.83-3.607 21.438-5.398 19.646-.449-.448 1.608-15.647 2.539-18.76.26-.867-.513-1.486-2.088-1.672-6.335-.749-22.139-2.446-28.169-3.025-6.635-.637-6.676-.626-8.2 2.322-.843 1.63-2.006 6.741-2.585 11.358-.578 4.617-1.503 8.546-2.055 8.73-1.888.631.123 2.165 2.818 2.15 2.176-.013 2.404-.219 1.191-1.078-1.084-.767.721-.895 6.5-.46 16.061 1.207 28.439 2.843 27.917 3.687-.892 1.443.333 1.017 7.608-2.647 5.03-2.533 6.975-4.053 6.975-5.453 0-3.958 2.288-6.912 6.88-8.88 5.662-2.427 78.82-30.956 107.62-41.968C370.035 1001.951 412.081 986 412.517 986c.266 0 .483 1.033.483 2.296 0 2.104-3.579 3.667-42.75 18.662-41.962 16.064-90.759 34.905-139.171 53.737a28797 28797 0 0 1-25.652 9.971c-.677.26-1.512 1.971-1.855 3.803-.788 4.201-1.502 4.766-10.607 8.395l-7.465 2.975-16-1.435c-22.016-1.975-26.092-2.685-25.604-4.462.217-.793.582-3.917.81-6.942 1.172-15.556 3.458-20.294 11.036-22.87 2.067-.703 8.258-3.026 13.758-5.163s23.275-8.793 39.5-14.792c28.001-10.352 29.83-10.889 36-10.57 4.591.238 5.766.081 4-.534-1.375-.48-3.625-.923-5-.987-4.933-.227-5.391-1.222-5.177-11.259.11-5.129.865-36.1 1.679-68.825 2.202-88.54 4.305-174.865 5.969-245 1.383-58.292 1.953-85.149 4.542-214 .547-27.225 1.444-71.325 1.992-98s1.676-82.475 2.506-124 1.954-93.693 2.499-115.928c.544-22.236.99-47.722.99-56.636V68.228l3.34-1.585c3.9-1.851 17.94-3.627 28.66-3.626 7.493.001 26.695 3.721 31.194 6.043 1.268.654 3.318 2.112 4.556 3.239l2.25 2.05v-2.675c0-2.993-2.802-6.268-6.598-7.711-1.384-.527-6.961-2.084-12.391-3.46-10.49-2.659-15.517-2.863-32.511-1.317m670.937 2.116c-.284.742-.386 5.575-.227 10.74l.29 9.392 7.5 2.138c8.323 2.371 66.487 19.198 69.25 20.034 1.401.423 1.75-.082 1.75-2.539 0-1.687-.45-3.067-1-3.067-.577 0-1-3.144-1-7.433 0-6.218-.286-7.515-1.75-7.941-.962-.279-8.5-2.524-16.75-4.987s-23.775-6.995-34.5-10.071-20.298-6.047-21.273-6.603c-1.297-.739-1.911-.649-2.29.337M299 66c0 .733.3 1.033.667.667a.95.95 0 0 0 0-1.334c-.367-.366-.667-.066-.667.667m-22.893 2.565c-6.816.763-12.522 1.517-12.681 1.676-.159.158-.538 19.277-.842 42.485s-1.231 73.152-2.06 110.985c-1.551 70.78-3.404 162.811-6.007 298.289-1.56 81.21-2.295 113.55-5.543 244-1.088 43.725-2.428 97.95-2.976 120.5-2.132 87.609-3.014 118.193-3.55 123.115l-.558 5.116 6.805.637c18.508 1.735 24.286 1.847 24.734.48.446-1.363 2.792-88.586 4.554-169.348.529-24.2 1.21-52.325 1.514-62.5s.998-40.775 1.541-68c1.22-61.205 2.672-129.036 3.969-185.5.544-23.65 1.44-64.375 1.992-90.5.553-26.125 1.451-67.975 1.996-93s1.434-67.1 1.975-93.5 1.227-57.9 1.526-70c1.747-70.773 2.609-114.728 2.258-115.079-1.148-1.149-7.531-1.099-18.647.144m24.52 3.226c-.294 2.04-.786 14.059-1.092 26.709-1.937 79.944-2.707 113.706-4.036 177-.82 39.05-1.949 91.7-2.508 117s-2.133 98.65-3.498 163c-2.364 111.49-4.289 199.153-6.499 296-1.546 67.781-3.942 156.538-4.349 161.098l-.365 4.097 6.594-2.782c5.395-2.276 6.719-3.294 7.279-5.597.376-1.549 1.171-25.991 1.767-54.316 1.657-78.785 2.316-100 3.108-100 1.787 0 2.923 3.068 3.096 8.36l.188 5.73 3.344-3.241 3.344-3.241v2.661c0 1.563-1.309 4.152-3.173 6.275l-3.172 3.613-1.15 43.172c-.723 27.14-.799 43.635-.205 44.421.599.793.571 1.707-.076 2.5-.591.722-1.17 9.609-1.373 21.045l-.351 19.795 3-.295c3.563-.35 2.916 9.135 4.988-73.065 1.443-57.229 1.537-58.845 3.613-61.653 4.942-6.685 5.205-24.077.364-24.077-1.071 0-1.465 1.217-1.465 4.52v4.521l-3.905-1.993c-8.099-4.131-7.841-2.731-7.328-39.734.251-18.048.849-33.236 1.331-33.751.533-.57 1.787-.08 3.203 1.25 1.28 1.203 3.536 2.187 5.013 2.187 3.475 0 3.55 2.518.212 7.102-1.361 1.869-2.892 4.324-3.402 5.455-1.156 2.564-1.892 50.482-.802 52.193 1.187 1.864 2.678 1.51 2.678-.636 0-1.037.672-3.174 1.494-4.75 1.185-2.272 1.495-7.169 1.5-23.681l.006-20.816 2.609-3.421c4.697-6.158 5.235-23.446.73-23.446-.736 0-1.346 1.013-1.354 2.25-.037 5.416-4.579 5.95-9.14 1.074l-2.345-2.506.281-28.106c.154-15.459.462-28.289.685-28.511.222-.223 1.434.316 2.692 1.197s3.545 1.602 5.084 1.602c2.537 0 2.738.255 2.165 2.75-.347 1.513-1.808 4.55-3.247 6.75-2.488 3.805-2.634 4.767-2.993 19.755-.207 8.666-.044 16.541.362 17.5.406.96.64 3.483.52 5.607-.16 2.84.135 3.744 1.116 3.417.734-.245 1.496-1.307 1.693-2.362.196-1.054.782-2.442 1.302-3.083s1.184-9.564 1.476-19.828c.501-17.636.663-18.857 2.947-22.223 2.041-3.008 2.417-4.766 2.417-11.3 0-5.254-.431-8.096-1.342-8.852-1.741-1.445-2.658-.456-2.658 2.869 0 1.467-.259 2.926-.575 3.242-.988.988-6.755-1.128-8.889-3.261-1.973-1.974-2.026-2.971-1.719-32.259.174-16.622.577-31.302.896-32.623.566-2.344.623-2.321 2.417 1 1.522 2.816 1.733 4.734 1.225 11.151-.337 4.263-.298 7.75.087 7.75 2.21 0 7.561-8.536 7.522-12-.015-1.375-.688-3.374-1.496-4.441-1.844-2.439-1.895-7.499-.1-10.086.987-1.424 1.499-7.054 1.837-20.215.374-14.518.785-18.6 2.012-20 3.477-3.965 4.783-8.202 4.783-15.517 0-7.68-1.569-11.744-3.963-10.264-.913.564-1.085 2.382-.617 6.518.895 7.909-.802 14.545-5.041 19.718l-3.519 4.294.183 12.746c.1 7.011-.143 13.538-.54 14.505-.407.988-.128 2.739.637 4 1.484 2.446 1.323 9.742-.215 9.742-.525 0-1.846-1.462-2.936-3.25-1.608-2.637-1.982-5.041-1.983-12.75-.002-17.316 1.3-50 1.992-50 1.566 0 3.002 5.524 3.002 11.547 0 3.549.337 6.437.75 6.416 1.243-.06 6.25-8.58 6.25-10.635 0-1.051-2.031-3.905-4.514-6.342-5.55-5.447-6.303-8.022-5.858-20.026.194-5.203.632-22.392.976-38.199.602-27.742 1.095-31.314 3.46-25.093.738 1.942 1.532 2.405 3.688 2.153 2.371-.277 2.793.07 3.074 2.533a6.42 6.42 0 0 1-1.625 5c-3.7 4.069-4.201 6.357-4.201 19.187 0 11.145.191 12.6 1.582 12.066.87-.334 2.176-.607 2.902-.607 1.009 0 1.402-3.117 1.668-13.25.315-11.989.568-13.543 2.658-16.327 1.372-1.827 2.775-5.79 3.455-9.759.997-5.82.936-6.892-.47-8.298-1.487-1.486-1.744-1.366-3.231 1.51-1.785 3.452-3.979 3.922-7.334 1.573-4.178-2.927-4.726-5.254-4.816-20.449-.052-8.628-.632-16.594-1.432-19.672-2.261-8.694 1.598-17.003 9.676-20.836 3.392-1.609 3.776-1.619 4.872-.12 1.672 2.286 2.47 2.027 2.47-.801 0-3.145-2.674-5.809-5.068-5.05-1.021.325-2.746.114-3.834-.468-1.785-.956-2.007-.701-2.287 2.617-.171 2.021-.873 3.86-1.561 4.086-.976.321-1.25-4.622-1.25-22.514 0-26.882 1.007-53.242 2.035-53.242.981 0 2.818 4.848 3.175 8.376l.29 2.875 2.75-2.762 2.75-2.762v3.022c0 3.194-1.442 7.117-4.136 11.251-1.179 1.809-1.786 5.879-2.196 14.722-.312 6.723-.249 12.419.138 12.658.388.24 1.94.2 3.45-.089l2.744-.524v-13.924c0-12.864.171-14.155 2.246-16.962 1.779-2.406 2.321-4.687 2.606-10.96.381-8.389-.357-9.583-3.927-6.353-1.435 1.299-2.081 1.351-3.754.307-2.242-1.401-5.598-7.02-6.494-10.875-.71-3.056.791-56.801 1.609-57.62.322-.321 1.614.137 2.872 1.018s3.586 1.602 5.173 1.602c2.646 0 2.829.228 2.206 2.75-.374 1.512-1.884 4.016-3.357 5.564-2.331 2.451-2.763 3.938-3.342 11.5-.365 4.777-.703 12.001-.751 16.053-.085 7.168-.027 7.35 2.163 6.763 1.238-.331 2.518-.609 2.845-.616s.891-6.552 1.255-14.543c.599-13.199.887-14.872 3.145-18.284 3.259-4.924 5.21-14.344 3.671-17.721-1.439-3.159-2.906-3.131-4.371.084-1.59 3.49-6.281 3.047-9.196-.869-1.873-2.516-2.136-4.456-2.443-18-.415-18.373.753-49.681 1.854-49.681 1.115 0 2.99 5.737 2.99 9.149 0 1.568.38 2.851.845 2.851 1.396 0 4.155-3.538 4.155-5.329 0-.919.45-1.671 1-1.671s1 1.627 1 3.615c0 2.854-.737 4.29-3.5 6.821l-3.5 3.206v14.179c0 11.937.237 14.179 1.5 14.179.825 0 1.5.464 1.5 1.031 0 .568-.675 1.291-1.5 1.607-1.13.434-1.5 2.255-1.5 7.387 0 7.576.598 9.975 2.486 9.975 2.528 0 3.372-5.872 3.828-26.64.445-20.256.562-21.274 2.814-24.32 1.839-2.487 2.482-4.96 2.952-11.359.331-4.5.396-8.968.144-9.931-.537-2.054-2.224-2.361-2.224-.405 0 .74-.859 2.122-1.909 3.073-1.765 1.597-2.142 1.607-4.983.138-6.151-3.181-6.469-5.029-6.033-35.056.215-14.85.276-30.825.134-35.5-.141-4.675-.359-13.984-.483-20.686l-.226-12.186 2.937-3.064c3.31-3.452 7.7-4.057 11.275-1.553 2.389 1.673 4.381.182 2.401-1.798-.68-.68-1.113-5.309-1.113-11.887V75.051l-2.96-1.531c-2.682-1.386-10.342-3.381-18.709-4.873-3.025-.539-3.193-.396-3.704 3.144M947 88.883c0 4.219.255 4.863 1.765 4.468 1.323-.346 40.158 10.092 40.866 10.984.073.091.635 34.14 1.251 75.665 1.813 122.281 2.196 136 3.797 136 .761 0 1.655-.708 1.987-1.572.596-1.554-1.072-135.172-2.302-184.337-.587-23.482-.509-25.361 1.035-24.768 2.138.82 12.073-1.274 10.947-2.308-.465-.428-12.996-4.234-27.846-8.458s-28.013-8.338-29.25-9.142c-2.227-1.446-2.25-1.41-2.25 3.468m-616.591-.369c.376 2.192.775 5.786.887 7.986l.204 4 7-.3c8.66-.37 12.962-1.161 11.849-2.177-.467-.426-4.674-2.011-9.349-3.523-9.187-2.971-11.193-4.105-8.85-5.004 1.438-.552 16.532 4.737 22.865 8.012 1.716.887 3.877 1.429 4.802 1.205 2.018-.49-5.361-3.995-18.317-8.701-4.95-1.798-9.624-3.767-10.387-4.376-1.155-.923-1.273-.442-.704 2.878m617.198 142.218c-.388 74.122-.977 136.524-1.309 138.671-.389 2.521-.244 3.682.41 3.277.557-.344 1.294-2.681 1.639-5.193.962-7.019 8.239-24.598 13.54-32.707 6.889-10.539 14.241-16.375 23.012-18.27l3.4-.735-.68-52.137c-1.089-83.619-2.672-156.087-3.424-156.764-.538-.486-18.519-5.968-34.289-10.456-1.451-.413-1.658 11.673-2.299 134.314m59.624-125.007c-5.711.707-2.384 2.275 4.828 2.275 3.818 0 6.941.43 6.941.955 0 1.906-7.342 2.346-13.71.823-3.484-.834-6.479-1.237-6.656-.897-.178.341.016 21.094.431 46.119s1.089 71.441 1.499 103.146l.745 57.646 6.64.375c4.531.256 8.294 1.194 11.846 2.951l5.205 2.576-.023-9.097c-.013-5.003-.677-47.797-1.476-95.097s-1.463-91.422-1.476-98.049l-.025-12.049-3.321-1.201c-3.286-1.188-5.091-1.263-11.448-.476M858 112.143c-20.473 1.294-78.242 4.511-150.5 8.381-35.75 1.914-80.975 4.365-100.5 5.447-44.671 2.475-42.736 2.37-120.5 6.534-35.75 1.914-69.642 3.821-75.317 4.238l-10.316.757.056 28c.031 15.4.358 77.835.727 138.746l.67 110.745 3.245 1.915c1.785 1.053 4.483 4.026 5.994 6.605l2.749 4.691 46.096-.722c25.353-.397 46.17-.78 46.26-.851s-1.566-3.729-3.681-8.129c-2.114-4.4-5.504-12.95-7.531-19-3.16-9.427-3.819-13.002-4.612-25-2.044-30.955-2.38-34.001-4.11-37.2-1.134-2.098-1.73-5.438-1.73-9.691 0-3.57-.45-6.769-1-7.109-1.518-.938-1.195-5.627.517-7.519 1.285-1.42 1.336-2.466.332-6.814-1.625-7.041-.049-8.786 8.454-9.357 5.388-.362 7.066-1.016 12.855-5.007 17.154-11.827 42.902-14.991 62.456-7.675 10.132 3.791 21.266 14.164 21.425 19.96.021.777 1.466 2.312 3.212 3.412 3.883 2.446 7.351 7.438 8.963 12.901 1.812 6.138 1.461 23.889-.624 31.563-.965 3.555-2.348 10.121-3.071 14.591-1.34 8.276-4.143 15.196-7.754 19.139-1.703 1.861-1.988 3.459-1.873 10.5.075 4.568.641 10.905 1.257 14.081 1.259 6.486 4.054 9.577 11.758 12.999 4.308 1.914 5.7 1.933 62 .832 31.676-.619 66.751-1.122 77.945-1.116l20.352.01 6.648-6.972c7.603-7.974 11.327-9.784 16.569-8.054 2.484.82 4.049.845 5.464.087 2.782-1.488 8.377-1.321 10.618.318 1.198.875 3.299 1.189 5.756.859 3.021-.405 4.562-.007 7.022 1.811 2.048 1.514 4.298 2.253 6.426 2.11 4.169-.281 8.541 1.977 11.282 5.826l2.147 3.015h12.825c11.058 0 12.913.23 13.466 1.67.353.921.065 2.036-.643 2.485-.706.448-8.506.821-17.334.83-15.033.014-18.448.563-18.451 2.965 0 .302 8.212.212 18.25-.2s19.039-.568 20.001-.344c1.923.447 2.435-1.865.656-2.964-.602-.372-.906-1.66-.677-2.862.23-1.202-.177-2.742-.905-3.422-2.564-2.395-.72-11.34 2.715-13.179 2.502-1.339 6.31-1.23 7.761.221.933.933 1.2-3.049 1.2-17.918v-19.119l-4.605-5.331c-7.068-8.183-8.395-12.093-8.395-24.741 0-9.936.174-10.906 2.314-12.917 2.532-2.378 7.565-2.895 9.486-.974.933.933 1.2-2.494 1.2-15.422v-16.623l-3.465-4.327c-8.086-10.1-9.005-12.417-9.378-23.664-.32-9.615-.186-10.504 1.924-12.75 2.577-2.744 7.366-3.224 9.84-.986 1.432 1.295 1.579-.086 1.579-14.874v-16.301l-4.643-4.969c-6.825-7.305-8.155-10.451-8.659-20.487-.511-10.157.03-13 3.003-15.769 2.411-2.247 7.722-2.705 9.599-.828.933.933 1.2-6.511 1.2-33.5 0-27.17-.271-34.669-1.25-34.555-.687.079-7.325.528-14.75.998M316 147c0 9.815.188 10.998 1.75 10.985 3.23-.029 3.968-1.448 4.467-8.599.547-7.843 1.474-10.482 2.893-8.243.92 1.453 1.236 14.178.373 15.04-.776.776-1.234 41.817-.467 41.817.365 0 .95-11.819 1.301-26.264.351-14.446.93-27.721 1.286-29.5.609-3.047.479-3.236-2.228-3.242-1.581-.004-4.164-.679-5.739-1.5-1.576-.822-3.038-1.494-3.25-1.494s-.386 4.95-.386 11m15.684-6.25c-.645 1.115-1.794 38.19-1.805 58.25-.005 9.625-.414 23.8-.909 31.5-.98 15.255-1.15 42.248-.311 49.646.416 3.678-.518 11.452-1.977 16.449-.1.343 1.797.72 4.215.837 3.537.171 4.955.838 7.25 3.406 3.391 3.795 3.391 3.808 1.905 52.662-.518 17.05-1.228 41.462-1.576 54.25l-.634 23.25h4.958c4.573 0 5.054-.234 6.208-3.02 1.426-3.442 6.103-7.72 9.319-8.524 1.949-.487 2.15-1.132 1.949-6.25-.123-3.138-.684-44.181-1.246-91.206s-1.316-107.212-1.674-133.75l-.652-48.25h-12.293c-6.761 0-12.488.338-12.727.75M319 161.015c-1.333.876-1.333 1.094 0 1.97 1.223.803 1.093.987-.705 1-2.864.02-3.494 3.361-3.097 16.406.302 9.881.304 9.891 2.958 10.171l2.656.282.714-11.412c.392-6.277.476-12.316.187-13.421s-.117-2.261.381-2.569c1.354-.837 1.093-3.444-.344-3.427-.687.009-1.925.459-2.75 1m-.799 32.227c-1.93.93-2.251 1.761-2 5.183.246 3.354.697 4.132 2.549 4.395 1.623.23 2.253-.188 2.261-1.5.006-1.001.29-3.507.631-5.57.656-3.97.235-4.277-3.441-2.508m4.601 58.008c-.386 19.184-.317 21.656.573 20.667.937-1.043 1.734-40.917.817-40.917-.599 0-1.142 7.92-1.39 20.25m213.123 35.731c-8.928 1.15-19.293 4.726-25.07 8.649-7.499 5.093-12.721 7.322-17.213 7.348-3.703.021-3.832.133-3.185 2.772.371 1.512 1.293 3.382 2.049 4.155 1.17 1.195.918 1.831-1.698 4.274-2.875 2.686-2.968 2.987-1.437 4.679 1.224 1.352 1.489 2.921 1.051 6.225-.323 2.429-.153 5.542.376 6.917.919 2.39 1.015 2.302 2.185-1.991.673-2.47 2.187-5.843 3.364-7.497s1.997-3.632 1.821-4.398c-.261-1.138.651-1.231 5.006-.509 9.484 1.573 17.719.928 27.326-2.139 12.239-3.907 20.209-3.971 26.876-.214 2.682 1.512 5.772 2.748 6.867 2.748 1.601 0 1.856.44 1.302 2.25-.379 1.238-.934 5.407-1.233 9.266-.536 6.904-.488 7.084 3.011 11.272 4.191 5.016 4.645 6.247 5.516 14.95.364 3.63 1.191 6.776 1.838 6.99s2.049-1.549 3.114-3.919c3.877-8.624 10.589-11.619 15.565-6.944l2.34 2.198 1.152-6.974c3.029-18.342-.321-32.348-8.616-36.019-1.98-.877-3.232-2.155-3.232-3.3 0-5.522-8.913-14.471-17.681-17.752-9.437-3.531-19.792-4.532-31.394-3.037M313 292.214c0 2.977.121 3.093 1.637 1.578.9-.9 1.364-2.347 1.031-3.214-1.043-2.719-2.668-1.722-2.668 1.636m13.655 10.536c-.254.413-.725 16.725-1.045 36.25-.321 19.525-.879 48.212-1.24 63.75l-.657 28.25h5.266c4.394 0 5.074-.231 4.107-1.396-.871-1.05-.907-8.067-.144-28.25 2.012-53.216 2.493-96.125 1.095-97.809-1.312-1.581-6.549-2.145-7.382-.795m-4.327 9.75c.005 3.85.185 5.302.402 3.228.216-2.075.213-5.225-.008-7s-.398-.078-.394 3.772m210.172 7.621c-10.497 3.159-18.859 3.952-26.672 2.527-4.492-.819-4.727-.742-6.11 2-2.129 4.218-4.707 16.069-4.864 22.352-.239 9.616 2.026 35.277 3.662 41.5 1.973 7.502 8.147 24.845 10.501 29.5 3.312 6.549 5.193 7.5 14.841 7.5 8.091 0 9.197-.267 17.348-4.183 18.766-9.016 27.409-16.95 30.774-28.252l2.126-7.136 3.502.657c3.205.602 3.867.276 7.81-3.839 4.78-4.989 7.582-11.78 7.582-18.378 0-12.05-6.961-13.299-12.559-2.252-2.538 5.009-2.627 5.071-6.258 4.404-2.026-.372-3.965-.979-4.309-1.349s-1.073-4.303-1.619-8.742c-.847-6.886-1.511-8.748-4.528-12.7-4.15-5.438-5.246-10.453-3.745-17.15.597-2.665.958-4.932.802-5.037s-2.617-1.17-5.469-2.367c-6.79-2.849-10.759-2.685-22.815.945m452.439 2.244c-11.997 3.235-21.429 16.15-29.333 40.165-7.376 22.41-10.223 46.258-9.308 77.97 1.236 42.896 11.106 76.699 27.18 93.088 5.124 5.225 6.812 6.31 11.321 7.276 6.602 1.415 22.201 1.511 22.201.136 0-.55-1.152-1-2.56-1-3.787 0-12.556-8.789-16.767-16.805-23.299-44.356-24.302-133.244-2.021-179.144 5.166-10.644 13.38-19.877 19.348-21.749 3.089-.969 2.386-1.102-6-1.132-5.225-.019-11.553.518-14.061 1.195m21.505 2.969c-8.951 4.239-17.125 16.436-22.929 34.217-3.647 11.173-2.992 12.538.889 1.852 6.259-17.23 13.813-27.793 22.157-30.979 14.748-5.633 27.497 12.274 34.962 49.105 1.341 6.617 2.739 16.629 3.108 22.25.647 9.871.75 10.221 3.019 10.221 2.053 0 2.35-.479 2.35-3.792 0-7.179-3.097-27.731-5.908-39.208-5.076-20.727-13.011-35.549-22.592-42.204-5.735-3.983-9.053-4.305-15.056-1.462M321.195 329.5c.02 1.65.244 2.204.498 1.231s.237-2.323-.037-3-.481.119-.461 1.769m-6.445 4.037c-2.134 1.836-2.75 3.25-2.75 6.304 0 4.414 3.147 9.361 4.872 7.659.964-.95 1.877-15.086 1.03-15.93-.221-.22-1.64.665-3.152 1.967m689.75 1.3c-10.989 6.702-21.423 30.748-26.179 60.332-2.852 17.745-2.56 57.821.549 75.272 5.338 29.961 14.464 51.154 24.581 57.083 5.855 3.432 8.763 3.181 13.579-1.17 5.545-5.009 10.523-14.344 15.027-28.179 4.557-13.999 6.808-25.931 7.634-40.479l.614-10.805-5.843.305c-5.597.291-5.877.434-6.64 3.394-1.625 6.304-7.747 10.399-13.418 8.975-8.94-2.244-14.86-20.645-12.406-38.565 2.063-15.067 7.895-24 15.669-24 4.485 0 9.675 5.047 11.006 10.704.88 3.739.972 3.801 6.11 4.098 6.109.354 5.876 1.17 4.159-14.591-3.034-27.857-11.616-53.327-20.635-61.246-4.006-3.518-9.194-3.941-13.807-1.128m-786.23 1.217c-26.784 5.286-47.104 42.239-50.172 91.24-2.205 35.22 4.801 68.448 19.167 90.906 5.665 8.855 14.932 18.077 21.416 21.309 5.032 2.508 7.374 2.986 17.319 3.534 6.325.349 12.287.98 13.25 1.402 1.456.64 1.75.247 1.75-2.338 0-1.819-.518-3.107-1.25-3.108-.687 0-4.06-1.33-7.495-2.955-17.777-8.41-32.468-32.042-39.363-63.319-2.964-13.448-3.681-40.517-1.471-55.529 2.678-18.191 6.015-29.468 12.756-43.114 5.651-11.439 6.931-13.222 16.229-22.611 7.36-7.432 11.651-10.916 15.844-12.861 3.162-1.468 5.75-2.88 5.75-3.139 0-.784-19.197-.312-23.73.583m102.48 2.821c-1.11 4.995-.976 7.751.314 6.461.585-.585.923-3.038.75-5.45l-.314-4.386zm-80.75 7.06c-9.029 2.757-17.462 9.051-23.543 17.573-9.32 13.061-16.047 31.375-19.069 51.919-2.169 14.744-1.447 43.935 1.41 57.073 6.425 29.541 19.771 51.674 36.169 59.983 2.877 1.458 5.383 2.501 5.567 2.316.185-.184.657-14.771 1.05-32.416l.715-32.081-2.899.423c-3.551.517-9.027-2.922-11.561-7.261-6.855-11.737-5.77-35.846 2.031-45.135 2.492-2.968 8.18-6.321 10.729-6.325 1.944-.004 2.147-.724 2.745-9.754.894-13.507.822-57.269-.094-57.164-.412.047-1.875.429-3.25.849m349.337 21.033c.583 2.183 1.249 3.779 1.481 3.547.709-.709-.853-7.515-1.724-7.515-.449 0-.339 1.786.243 3.968M311 369.122c0 1.774.247 1.918 1.5.878.825-.685 1.5-1.64 1.5-2.122 0-.483-.675-.878-1.5-.878-.862 0-1.5.902-1.5 2.122m268.25 21.691c-2.416.233-3.25.801-3.25 2.213 0 5.229-4.22 12.961-9.913 18.161-11.603 10.6-30.265 19.813-40.132 19.813-4.64 0-4.955.162-4.955 2.541 0 1.397 1.98 7.36 4.4 13.25 5.361 13.049 7.859 21.209 6.491 21.209-1.12 0-4.9-8.102-7.55-16.183l-1.743-5.317-.81 4c-.967 4.776-2.786 9.499-3.659 9.502-.346.002-.483-3.823-.306-8.5.228-5.969-.022-8.502-.836-8.502-1.419 0-14.094 8.688-19.8 13.572-4.092 3.503-4.14 3.618-2.677 6.448 1.845 3.566 1.851 3.98.063 3.98-.786 0-2.351-1.173-3.478-2.607-1.574-2.001-1.815-3.047-1.038-4.5.966-1.805.577-1.879-8.272-1.576-7.977.273-10.201.76-15.785 3.453-3.575 1.725-8.2 4.55-10.278 6.278-4.578 3.81-11.271 13.449-13.345 19.224-3.9 10.856-4.091 26.728-.321 26.728 1.004 0 2.104.45 2.444 1 .361.584-.664 1-2.463 1-2.413 0-4.173 1.14-8.108 5.25-11.685 12.206-15.43 29.732-9.425 44.104 1.692 4.05 2.088 16.13.496 15.146-.55-.34-1-2.279-1.001-4.309 0-2.089-1.363-6.512-3.14-10.191-2.476-5.128-3.239-8.208-3.616-14.591-.487-8.256 1.268-17.342 4.247-21.989 1.235-1.927.645-2.786-8.009-11.654-7.804-7.997-10.095-11.12-13.913-18.968-2.513-5.167-5.128-11.742-5.809-14.611-.951-4.003-1.591-5.072-2.749-4.593-4.022 1.66-8.355 2.484-9.851 1.872-1.186-.485-.32-1.08 3.035-2.086 3.763-1.129 6.443-3.201 13.5-10.443 4.844-4.969 9.201-9.887 9.683-10.928.503-1.086.503-6.505 0-12.702L406.5 434.5l-5-.857c-2.75-.471-6.866-1.441-9.146-2.154-4.683-1.465-6.354-.62-6.354 3.211 0 3.806 3.387 6.3 8.557 6.3 4.509 0 4.54.023 3 2.223-.856 1.222-1.557 3.413-1.557 4.868 0 2.322-.48 2.71-3.927 3.172-6.572.882-15.136 5.75-18.477 10.504-2.413 3.433-3.001 5.316-3.043 9.743-.029 3.019-.188 5.488-.354 5.489s-.957-1.568-1.758-3.486c-2.763-6.612 1.563-16.223 9.378-20.834l3.54-2.088-3.279-.85c-2.44-.632-3.574-.484-4.43.58-.632.787-2.05 1.923-3.15 2.524-1.1.602-1.437 1.108-.75 1.125s1.25.46 1.25.985c0 1.388-6.429 2.375-10.5 1.611-5.339-1.002-4.177-2.431 2.25-2.766 5.29-.276 5.567-.404 3.467-1.603-1.847-1.054-2.944-1.063-5.745-.051-3.067 1.109-3.766 1.025-6.132-.741-3.222-2.406-5.575-8.59-5.137-13.499l.32-3.595-14.881.392c-12.707.334-15.143.154-16.678-1.236-2.191-1.982-4.506-.989-8.356 3.587-2.153 2.559-2.608 4.109-2.608 8.888 0 7.422 2.49 11.058 7.573 11.058 1.885 0 3.427.441 3.427.981 0 1.437-4.596 2.35-8.198 1.629-3.066-.613-3.091-.587-1.326 1.363.989 1.093 3.403 2.289 5.363 2.657 3.256.61 3.856.331 6.944-3.231l3.38-3.899-5.106-.5c-4.296-.421-5.418-.976-7.075-3.5-1.22-1.859-1.92-4.522-1.842-7l.127-4 .643 4.5c.353 2.475.994 5.063 1.425 5.75.584.932 5.867 1.25 20.783 1.25 15.496 0 19.83.275 19.245 1.221-1.17 1.894-1.261 9.721-.181 15.57 1.167 6.32 6.644 12.824 11.64 13.823 1.73.346 2.879 1.061 2.553 1.589-.326.527-1.669.689-2.984.359s-2.391-.479-2.39-.331.881 2.586 1.957 5.417 5.378 17.007 9.56 31.5c11.017 38.179 15.746 47.357 35.021 67.963 14.544 15.548 13.625 14.892 20.822 14.872 5.357-.014 7.214-.594 14.58-4.548 4.642-2.492 12.179-6.872 16.748-9.733l8.308-5.202-.669-4.5c-.368-2.475-.705-6.163-.749-8.195-.058-2.73-.911-4.558-3.265-7-4.213-4.371-8.88-14.465-10.914-23.609-2.349-10.56-1.605-28.038 1.446-33.946 1.207-2.337 2.298-4.25 2.424-4.25.127 0 .233 7.087.237 15.75.005 12.009.431 17.294 1.792 22.25 6.006 21.864 15.661 30.133 35.146 30.104 8.882-.014 19.614-2.078 22.272-4.284.732-.608 1.597-.839 1.923-.514.826.827-8.33 6.492-12.605 7.801-1.944.594-7.176 1.316-11.626 1.604-7.388.478-13.645-.555-19.99-3.298-1.579-.682 1.032 15.217 4.2 25.579 3.232 10.571 7.387 18.903 11.942 23.944 1.926 2.132 3.15 4.031 2.721 4.22-1.164.512.269 47.772 1.572 51.88 2.474 7.8 22.916 17.388 42.718 20.036 10.871 1.454 31.583.698 43.354-1.583 21.567-4.179 41.79-13.447 52.197-23.922 3.58-3.603 3.624-3.75 3.749-12.357.333-23.008 2.869-38.653 7.165-44.21 6-7.759 14.401-21.635 18.942-31.286C666.682 575.72 673 558.345 673 555.407c0-.814-2.268-4.438-5.04-8.055-4.343-5.667-9.96-15.151-9.96-16.819 0-1.897 3.029.239 6 4.232 1.925 2.586 9.35 10.584 16.5 17.774 17.802 17.899 32.817 27.889 51.188 34.056 4.276 1.435 10.481 3.976 13.789 5.646 9.286 4.687 16.158 6.725 26.735 7.928 7.501.853 10.388.825 12.68-.124 3.246-1.345 5.894-5.928 6.845-11.846.326-2.034 2.305-5.971 4.396-8.747 5.252-6.973 12.266-22.317 14.723-32.208 1.128-4.541 2.55-13.991 3.16-21 2.638-30.31 4.062-43.319 5.018-45.834 1.157-3.042.519-4.363-1.251-2.593-1.44 1.44-6.428 1.566-7.283.183-.34-.55.323-1 1.473-1 4.138 0 8.83-2.854 11.755-7.15 3.281-4.819 6.271-12.816 6.274-16.778l.002-2.572-13.002.306c-8.291.194-13.002-.061-13.002-.705 0-.936 1.632-1.344 10.25-2.559 1.788-.253 15.737-.579 31-.726l27.75-.267-.004-3.524c-.004-3.842-3.207-10.003-5.231-10.062-.696-.02-11.14-.033-23.21-.027-23.951.011-22.785-.294-23.964 6.271-.404 2.248-1.687 4.51-3.263 5.75-3.068 2.413-3.953 2.487-7.509.632-2.407-1.256-2.857-1.204-4.405.506-2.072 2.289-5.197 2.446-8.11.405-1.178-.825-2.853-1.227-3.723-.893-1.634.627-2.203 2.393-.771 2.393 1.537 0 7.489 6.508 8.796 9.618.758 1.804 1.062 4.65.722 6.75-.663 4.083-2.328 4.939-2.328 1.197 0-9.185-11.083-18.904-21.626-18.964l-5.126-.03.49-3.656c.286-2.129.025-3.943-.624-4.344-2.086-1.29-1.122-2.571 1.936-2.571 5.872 0 9.95-3.312 9.95-8.082 0-2.24-1.367-2.311-11.225-.578-9.364 1.645-10.093 2.62-10.599 14.172-.4 9.146-.302 9.698 2.395 13.591 4.228 6.1 17.007 17.603 21.033 18.931 1.951.644 4.863.978 6.471.742 1.609-.236 2.925-.112 2.925.276 0 .898-4.737 2.764-7.999 3.151-2.254.268-2.572.882-3.24 6.258-1.735 13.945-7.744 27.956-16.334 38.081-8.519 10.042-11.941 15.499-14.528 23.167-2.505 7.424-2.985 17.943-1.12 24.541 1.523 5.39-.031 4.617-2.858-1.421-4.223-9.02-2.494-25.625 3.65-35.058 1.336-2.05 2.429-4.207 2.429-4.792 0-.586-3.712-4.802-8.25-9.371-9.428-9.491-17.2-13.894-28.068-15.9-6.425-1.186-8.12-2.708-3.015-2.708 1.283 0 2.333-.141 2.333-.312s-1.328-4.241-2.95-9.041c-9.19-27.187-34.079-44.073-62.465-42.379-10.645.635-19.245 3.259-28.973 8.839-3.788 2.173-7.061 3.777-7.273 3.566-1.147-1.148 8.472-8.965 14.633-11.892l7.145-3.394-8.809-4.107c-4.844-2.259-13.308-5.996-18.808-8.304-13.757-5.773-18.592-8.341-21.424-11.377-1.334-1.429-2.684-2.599-3.002-2.599s-.295 4.931.05 10.958c.606 10.561.76 11.142 4.251 16 3.986 5.55 3.35 6.973-.801 1.792l-3.47-4.33c-1.741-2.173-3.107-11.791-3.227-22.719-.067-6.161-.404-15.701-.75-21.201l-.627-10zm-259.626 8.726c-.343.893-.595 2.15-.561 2.793.035.642.495.09 1.022-1.227s.779-2.574.56-2.793-.679.333-1.021 1.227m695.839 1.492c-3.783 1.412-8.569 9.218-8.393 13.687.039.98.723.002 1.519-2.174 3.692-10.081 12.375-12.585 13.979-4.032.475 2.532 1.176 3.488 2.557 3.488 1.806 0 1.824-.187.35-3.713-2.686-6.429-5.93-8.78-10.012-7.256M311.75 405.08c-2.524 1.47-2.408 9.893.179 13.059 2.766 3.386 3.859 1.612 4.243-6.891.347-7.669-.299-8.57-4.422-6.168m702.363 3.503c-6.562 8.342-6.889 33.482-.527 40.512 2.274 2.513 4.945 2.413 6.812-.254 1.381-1.971 1.321-2.426-.693-5.25-1.957-2.744-2.205-4.346-2.205-14.257 0-9.928.243-11.496 2.194-14.135 4.501-6.087-.931-12.527-5.581-6.616m-222.406 5.433c-3.617 2.845-5.257 8.243-3.668 12.078 1.041 2.513.954 3.596-.559 6.951-1.45 3.215-1.573 4.455-.645 6.493 2.622 5.755 7.72 3.635 6.85-2.849-.611-4.553 1.57-13.753 4.397-18.549 1.53-2.595 1.718-3.676.827-4.75-1.622-1.954-4.208-1.729-7.202.626m259.297-.766c-.002.413-5.604.75-12.448.75-11.683 0-12.615.146-15.225 2.392-2.511 2.159-2.819 3.146-3.172 10.14-.457 9.035.992 14.866 4.22 16.981 2.687 1.76 26.547 2.026 78.418.871 25.587-.569 31.203-.941 30.782-2.04-.69-1.798.372-1.698 2.509.236 2.421 2.19 5.625.351 7.593-4.36 1.803-4.315 2.005-15.513.356-19.718-4.705-11.995-12.177-6.223-12.142 9.381.009 4.248.282 8.415.606 9.26 1.573 4.098-2.887 4.456-67.141 5.384-35.729.516-38.253.438-39.931-1.238-1.722-1.719-.716-1.813 25.639-2.405 15.088-.339 38.909-.677 52.936-.75l25.504-.134-.004-10.094-.004-10.094-32 .604c-17.6.333-41.341.872-52.759 1.198-17.957.514-20.683.397-20.198-.866.807-2.101 9.879-2.595 62.218-3.386 37.859-.573 45.46-.923 46.473-2.144 1.059-1.276-4.025-1.413-40.508-1.089-22.945.204-41.72.708-41.722 1.121m-273.045 1.032c-1.784 1.41-6.959 8.115-6.959 9.016 0 .652 10.862.266 11.299-.401 1.524-2.326 3.607-8.24 3.159-8.966-.818-1.322-5.669-1.096-7.499.351m26.944.713c-2.186 1.278-6.595 11.478-7.426 17.18-.835 5.729.918 11.825 3.401 11.825 2.836 0 4.119-2.14 4.166-6.95.054-5.637 1.798-10.666 5.283-15.235 3.181-4.17 3.315-5.401.739-6.78-2.356-1.26-4.057-1.271-6.163-.04m331.175 1.151c-5.204 5.587-2.974 25.751 2.728 24.653 4.524-.871 6.447-16.731 2.855-23.549-2.013-3.82-2.89-3.993-5.583-1.104m-898.143 1.168c-3.41 1.802-5.067 3.596-7.168 7.765-1.504 2.981-2.731 6.546-2.728 7.921.004 2.017.399 1.631 2.045-2 2.265-4.996 5.769-9.209 7.019-8.437.446.276-.499 2.569-2.101 5.094-5.864 9.247-6.028 20.235-.451 30.213 1.363 2.439 2.245 4.667 1.96 4.953-1.051 1.05-5.482-4.227-6.895-8.213-.88-2.48-1.489-3.302-1.537-2.072-.116 2.99 4.034 10.568 6.921 12.637 1.375.986 3.625 1.912 5 2.059l2.5.266.5-25.5c.275-14.025.246-25.844-.065-26.265-.31-.42-2.56.29-5 1.579m695.271 2.151c-2.316 2.945-3.556 11.017-2.636 17.156.712 4.748 3.978 10.43 6.43 11.189.825.255 1.166.106.759-.331-.408-.437-.243-1.396.367-2.131.849-1.022.552-1.788-1.258-3.256-2.172-1.761-2.368-2.661-2.368-10.902 0-7.151.357-9.376 1.75-10.915 2.123-2.345 2.215-3.275.323-3.275-.786 0-2.3 1.109-3.367 2.465m-552.122 1.297c-1.519 1.52-3.76 5.428-4.979 8.686-1.962 5.244-2.083 6.476-1.056 10.758 1.298 5.408 4.048 7.788 6.576 5.69 1.176-.976 1.356-2.558.84-7.378-.587-5.484-.408-6.449 1.689-9.077 1.29-1.618 3.146-4.381 4.123-6.141 1.725-3.105 1.719-3.232-.184-4.25-2.936-1.571-3.981-1.316-7.009 1.712m437.37-1.806c-1.125.455-3.368 2.789-4.985 5.186-2.552 3.784-2.942 5.28-2.954 11.358-.014 6.494.147 7.023 2.225 7.318 2.487.354 3.713-1.727 4.736-8.039.84-5.176 4.91-9.779 8.648-9.779 2.631 0 2.833-.213 1.882-1.99-.869-1.623-6.063-5.188-7.206-4.947-.165.035-1.221.437-2.346.893m318.829.627c-1.204 2.948-.923 15.177.379 16.479 2.046 2.046 3.593-2.715 3.149-9.695-.437-6.854-2.153-10.154-3.528-6.784m-768.266 2.246c-3.371 3.371-5.009 8.672-4.997 16.171.012 6.947 1.707 10.5 5.01 10.5 2.145 0 2.43-.394 2.166-3-1.011-10.002-.57-13.422 2.501-19.377 1.702-3.299 2.841-6.252 2.532-6.561-1.361-1.36-4.604-.341-7.212 2.267m23.516 1.315c-2.933 3.484-2.743 3.868 2.862 5.769 3.427 1.163 4.003 1.127 4.799-.296 1.073-1.916 2.803-2.142 2.812-.367.004.688 1.315 1.994 2.915 2.904 4.949 2.816 6 5.482 6.162 15.622.081 5.073.565 9.224 1.076 9.224s.796-.788.635-1.75c-.275-1.639 2.243-1.767 39.599-2.012l39.894-.261 6.606-4.853c3.634-2.669 8.516-5.927 10.849-7.239 4.824-2.712 5.595-4.203 1.508-2.914-1.512.477-24.499 1.149-51.082 1.494-46.153.599-48.317.546-47.988-1.169.324-1.686 3.311-1.842 48.833-2.55 26.668-.414 49.499-.589 50.737-.388 1.825.296 2.25-.102 2.25-2.108 0-2.239-.307-2.419-3.25-1.908-1.788.31-20.8.819-42.25 1.13-21.45.312-43.326.815-48.614 1.118l-9.613.551-2.739-4.672c-3.918-6.687-6.011-8.469-9.945-8.469-2.597 0-4.042.75-6.056 3.144m371.886 1.864c-2.933 1.88-5.976 2.022-63.5 2.968-33.23.546-66.044 1.038-72.919 1.093l-12.5.1 4 1.74c3.623 1.576 6.546 1.671 31 1.011 47.654-1.288 107.727-1.103 107.252.33-.576 1.735-39.418 2.815-89.864 2.499l-39.611-.249 8.674 4.581 8.674 4.58 8.587-.451c9.987-.524 19.764.951 27.1 4.089 4.929 2.108 6.062 2.186 22.688 1.57 9.625-.356 25.712-.698 35.75-.759L758 448v-5.935c0-3.264.479-7.202 1.064-8.75 1.261-3.338 5.788-8.315 7.564-8.315.69 0 1.532-.45 1.872-1 .967-1.565-.714-1.15-4.081 1.008m-406.763.125c-5.95 3.458-6.154 21.927-.266 24.186 2.72 1.044 3.791-1.713 2.563-6.593-1.088-4.319-.124-10.839 2.51-16.976.877-2.044-1.768-2.384-4.807-.617m647.68 5.867c0 4.125.177 5.813.392 3.75s.216-5.437 0-7.5c-.215-2.062-.392-.375-.392 3.75m-445.315 3.22c-1.239 2.904-5.178 11.49-8.753 19.08s-6.193 14.108-5.816 14.485c1.834 1.835 10.949-15.732 15.084-29.072 3.099-10 2.831-12.339-.515-4.493m-432.918-.472c-8.646.27-10.897.681-13.363 2.437-7.795 5.551-7.536 19.838.45 24.848 3.145 1.973 4.469 2.061 26.581 1.772 19.034-.249 23.222-.554 23-1.673-.22-1.11-4.153-1.336-20.929-1.198-22.9.188-26.999-.587-28.848-5.451-1.43-3.759-1.223-10.139.431-13.338 2.419-4.678 4.928-5.145 27.622-5.145 17.958 0 20.953-.214 20.953-1.5 0-1.554-6.183-1.683-35.897-.752m186.337 4.034c-1.342.705-2.441 1.605-2.441 2-.002 1.056 34.337.254 35.434-.828.514-.506.735-1.119.493-1.362-.243-.242-7.327-.587-15.743-.766-11.058-.236-15.979.03-17.743.956m466.31.907c-3.14.821-2.087 4.033 1.5 4.579 1.788.272 3.379.381 3.537.243.482-.423-2.066-5.519-2.698-5.395a62 62 0 0 0-2.339.573m-661.775 3.061c-1.705 2.161-2.067 3.67-1.691 7.041.911 8.155 1.079 8.209 25.507 8.209h21.481l-.636-4.64c-.35-2.551-.636-6.601-.636-9V439h-41.855zm109.311 3.75c.008 2.75.202 3.756.432 2.236s.223-3.77-.014-5-.425.014-.418 2.764m158.365.786-1.69 2.944 3.77-.693c5.978-1.099 7.077-3.767 1.954-4.746-1.794-.343-2.742.243-4.034 2.495m621.371-2.556c-.012.676.691 3.012 1.563 5.19 3.414 8.533 12.038 9.576 15.99 1.935 1.112-2.15 1.278-3.402.547-4.133-.73-.73-1.348-.257-2.04 1.563-.546 1.436-2.104 3.338-3.461 4.228-2.275 1.49-2.716 1.489-5.623-.014-1.943-1.005-3.885-3.239-5.055-5.815-1.044-2.301-1.909-3.631-1.921-2.954M1045 453.776c0 21.304-8.575 54.94-17.319 67.931-4.785 7.11-10.822 11.293-16.299 11.293-10.558 0-17.846-7.964-26.053-28.471-1.659-4.148-2.248-5.002-1.887-2.737 1.56 9.78 12.078 29.262 18.263 33.829 4.763 3.516 9.756 4.712 13.926 3.336 7.854-2.592 16.973-13.895 22.715-28.154 6.628-16.46 11.636-40.562 11.648-56.053.006-7.602-.042-7.75-2.494-7.75-2.421 0-2.5.215-2.5 6.776M871 449c0 .733.3 1.033.667.667a.95.95 0 0 0 0-1.334c-.367-.366-.667-.066-.667.667m-38.5 1c.34.55.816 1 1.059 1s.441-.45.441-1-.477-1-1.059-1-.781.45-.441 1m21.376 1.773-17.625.272-1.218 6.194c-1.199 6.095-4.496 13.702-8.109 18.712-2.466 3.421-4.647 17.033-5.933 37.049-2.17 33.739-5.852 47.279-17.948 66-2.666 4.125-5.558 10.017-6.427 13.092-3.191 11.293-8.296 14.485-21.494 13.441-12.118-.958-19.982-2.934-28.251-7.098-3.928-1.978-11.67-5.173-17.204-7.099s-12.335-4.652-15.114-6.057c-7.812-3.95-20.287-12.575-28.514-19.715-4.104-3.561-7.544-6.382-7.645-6.269s-1.588 4.48-3.305 9.705c-4.303 13.093-13.779 31.629-22.037 43.108-6.055 8.417-7.107 10.55-8.482 17.208-.953 4.614-1.57 12.674-1.57 20.516 0 11.802.209 13.293 2.426 17.292 1.334 2.407 3.202 6.401 4.151 8.876s3.419 6.75 5.49 9.5c8.729 11.589 17.393 31.788 20.372 47.491.858 4.526 1.571 13.018 1.583 18.869.018 8.602.418 11.502 2.088 15.14 5.235 11.405 19.89 54.387 19.89 58.337 0 1.424 1.967.048 7.639-5.339 5.397-5.127 9.78-8.246 14.932-10.626 7.943-3.67 10.884-6.648 18.639-18.872 6.413-10.108 6.832-11.645 7.678-28.181.645-12.59 1.134-15.732 3.072-19.736 5.32-10.989 19.71-15.379 32.667-9.966 4.163 1.74 13.011 10.341 19.552 19.006 5.518 7.31 8.338 9.527 20.821 16.367 16.032 8.784 23 17.632 23 29.206V804l5.75.123c3.163.067 8.336.18 11.497.25l5.747.127.003-20.619.003-20.62-3.863-4.88c-6.755-8.535-7.513-10.738-7.952-23.101l-.399-11.22 3.03-3.03c3.213-3.213 5.114-3.673 8.25-1.995 1.885 1.009 1.934.474 1.929-21.25-.006-24.419.44-22.324-6.771-31.836-4.697-6.196-6.552-13.469-6.021-23.602.373-7.107.796-8.717 2.867-10.922 1.919-2.043 3.187-2.515 6.029-2.244l3.598.343.634-20.361c.695-22.36.948-21.061-5.928-30.402-5.405-7.342-6.39-10.822-6.397-22.588-.006-8.979.103-9.436 2.917-12.25 3.11-3.11 5.028-3.555 8.143-1.888 1.883 1.008 1.934.489 1.934-19.825v-20.86l-4.632-5.925c-6.685-8.55-7.368-10.718-7.368-23.393 0-9.699.242-11.274 2-13.032 2.213-2.213 6.947-2.653 8.783-.817 1.707 1.707 2.095.8 1.362-3.183l-.645-3.5zM704.852 462.75c9.512 9.516 14.043 16.872 17.632 28.627l2.101 6.878 5.457 2.02c9.575 3.545 21.866 12.574 27.073 19.887 1.572 2.207 1.759 3.206.899 4.812-.755 1.411-.763 2.026-.024 2.026.583 0 1.517-1.204 2.077-2.675.559-1.471 2.521-4.34 4.36-6.375 7.123-7.885 13.316-22.656 14.281-34.062l.559-6.612-7.884-7.542c-4.335-4.148-9.008-9.373-10.383-11.611l-2.5-4.069-31.197-.027-31.198-.027zM347 456c-1.207.78-1.049.972.809.985 1.288.008 2.036-.427 1.691-.985-.743-1.202-.639-1.202-2.5 0m112.638.5c-.488 1.273-4.039 1.5-23.446 1.5-22.745 0-22.877.012-23.906 2.25-.569 1.238-3.55 5.061-6.623 8.496-7.976 8.914-7.912 8.695-5.029 17.255 3.899 11.577 8.949 19.715 17.398 28.034l7.652 7.535 3.888-4.469c3.877-4.457 3.888-4.494 3.998-13.55.24-19.731 11.292-37.952 27.93-46.046 4.825-2.347 4.89-2.433 1.857-2.468-1.898-.023-3.371.557-3.719 1.463M323.54 490.718c-.423 17.48-1.057 42.582-1.41 55.782s-.388 26.096-.077 28.658.199 8.412-.247 13c-.447 4.588-.97 22.292-1.162 39.342-.383 33.935-2.017 111.624-3.648 173.5-.572 21.725-1.532 60.875-2.131 87-.6 26.125-1.377 59.351-1.728 73.836-.35 14.484-.517 26.454-.37 26.6s12.072-4.105 26.5-9.446l26.233-9.71-.287-64.89c-.158-35.689-.945-121.815-1.748-191.39s-1.469-144.5-1.48-166.5l-.02-40-2.928-9.278c-2.026-6.419-4.013-10.545-6.449-13.39-4.065-4.749-6.382-11.006-6.975-18.832l-.417-5.5-10.444-.282-10.445-.283zm268.96-27.031c-22.329 1.96-43.738 8.374-49.5 14.832-1.382 1.549-1.829 2.542-1 2.221.825-.319 4.342-1.757 7.815-3.195 6.823-2.824 23.89-7.077 42.098-10.489 17.217-3.226 17.501-4.853.587-3.369m-282.864 4.383c-2.036 10.182.229 22.401 3.547 19.132 1.628-1.605 2.546-21.202.992-21.202-.556 0-1.662-.25-2.457-.555-1.012-.388-1.637.401-2.082 2.625m9 3.57c-.927 6.76-.779 11.36.364 11.36.583 0 1-3.333 1-8 0-4.4-.164-8-.364-8s-.65 2.088-1 4.64M491 469.833c.825.511 7.35 2.129 14.5 3.596 7.15 1.466 15.391 3.816 18.313 5.223 2.921 1.406 5.539 2.329 5.816 2.052 1.385-1.385-6.79-7.479-12.231-9.117-6.316-1.902-29.078-3.415-26.398-1.754m453.079 10.75c.048 1.165.285 1.402.604.605.289-.722.253-1.585-.079-1.917s-.568.258-.525 1.312m-143.457 2.537c-1.494 9.758-1.671 12.323-.784 11.38 1.373-1.46 3.131-12.847 2.143-13.88-.466-.488-1.072.628-1.359 2.5m-428.375 4.13c.254.688 1.238 3.613 2.188 6.5.949 2.887 2.166 5.25 2.704 5.25s.79-.337.558-.75-1.22-3.337-2.196-6.5-2.211-5.75-2.745-5.75c-.533 0-.762.563-.509 1.25M945.654 605.5c-.349 63.8-.897 135.419-1.218 159.154l-.584 43.154 8.824.657c22.175 1.652 25.414 2.678 30.074 9.525 2.067 3.037 2.25 4.437 2.25 17.208 0 20.639-.536 21.267-24.638 28.846-8.616 2.709-15.829 5.089-16.03 5.29-.656.657-1.678 145.666-1.026 145.666.35 0 4.136-2.618 8.415-5.818s16.437-12.01 27.018-19.578c10.582-7.568 19.5-14.181 19.818-14.696.536-.868.211-22.906-2.588-175.408-1.672-91.143-3.967-231.207-3.968-242.25L992 547h-3.634c-7.369 0-11.557-2.09-18.934-9.449-5.724-5.71-8.047-9.048-12.217-17.551-2.833-5.775-6.299-14.55-7.703-19.5s-2.704-9.45-2.888-10c-.185-.55-.621 51.2-.97 115M529.429 497.516c-5.647 13.514-8.185 39.142-5.075 51.24 1.466 5.705 4.406 11.818 5.268 10.956.193-.193-.318-3.847-1.136-8.12-2.448-12.796-1.43-38.661 2.05-52.077 1.595-6.149 1.043-7.145-1.107-1.999m-220.762 2.151c-1.021 1.02-.793 4.333.298 4.333 1.257 0 3.153-3.549 2.333-4.369-.815-.815-1.794-.802-2.631.036m376.099 8.722c-5.353 1.235-10.078 2.614-10.5 3.065-2.159 2.309 21.709-2.176 24.184-4.545 1.525-1.46-3.111-.958-13.684 1.48M317.709 518.5c-.993 12.545-1.379 44.164-.55 44.993.824.824 2.081-33.461 1.667-45.493l-.326-9.5zm341.532-6.672c-1.083 2.846-17.199 24.276-24.106 32.056-11.512 12.968-24.705 21.425-40.193 25.768-8.994 2.521-41.967 2.578-49.395.084-6.774-2.274-7.034-1.3-.449 1.681 20.665 9.356 52.26 6.742 72.992-6.04 14.47-8.921 28.206-23.629 38.108-40.802 2.243-3.891 4.917-8.294 5.941-9.785 2.316-3.372 2.313-3.438-.2-4.096-1.359-.355-2.278.031-2.698 1.134m-346.588 25.984c-.466.721-1.929 1.722-3.25 2.225-2.313.879-2.402 1.281-2.388 10.688.009 5.376.362 10.321.786 10.987.427.672 1.738.96 2.939.646 1.64-.429 2.317-1.579 2.775-4.713.858-5.877.182-21.449-.862-19.833m711.731 2.083c-3.319 3.022-9.405 5.572-15.788 6.615l-3.904.638.678 39.676c.373 21.822 1.326 79.726 2.116 128.676 2.332 144.383 4.722 259.953 5.391 260.65.343.357 5.686.969 11.873 1.359l11.25.71-.003-10.36c-.002-5.697-.435-31.059-.963-56.359s-1.44-74.575-2.028-109.5c-.587-34.925-1.729-102.158-2.537-149.406S1029 560.008 1029 551.844s-.338-14.831-.75-14.815-2.152 1.306-3.866 2.866m-651.37 19.855c.007 7.013.432 42.9.944 79.75.513 36.85 1.242 102.1 1.622 145s.968 103.2 1.306 134l.614 56 6.838.823c3.762.453 7.522.561 8.357.24 1.651-.633 1.583-24.997-.782-283.956L390.9 580.715l-2.772-4.108c-4.591-6.802-9.753-16.732-12.142-23.357-1.24-3.437-2.419-6.25-2.62-6.25s-.36 5.737-.352 12.75m623.4 9.417c.34 12.283 1.074 51.808 1.631 87.833a99237 99237 0 0 0 2.462 149c.796 45.925 1.689 98.125 1.983 116s.751 37.675 1.014 44l.479 11.5-6.216 4c-3.419 2.2-12.753 8.689-20.742 14.421s-19.25 13.635-25.025 17.564c-9.401 6.396-10.467 7.425-10.184 9.829.339 2.877 1.635 3.559 2.496 1.315.506-1.317 8.962-7.626 33.688-25.132a3946 3946 0 0 0 20-14.259c5.327-3.834 8.855-5.767 9.45-5.178 1.299 1.285 9.846 1.228 9.05-.06-.34-.55-1.829-1.007-3.309-1.015-5.96-.034-5.369 11.084-8.151-153.485-1.568-92.794-4.04-242.96-4.305-261.5-.235-16.483-.237-16.5-2.587-16.833l-2.351-.333zm-297.89-8.128c1.026 1.66 13.689 7.683 19.536 9.292 6.588 1.813 14.513 2.822 13.311 1.694-.479-.449-6.154-2.453-12.611-4.452s-13.793-4.515-16.301-5.59-4.279-1.5-3.935-.944m-242.579 4.519c-1.322 1.407-5.225 3.905-8.674 5.551S441 574.291 441 574.522c0 .833 8.561-.783 11.131-2.101 2.77-1.421 7.869-6.927 7.869-8.498 0-1.631-1.588-.991-4.055 1.635m-146.667.692c-1.901 2.456-2.105 4.552-.646 6.635 1.8 2.569 3.366 2.739 3.374.365.004-.962.635-2.956 1.404-4.429s1.141-2.936.827-3.25c-1.011-1.012-3.964-.608-4.959.679m318.367 12.792c-2.766 2.798-7.608 6.213-11.25 7.934-3.517 1.662-6.395 3.199-6.395 3.416 0 .709 8.339-1.458 11.458-2.977 4.169-2.03 5.67-3.313 8.927-7.633 4.34-5.755 2.664-6.208-2.74-.74m-103.1 6.507c-.375 2.502-.391 5.877-.034 7.5.533 2.427.324 2.951-1.178 2.951-3.306 0-16.968 5.017-21.515 7.901-6.071 3.85-8.217 8.536-7.575 16.541 1.138 14.172 9.428 21.5 22.939 20.275 5.227-.474 11.732-3.136 10.551-4.318-.243-.242-2.838.073-5.767.702-6.942 1.488-15.175.599-18.881-2.041-4.073-2.9-6.453-9.609-5.876-16.566.381-4.591 1.031-6.147 3.739-8.94 1.803-1.86 5.815-4.507 8.915-5.881 10.464-4.638 13.635-6.066 14.137-6.369.275-.165.559 4.761.631 10.948.11 9.501.562 12.49 2.911 19.248 2.353 6.769 2.744 9.358 2.538 16.824-.261 9.43 1.062 16.928 4.027 22.83 1.688 3.361 1.711 3.903.287 6.759-1.446 2.898-1.389 5.524.248 11.337.889 3.157 1.919 1.831 1.553-2-.196-2.063.298-5.651 1.098-7.974 1.317-3.822 1.282-4.75-.366-9.746-2.395-7.259-3.847-18.064-3.199-23.809.498-4.419.605-4.55 2.646-3.241 4.166 2.672 14.127 4.866 22.126 4.874 13.912.013 20.885-4.755 20.885-14.282v-4.691l3.598.96c2.099.56 5.246.61 7.557.12 3.877-.823 3.815-.855-2.986-1.497-6.409-.605-7.141-.919-9.479-4.06-7.568-10.168-15.543-14.795-35.126-20.378-6.81-1.942-13.043-4.191-13.85-4.998-.836-.836-1.655-4.062-1.903-7.498-.518-7.155-1.701-7.816-2.651-1.481m107.955 7.127c-2.2 1.975-6.7 5.327-10 7.448-4.59 2.951-5.462 3.859-3.71 3.866 3.662.016 9.465-3.458 14.005-8.383 2.313-2.509 4.205-5.022 4.205-5.585 0-1.394.02-1.406-4.5 2.654m-178 7.927c-24.553 14.84-30.771 15-43.775 1.125l-6.774-7.228.555 64c.305 35.2.653 83.236.774 106.746s.272 42.748.336 42.75 1.135-2.808 2.38-6.246c1.246-3.437 4.006-9.728 6.134-13.978s3.87-8.885 3.87-10.299c0-3.586 2.221-7.567 10.03-17.973 9.174-12.225 21.156-24.832 30.887-32.496 4.686-3.691 8.083-7.113 8.083-8.143 0-.977 1.575-3.032 3.5-4.568 2.154-1.719 3.5-3.667 3.5-5.065 0-1.25 1.729-4.175 3.842-6.5 3.315-3.647 4.008-5.258 5.042-11.728.659-4.125 2.006-9.075 2.994-11 1.315-2.565 1.573-4.302.966-6.5-.457-1.65-.798-11.146-.759-21.103.04-9.956-.408-19.856-.993-22-.586-2.143-2.686-6.573-4.667-9.844-4.286-7.076-9.147-18.961-10.04-24.547-.352-2.203-.921-3.974-1.263-3.935s-6.922 3.878-14.622 8.532m73.92 5.647c1.47 20.071 3.54 26.668 9.286 29.6 7.4 3.775 22.628 5.296 30.672 3.062 6.07-1.685 8.622-4.878 8.622-10.79 0-5.032-1.936-8.486-7.5-13.382-3.345-2.943-15.486-8.395-25-11.225-4.95-1.473-10.488-3.542-12.307-4.597S528.628 597 528.314 597s-.267 4.163.106 9.25m-212.67 3.654c-1.107 13.874-.968 26.714.275 25.471.642-.642.922-7.352.75-17.95-.264-16.255-.305-16.553-1.025-7.521m319.329-6.235c-.043.644-2.374 3.681-5.179 6.75-5.327 5.828-5.294 7.466.059 2.962 3.499-2.944 6.409-7.912 5.681-9.699-.362-.888-.502-.891-.561-.013M312.882 641.25c-.228 2.4.309 4.261 1.666 5.782 1.156 1.295 1.149 2.142-.047 5.5-.777 2.182-1.433 4.728-1.457 5.657S311.2 661.958 309 664.5l-4 4.622-.238 10.689c-.404 18.105-.289 27.332.352 28.372.338.548 1.801-1.126 3.25-3.719 2.543-4.549 2.636-5.284 2.636-20.785 0-15.507.083-16.159 2.364-18.624 1.3-1.405 2.875-4.085 3.5-5.954 1.42-4.248 1.48-14.589.101-17.167-1.156-2.159-3.9-2.619-4.083-.684m265.782 8.694c-.69 6.593-1.69 9.168-5.039 12.966-2.051 2.326-2.055 2.385-.125 1.676 1.1-.404 2.45-.813 3-.91 1.514-.266.908 13.765-.939 21.721-1.832 7.894-1.425 9.589.95 3.961 3.287-7.788 4.751-15.59 4.003-21.336-.895-6.875-.894-8.171.009-15.136.423-3.259.321-6.343-.244-7.352-.746-1.334-1.122-.308-1.615 4.41m-76.112 7.556c.469 1.1.737 4.846.594 8.324-.18 4.389.401 8.309 1.9 12.814 1.188 3.569 2.349 6.3 2.581 6.068s-.296-4.579-1.172-9.66c-1.736-10.057-1.443-13.111 1.057-11.036 2.79 2.316 1.414-.5-2.205-4.51-1.985-2.2-3.225-3.1-2.755-2m-188.387 27.75c.156 16.333.203 16.719.882 7.25 1.096-15.262 1.078-24.5-.047-24.5-.634 0-.94 6.307-.835 17.25m323.456-9.641c-1.56 1.954-5.6 5.591-8.978 8.081-27.237 20.075-76.174 27.994-109.008 17.639-11.083-3.495-20.901-8.595-25.607-13.301l-3.921-3.921-.563 4.696c-.309 2.583-.951 6.406-1.427 8.495l-.865 3.799L493 705c28.453 19.322 63.345 23.969 101.742 13.551 18.1-4.912 34.333-13.57 44.974-23.988l7.217-7.065-2.532-6.999c-1.393-3.849-2.85-7.324-3.239-7.721s-1.982.877-3.541 2.831m9.012 14.726c-.822 1.968-4.09 6.052-7.263 9.076-4.63 4.414-5.439 5.625-4.1 6.139 2.37.91 10.04 13.257 13.845 22.289 2.559 6.075 3.321 9.472 3.679 16.411.248 4.813.202 8.75-.101 8.75s-1.039-2.587-1.635-5.75c-2.459-13.055-7.08-24.289-14.725-35.804l-3.499-5.27-6.405 4.017c-7.432 4.66-22.905 10.875-34.118 13.704-23.834 6.015-54.283 5.394-74.311-1.516-10.524-3.63-23.987-10.753-28.902-15.29l-4.159-3.84-2.97 3.602c-3.991 4.843-3.82 6.147.809 6.147 4.321 0 16.711 5.585 19.606 8.837 1.472 1.653.32 1.315-5.256-1.547-8.569-4.396-17.498-5.588-21.621-2.887-3.256 2.134-3.277 4.007-.036 3.194 2.732-.686 10.239.713 11.709 2.183.584.584-.927.759-4.005.463-2.718-.261-6.594.07-8.613.737-7.639 2.521-26.947 20.236-39.504 36.244-3.332 4.248-6.058 7.976-6.058 8.285s1.012-.013 2.25-.715c1.425-.808 5.732-1.244 11.75-1.188 17.804.166 32.219 7.319 49 24.315 15.977 16.181 24.342 31.274 27.433 49.496l1.173 6.916 2.016-3.416c3.296-5.587 16.514-20.826 25.737-29.673l8.607-8.257-12.549-19.743c-15.6-24.543-24.883-36.841-32.444-42.984-6.362-5.168-7.932-7.697-2.738-4.408 8.223 5.206 18.776 13.483 18.534 14.536-.147.642 1.349 3.179 3.326 5.639 1.976 2.46 8.009 10.998 13.405 18.973 5.397 7.975 11.714 17.2 14.038 20.5 9.617 13.652 21.679 35.185 28.009 50 4.946 11.575 6.235 12.598 18.922 15.025 26.084 4.991 54.263-1.953 71.853-17.707l4.822-4.318-5.95-17.5c-5.428-15.965-9.495-27.078-18.112-49.5-1.691-4.4-3.076-9.253-3.078-10.784-.003-2.105-.835-3.274-3.415-4.796-3.114-1.837-5.539-4.955-3.808-4.895.396.013 2.806 1.556 5.357 3.428 3.813 2.799 4.723 4.084 5.117 7.226.486 3.879.876 4.953 9.211 25.321 2.588 6.325 7.545 19.97 11.015 30.321l6.309 18.821 2.487-3.321c6.212-8.296 6.218-8.377 1.629-22.557-2.272-7.02-7.174-21.089-10.894-31.264-6.762-18.492-6.765-18.505-7.325-31.5-.863-19.989-6.758-38.509-17.943-56.371l-4.616-7.371zm-342.966 31.332c-.938.937-.833 4.333.133 4.333 1.246 0 3.2-2.259 3.2-3.7 0-1.362-2.188-1.778-3.333-.633M536 729.699c9.274 4.071 40.279 7.683 47.5 5.534 2.249-.669-.629-1.056-11.5-1.545-9.282-.418-18.818-1.555-26.5-3.16-6.6-1.379-12.225-2.475-12.5-2.436s1.075.762 3 1.607m-223.005 9.551c-.003 5.087-.286 13.75-.628 19.25-.425 6.821-.297 9.682.402 9 1.218-1.189 2.217-37.5 1.032-37.5-.441 0-.803 4.163-.806 9.25m448.957 1.003c-5.86 3.949-7.218 7.57-7.949 21.197-.36 6.697-.984 12.71-1.387 13.363-.404.653-.37 1.186.075 1.184.445-.001 1.709-1.675 2.809-3.719 2.779-5.164 7.744-8.278 13.198-8.278 10.612 0 17.281 8.348 17.533 21.948.109 5.875-.29 7.495-3.053 12.39-1.748 3.098-3.178 6.089-3.178 6.647 0 1.315 8.688 1.329 9.5.015 1.2-1.942 5.473-.963 8.89 2.038 2.681 2.354 4.04 2.892 6.035 2.391 1.582-.397 2.575-.227 2.575.44 0 2.754 5.451 4.632 13.956 4.806 10.315.212 14.171-.849 17.511-4.818 4.882-5.802 2.573-19.852-4.397-26.75-2.005-1.984-8.128-6.037-13.608-9.008-12.584-6.823-15.156-8.797-20.572-15.795-7.266-9.387-14.16-16.401-18.093-18.408-5.468-2.789-15.442-2.61-19.845.357m-227.52 18.302c4.351 3.841 22.832 13.584 34.741 18.315 8.975 3.566 21.05 6.72 28.827 7.531 6.203.647 5.841.478-9.5-4.416-13.911-4.438-24.593-8.932-41.746-17.564-8.11-4.082-15.085-7.402-15.5-7.379s1.016 1.604 3.178 3.513m227.929 10.368c-3.757 1.706-4.707 2.979-10.302 13.804-3.542 6.852-9.109 15.584-13.089 20.529-5.502 6.838-6.57 8.686-5.198 8.995.951.214-.829.946-3.955 1.626-10.243 2.229-19.725 9.86-27.218 21.905l-2.664 4.281 1.571 8.219c.863 4.52 1.969 12.378 2.456 17.463.606 6.321 1.673 10.907 3.374 14.5 2.663 5.627 4.293 12.755 2.916 12.755-.461 0-1.679-2.475-2.707-5.5-2.19-6.44-3.918-7.209-3.374-1.5.406 4.251-.791 5.532-1.635 1.75-2.505-11.235-3.428-16.03-3.996-20.75-.77-6.4-4.691-28.314-5.171-28.895-.179-.217-3.287 2.803-6.906 6.712-10.565 11.411-24.723 19.713-40.606 23.809-3.497.902-11.88 1.918-18.63 2.257l-12.273.617 6.601 11c13.214 22.019 26.782 37.38 37.494 42.445 3.534 1.672 7.132 2.815 7.995 2.541.922-.292 2.786.795 4.513 2.634 3.718 3.957 9.858 6.83 14.658 6.858 5.211.031 12.761-2.691 16.161-5.826 2.774-2.559 8.622-13.341 8.623-15.902.001-.687.593-1.25 1.317-1.25 2.002 0 18.784-17.659 23.636-24.87 5.899-8.769 13.032-24.235 18.044-39.13 8.044-23.901 15.534-40.034 23.898-51.474 5.782-7.908 6.77-11.323 5.096-17.617-1.795-6.747-4.564-10.521-9.029-12.308-5.071-2.029-6.51-1.989-11.6.322M432.5 773.026c-4.826.974-9.5 2.704-9.5 3.517 0 .325.887.31 1.972-.034 1.603-.509.86 1.546-3.98 11.007-9.089 17.765-13.976 35.433-12.509 45.222l.701 4.67 1.932-2.454c1.063-1.35 4.055-5.941 6.648-10.204s5.062-7.75 5.485-7.75c.962 0-6.872 15.312-12.248 23.941-4.564 7.326-5.988 11.616-5.994 18.059-.006 5.975 3.814 21.406 9.393 37.949 2.495 7.397 4.366 13.618 4.159 13.825-.618.618-7.465-12.157-9.33-17.408L407.5 888.5l-.284 21c-.391 28.883.849 36.118 14.151 82.576 10.443 36.471 14.047 55.775 13.434 71.962l-.283 7.462-11.146 14.754c-17.27 22.859-21.508 26.972-38.937 37.786-16.673 10.346-23.29 18.549-18.68 23.16l2.018 2.018 1.175-3.559c1.239-3.756 6.013-8.553 11.158-11.214 4.775-2.469 4.414-1.117-.784 2.932-8.329 6.489-10.265 11.304-5.737 14.271 2.201 1.442 2.719 1.483 3.485.273.495-.782.909-2.096.92-2.921.028-2.119 3.7-6.211 9.337-10.407 7.876-5.863 8.271-4.098.709 3.17-7.435 7.145-8.445 9.652-5.108 12.672 2.503 2.265 6.064 1.241 6.094-1.752.032-3.132 2.585-6.002 9.923-11.156 8.04-5.647 12.763-6.339 6.305-.924-2.337 1.959-4.25 3.927-4.25 4.372s1.125 1.091 2.5 1.436c1.582.397 2.5 1.333 2.5 2.549 0 2.845-1.564 3.317-5.038 1.52-4.399-2.274-7.388-1.618-7.772 1.707-.399 3.45 3.347 6.069 8.576 5.997 4.724-.065 8.039-1.314 11.79-4.441 1.619-1.35 4.744-2.784 6.944-3.186 3.323-.608 5.609-2.369 13.503-10.395 6.524-6.633 11.226-10.486 15-12.291 7.097-3.394 10.47-4.445 9.563-2.978-.964 1.559 4.736 1.402 11.159-.308 15.965-4.25 18.029-11.779 9.779-35.685-6.971-20.199-8.254-24.969-9.583-35.626-1.345-10.779-1.753-50.882-.599-58.774.651-4.449.574-4.8-.702-3.185-1.341 1.695-1.644 1.51-4.622-2.818-1.753-2.548-4.441-8.089-5.975-12.315-2.645-7.289-5.713-21.825-4.8-22.738.234-.235 1.669 3.732 3.188 8.815 2.662 8.906 11.016 26.741 12.526 26.741.765 0 2.525-5.404 6.631-20.361 5.032-18.333 2.642-33.983-10.218-66.905l-4.597-11.767-4.517 6.543c-2.484 3.598-4.701 6.358-4.926 6.133s1.854-4.849 4.62-10.276c2.972-5.832 5.841-13.309 7.015-18.282 1.092-4.629 2.509-8.904 3.149-9.5.875-.815 1.003-.401.516 1.665-.364 1.543-.226 2.75.314 2.75 1.012 0 32.077-24.718 40.486-32.216l4.91-4.377-4.513-9.453c-9.578-20.064-24.751-35.862-43.538-45.332-9.688-4.883-21.72-6.624-31.769-4.596m341.184 16.201c-4.904 8.291-4.733 10.706.216 3.049 2.145-3.319 4.403-6.345 5.016-6.724 1.143-.707.571-2.552-.791-2.552-.417 0-2.415 2.802-4.441 6.227M558 787.976c8.515 7.573 34.253 24.104 35.534 22.823.463-.462-13.224-9.907-27.534-19-11.043-7.017-12.229-7.584-8-3.823m-256 .646c0 2.218.232 2.431 1.5 1.378.825-.685 1.5-1.865 1.5-2.622 0-.758-.675-1.378-1.5-1.378-.952 0-1.5.958-1.5 2.622m9.601 9.485c-.803 2.509-1.404 43.897-.644 44.366.408.252 1.06-9.701 1.449-22.117.644-20.544.441-26.142-.805-22.249m221.888 3.878c1.643.533 5.693 1.231 9 1.551 4.93.476 5.665.364 4.089-.624-1.057-.662-5.107-1.36-9-1.55-5.622-.275-6.463-.147-4.089.623M838 802c0 .733.3 1.033.667.667a.95.95 0 0 0 0-1.334c-.367-.366-.667-.066-.667.667m105.07 11.243c.511 1.784.93 5.609.93 8.5s.342 5.257.76 5.257c1.176 0 19.696-6.546 21.267-7.517 1.905-1.177-2.062-2.174-12.148-3.054-4.357-.38-8.209-1.154-8.559-1.721-1.108-1.792 19.343.042 22.879 2.051 11.179 6.354 10.801 5.712 10.801 18.34 0 14.395-.218 14.643-18.019 20.506-7.768 2.558-14.435 4.21-15.731 3.898-1.938-.466-2.25-.142-2.25 2.341v2.882l10.25-3.225c5.638-1.774 12.84-3.987 16.006-4.916 3.165-.93 6.99-2.752 8.5-4.049 2.714-2.332 2.748-2.513 3.067-16.284.32-13.813.301-13.951-2.324-17.071-3.305-3.927-6.914-4.929-21.973-6.095-6.871-.532-12.127-1.388-12.333-2.007-.198-.593-.741-1.079-1.207-1.079-.465 0-.428 1.46.084 3.243m-457.938 13.464c-6.239 12.693-16.189 24.498-26.375 31.295-4.609 3.076-4.796 4.154-.507 2.933 4.961-1.413 10.717-5.886 16.053-12.474 5.044-6.228 15.223-25.382 14.555-27.388-.213-.637-1.889 1.898-3.726 5.634M968 821.999c-.825.533-6.45 2.613-12.5 4.622-11.56 3.838-12.13 4.083-11.343 4.87.27.27 5.837-1.305 12.37-3.5 6.534-2.195 12.688-3.991 13.676-3.991s1.797-.675 1.797-1.5c0-1.706-1.787-1.93-4-.501m-196 3.032c0 .568.563 1.23 1.25 1.472 3.873 1.363 82.32 5.26 83.435 4.145 1.955-1.955-4.328-2.704-38.511-4.589-42.798-2.361-46.174-2.436-46.174-1.028m198.852.287c-.907.689-7.311 3.038-14.231 5.218l-12.583 3.964-.019 11.785c-.018 10.912.111 11.717 1.731 10.862 3.045-1.607 24.986-9.147 26.617-9.147 2.639 0 3.633-3.486 3.633-12.734 0-10.404-1.285-12.887-5.148-9.948M697 830.941c0 1.068.45 2.219 1 2.559.567.351 1-.49 1-1.941 0-1.407-.45-2.559-1-2.559s-1 .873-1 1.941m68.962 2.593c-3.359 8.648-8.962 24.787-8.962 25.819 0 .858 13.88 2.039 50.202 4.273 36.153 2.222 50.315 3.426 50.607 4.3.258.774.93.464 1.854-.856 1.634-2.332 7.15-2.857 9.137-.87.933.933 1.2.391 1.2-2.441 0-2.003-.49-3.944-1.089-4.314-1.447-.894-9.911-18.348-9.911-20.438 0-1.441-2.973-1.781-24.75-2.827-47.384-2.275-65.748-3.54-66.443-4.577-.386-.578-1.202.276-1.845 1.931M509 842.649c-1.925 1.949-7.911 7.1-13.301 11.447s-9.554 7.96-9.25 8.029c.303.069.888.214 1.301.323s3.354.556 6.536.995c10.271 1.414 18.688-2.565 20.073-9.489.673-3.365-.303-14.984-1.251-14.901-.335.029-2.183 1.648-4.108 3.596m354.028-3.149c-.118 1.69 6.42 16.482 7.289 16.492.45.004.504-1.005.12-2.242-1.023-3.298-7.327-15.422-7.409-14.25m-92.509 2.362c5.052 2.258 63.857 4.956 65.075 2.986.288-.466-2.54-.867-6.285-.891-9.593-.06-49.804-1.841-55.809-2.472-3.423-.359-4.363-.24-2.981.377m-26.425 6.388c-2.232 5.866-6.614 15.824-9.34 21.231-1.735 3.44-2.356 5.433-1.461 4.691 2.073-1.72 9.127-16.342 11.058-22.922 1.538-5.24 1.365-7.262-.257-3m-52.765 5.25c.305 1.1 1.801 7.175 3.325 13.5 1.529 6.349 2.933 10.473 3.133 9.207.44-2.777-4.462-22.301-5.952-23.707-.734-.692-.889-.384-.506 1m70.13.567c-.363.586-.482 1.244-.265 1.46.495.496 40.016 3.109 70.064 4.632 18.712.949 23.246.918 25.5-.178 2.712-1.318 2.682-1.341-2.758-2.068-3.025-.405-16.075-1.247-29-1.872-12.925-.624-29.35-1.563-36.5-2.086-17.023-1.244-26.227-1.206-27.041.112M755 863c0 .55.45 1 1 1s1-.45 1-1-.45-1-1-1-1 .45-1 1m-5.564 13.642c-.924 2.122-2.268 8.187-2.986 13.478-1.476 10.88-8.841 54.037-14.006 82.072-1.894 10.281-3.444 19.394-3.444 20.25 0 3.138 1.752 1.447 2.272-2.192.295-2.062 3.072-18.15 6.173-35.75s7.215-41.225 9.143-52.5 3.964-22.233 4.524-24.351c1.373-5.188.4-5.772-1.676-1.007m-9.441 16.365c-2.301 3.388-8.575 10.735-13.942 16.327-10.226 10.653-13.216 14.778-11.196 15.452.628.209 1.143 1.495 1.143 2.856 0 1.396.436 2.206 1 1.858.55-.34 1.019-1.829 1.042-3.309s.904-4.266 1.958-6.191l1.916-3.5.042 2.762c.042 2.747-6.781 42.472-11.534 67.159-2.751 14.289-2.565 15.082 3.301 14.06 5.778-1.007 10.214-3.377 10.737-5.737 1.11-5.01 15.602-88.443 16.947-97.564.35-2.377 1.363-5.428 2.25-6.782.886-1.353 1.366-2.706 1.066-3.006-.3-.301-2.428 2.226-4.73 5.615m-29.943 37.644c-1.896 2.667-3.527 6.199-3.624 7.849-.28 4.771-2.453 19.409-3.934 26.5-3.152 15.085-5.487 31.407-4.618 32.276.501.501 1.721.756 2.709.565 1.548-.298 2.606-5.089 7.588-34.343 3.185-18.699 5.686-34.83 5.558-35.847-.171-1.367-1.13-.585-3.679 3M412.132 937c-.221 8.127 6.649 43.845 9.81 51 1.29 2.922 1.699 5.258-3.52-20.099-1.885-9.158-4.05-20.644-4.811-25.526-.761-4.881-1.427-7.3-1.479-5.375m289.66 1.057c-.94.548-1.462 1.639-1.161 2.424.302.786-1.566 13.487-4.15 28.224-3.377 19.262-5.152 27.153-6.313 28.069-.889.701-14.003 5.33-29.142 10.288-22.653 7.418-27.92 9.491-29.75 11.709-2.285 2.77-2.828 5.43-3.673 17.993-.449 6.663-.307 7.381 1.704 8.668 1.322.846 9.152 2.083 19.72 3.115l17.528 1.712 5.166-2.618c2.842-1.44 5.538-3.281 5.992-4.092s10.266-5.037 21.806-9.392c11.539-4.355 28.744-10.933 38.232-14.617 12.69-4.927 17.986-6.537 20.029-6.088 1.99.437 4.54-.271 8.999-2.5 6.447-3.221 7.736-5.098 6.834-9.952-.255-1.375-.498-5.122-.539-8.327-.063-4.985-.476-6.228-2.854-8.607-2.518-2.518-3.862-2.896-14.25-4.01-12.384-1.328-18.114-1.173-18.664.507-.217.664 1.82 1.088 5.423 1.129 12.101.136 19.216.853 20.421 2.058.688.688 1.825 1.25 2.527 1.25 2.362 0 4.101 4.451 4.578 11.718.381 5.808.158 7.494-1.141 8.629-3.11 2.72-8.394 4.833-10.892 4.355-1.65-.315-10.159 2.449-24.622 7.998-12.155 4.663-29.952 11.355-39.549 14.87-9.598 3.515-17.834 7.078-18.304 7.918-1.653 2.954-8.406 5.513-14.457 5.479-8.811-.049-27.111-2.573-28.795-3.972-.984-.816-1.48-2.994-1.451-6.367.073-8.67 1.503-13.842 4.552-16.464 2.482-2.135 3.387-2.322 8.344-1.722 17.187 2.08 20.635 2.342 21.37 1.627.445-.434-4.168-1.361-10.25-2.062-6.083-.701-11.06-1.563-11.06-1.917 0-.961 47.021-16.403 47.744-15.679 1.332 1.332-1.988 2.823-18.808 8.448-17.921 5.993-18.286 6.314-8.686 7.618 4.859.66 5.579 1.294 3.657 3.216-.71.71-.768 1.741-.165 2.95.51 1.021.729 5.301.488 9.51-.415 7.239-.576 7.68-2.961 8.136l-2.521.482.515-6.636c.283-3.649.82-7.374 1.192-8.277.578-1.404-.383-1.735-6.639-2.287-4.024-.355-10.068-.899-13.433-1.21l-6.116-.565-1.134 3.251c-.623 1.788-1.133 5.832-1.133 8.987v5.736l5.25.582c2.888.32 8.4.878 12.25 1.239s7.828 1.088 8.841 1.616c2.606 1.36 7.503-.737 11.159-4.778 2.568-2.839 7.608-5.039 35-15.281 17.6-6.58 35.15-13.17 39-14.644 4.801-1.838 8.062-2.508 10.38-2.134 2.047.331 4.513-.039 6.25-.937 2.707-1.4 2.87-1.849 2.87-7.887 0-8.426-1.31-9.829-8.343-8.934-2.837.361-5.906 1.041-6.821 1.511-1.84.946-41.282 15.731-63.637 23.855-7.866 2.858-15.028 4.918-15.917 4.577-.97-.372-1.249-.977-.699-1.511 1.007-.978 18.006-7.497 28.667-10.993 8.866-2.908 8.76-5.051-.25-5.051-7.212 0-7.065 1.199-2.857-23.294 2.097-12.213 4.647-26.143 5.666-30.956 1.018-4.812 1.59-8.736 1.271-8.72s-1.349.479-2.288 1.027M406.086 961.45c-.056 2.563.256 3.608.888 2.976.602-.602.635-2.11.086-3.95-.878-2.941-.889-2.93-.974.974M1027 981.188c0 .446 1.773.812 3.941.812s4.22.451 4.561 1.003c.412.667 1.269.655 2.559-.035 3.427-1.835 2.094-2.593-4.561-2.593-3.575 0-6.5.366-6.5.813m-42.5 18.895c-13.75 9.913-28.701 20.588-33.225 23.721l-8.224 5.696-.026 9.921c-.019 7.66-.389 10.324-1.623 11.687-.879.971-1.297 2.252-.93 2.847.412.667 2.648-.597 5.848-3.307 6.276-5.316 65.505-49.64 78.413-58.681 5.079-3.557 9.241-6.751 9.25-7.098s-4.371-.93-9.733-1.295c-5.362-.366-10.875-.856-12.25-1.09-1.984-.337-7.663 3.297-27.5 17.599m-248.901-15.955c-1.296 4.116-1.536 6.872-.598 6.872.571 0 3.807-1.125 7.191-2.5s6.75-2.5 7.48-2.5 1.328-.45 1.328-1-1.969-1-4.375-1-5.774-.28-7.485-.622c-2.184-.437-3.238-.214-3.541.75m320.651 3.592c-.687.246-1.25 1.789-1.25 3.429s-.466 3.853-1.035 4.917c-1.865 3.485.782 2.08 3.076-1.633 2.277-3.684 1.81-7.641-.791-6.713M252 1019.803c0 1.343 11.342 3.54 13.97 2.707 1.227-.39 1.849-1.06 1.381-1.49-1.288-1.184-15.351-2.298-15.351-1.217m211.647 30.697c.339 4.95 1.663 13.098 2.943 18.106 2.566 10.035 2.136 14.668-1.722 18.526-1.607 1.607-1.763 2.289-.792 3.46 1.052 1.268 1.472 1.226 3.205-.317 2.574-2.29 4.719-7.395 4.719-11.228 0-1.659-1.134-6.931-2.521-11.716-1.386-4.785-3.027-11.879-3.645-15.765-1.697-10.665-2.882-11.243-2.187-1.066m-304.235 1.25c1.179 1.186 30.983 4.218 31.968 3.252.993-.973-1.565-1.46-15.55-2.963-11.403-1.225-17.454-1.332-16.418-.289M857 1089.54c-10.725 8.021-19.928 15.005-20.45 15.522-2.114 2.088 1.96 3.226 18.011 5.033 9.214 1.037 16.962 2.094 17.217 2.35.626.625 9.041-5.232 24.722-17.207 8.642-6.6 13-10.567 13-11.833 0-1.048.383-2.497.85-3.222.468-.724.544-1.624.17-2-.375-.375-6.832-.971-14.351-1.322-7.518-.352-15.019-.924-16.669-1.272-2.7-.569-4.95.826-22.5 13.951m20.031-11.077c-.747.899-8.709 7.072-17.694 13.718-8.985 6.645-16.337 12.409-16.337 12.809 0 .651 20.444 3.231 27.185 3.43 1.981.059 7.423-3.555 20.75-13.78 9.936-7.623 18.065-14.191 18.065-14.596s-5.513-1.017-12.25-1.36-13.625-.902-15.306-1.241c-2.177-.438-3.446-.145-4.413 1.02m-465.626 26.692c-.443.715-.275.883.44.44.635-.392 1.155-.911 1.155-1.154 0-.834-.883-.439-1.595.714M833 1138.772c0 .579 1.688 1.323 3.75 1.654 6.906 1.108 22.693 2.539 28.2 2.557 9.394.03 4.261-1.737-8.45-2.908-6.6-.608-14.587-1.387-17.75-1.73-3.752-.408-5.75-.259-5.75.427"/></g></svg>
