<svg xmlns="http://www.w3.org/2000/svg" width="512" height="512" viewBox="0 0 512 512"><g transform="scale(0.4082934609250399)"><path fill="#fff" fill-rule="evenodd" d="M613.997 194.329c-26.718 7.913-45.07 30.753-44.973 55.97.013 3.411.418 7.901.901 9.979.873 3.762.843 3.811-7.317 12-14.667 14.719-24.178 31.037-29.27 50.222-2.419 9.115-2.657 11.681-2.689 29-.019 10.526.45 20.896 1.052 23.25l1.086 4.25h-2.878c-1.751 0-4.126 1.116-6.069 2.851-2.767 2.473-3.248 3.643-3.621 8.803l-.431 5.952-5.144 1.781c-13.239 4.586-39.073 18.726-50.197 27.476-1.413 1.111-5.129 2.535-8.258 3.163-35.964 7.224-60.059 28.897-71.679 64.474-6.875 21.051-7.142 42.148-.862 68.213l2.702 11.213-3.315 17.787c-2.512 13.477-3.434 21.569-3.803 33.395-.54 17.3.262 26.046 4.99 54.392 2.991 17.926 3.173 20.512 3.224 45.749.03 14.712-.071 26.75-.225 26.75-.63.002-12.939-6.43-29.796-15.571-56.187-30.468-92.569-44.571-129.052-50.026-13.693-2.047-34.422-1.514-41.873 1.077-15.656 5.445-23.266 11.753-34.616 28.693-9.291 13.87-15.149 25.228-16.914 32.801-1.882 8.068-1.434 19.352 1.092 27.527 4.765 15.419 11.555 24.84 33.203 46.069 13.905 13.636 19.013 19.444 26.25 29.845 21.476 30.868 37.609 46.303 65.992 63.137 4.396 2.607 18.793 10.352 31.993 17.211 54.982 28.57 99.108 55.046 148.352 89.015 8.993 6.204 19.277 13.044 22.853 15.201 7.841 4.729 20.215 9.995 25.179 10.716 1.989.289 7.216 1.599 11.616 2.911 6.769 2.019 8.363 2.922 10.363 5.867 1.299 1.914 3.512 4.63 4.916 6.034 3.748 3.748 19.426 12.309 25.481 13.913 2.882.764 6.365 1.836 7.74 2.383 5.479 2.179 17.998 11.294 26.81 19.52 5.116 4.776 10.615 9.363 12.221 10.194 6.812 3.523 21.99 2.741 27.855-1.435 2.322-1.654 2.895-1.714 4.575-.486 2.556 1.869 8.941 1.783 13.069-.176 3.139-1.49 3.495-1.463 6.151.465 5.216 3.785 15.593 5.083 23.907 2.99 3.513-.885 6.989-3.386 16.193-11.649 12.92-11.6 20.928-17.248 28.035-19.776 11.927-4.241 26.929-11.164 29.96-13.825 1.838-1.614 4.677-4.875 6.309-7.247 2.549-3.705 3.893-4.599 9.546-6.345 3.619-1.118 7.447-2.032 8.507-2.032 3.763 0 17.801-6.153 26.517-11.623 4.865-3.053 13.12-8.615 18.345-12.36 22.391-16.046 81.687-52.997 113.653-70.823 9.878-5.509 30.2-16.336 45.159-24.061 35.947-18.561 45.885-25.032 61.551-40.08 10.536-10.122 17.363-18.635 29.379-36.637 12.352-18.506 16.604-23.645 32.198-38.916 21.841-21.389 30.075-36.442 30.048-54.932-.02-13.567-3.393-22.691-15.554-42.068-11.8-18.801-23.739-28.263-39.74-31.493-8.228-1.661-27.624-1.423-38.742.475-36.104 6.165-70.197 19.231-117.952 45.206-15.934 8.667-40.41 21.316-41.233 21.31-.147-.001-.377-9.339-.51-20.75-.27-22.998.486-31.978 4.736-56.248 6.458-36.871 6.83-51.289 2.046-79.277-1.672-9.777-3.039-19.75-3.039-22.161s1.222-9.262 2.715-15.223c2.492-9.952 2.714-12.435 2.704-30.339-.011-18.18-.198-20.177-2.768-29.5-7.829-28.403-23.62-48.622-47.151-60.373-7.549-3.77-23.664-9.127-27.456-9.127-.953 0-7.99-4.065-15.638-9.034-14.218-9.236-29.024-16.973-40.156-20.983l-6.25-2.251v-4.916c0-7.963-3.514-12.816-9.28-12.816h-2.411l1.506-7.25c2.275-10.945 2.195-38.877-.142-49.75-4.674-21.753-18.852-45.034-35.124-57.675l-3.951-3.069 1.201-5.205c5.113-22.153-7.073-47.237-27.887-57.401-4.077-1.991-10.094-4.302-13.372-5.135-8.885-2.258-23.394-1.895-32.543.814m5.003 8.234c-20.004 4.32-37.052 21.842-39.831 40.937-.886 6.095-.489 14.502.686 14.498.355-.002 4.57-1.974 9.367-4.383 25.55-12.832 54.777-13.224 81.4-1.091l7.314 3.333.658-3.509c1.343-7.154-.102-17.701-3.386-24.718-9.425-20.14-32.132-30.267-56.208-25.067m-1.887 51.565c-32.621 5.418-60.872 30.158-72.087 63.131-4.42 12.996-5.429 19.845-5.412 36.741.018 18.512 1.153 26.792 6.463 47.169 1.259 4.832 7.082 7.831 15.201 7.831 11.077 0 21.747-5.893 40.772-22.517 22.224-19.42 34.635-26.11 50.315-27.121 5.724-.369 9.561-.079 12.947.977 4.137 1.292 4.888 1.303 5.357.082.715-1.864 2.331-1.829 2.331.05 0 .809 2.501 2.654 5.558 4.1 10.83 5.123 22.626 20.174 26.916 34.343 1.013 3.347 2.149 6.086 2.524 6.086 1.946 0 6.055-14.938 8.689-31.593 1.12-7.078 1.706-16.348 1.67-26.407-.049-13.476-.403-16.806-2.708-25.5-8.521-32.139-29.15-54.766-58.649-64.327-12.343-4.001-27.269-5.14-39.887-3.045m29.612 114.438c-12.122 2.937-20.235 8.101-40.867 26.013-20.093 17.444-29.017 21.921-43.692 21.921h-9.334l.68 5.445c.972 7.774 6.939 31.562 9.817 39.133 5.534 14.559 13.501 25.631 29.945 41.616 26.993 26.242 42.259 27.755 66.037 6.545 22.295-19.886 33.306-37.335 39.837-63.13 5.171-20.424 4.863-29.375-1.556-45.267-7.528-18.638-17.937-28.589-33.823-32.334-7.513-1.772-9.521-1.765-17.044.058m-117.097 20.962c-1.088 2.835-.686 8.912.963 14.54 2.054 7.014 3.012 7.911 4.039 3.781.691-2.781.925-1.823 1.378 5.651.448 7.391 1.141 10.282 3.879 16.169 3.256 7 8.421 13.356 9.764 12.014 1.304-1.304-4.768-25.18-8.559-33.651-2.099-4.693-4.342-10.153-4.983-12.135-.642-1.982-2.221-4.593-3.51-5.804-2.065-1.94-2.418-2.007-2.971-.565m193.803.937c-3.55 5.419-12.432 26.102-12.448 28.988-.009 1.676-.854 7.097-1.877 12.047s-1.689 9.189-1.479 9.421 1.53-.66 2.935-1.979c5.445-5.116 11.681-22.598 10.69-29.97-.439-3.262-.376-3.353 1.037-1.503 1.424 1.863 1.589 1.681 3.107-3.432 1.775-5.975 2.135-14.591.648-15.51-.526-.325-1.702.547-2.613 1.938M510.92 410.853c-16.42 6.512-37.647 19.439-44.325 26.992-1.598 1.808-2.999 2.155-8.69 2.155-15.987 0-37.239 12.104-49.377 28.124-6.412 8.462-13.029 22.565-16.232 34.599-2.268 8.519-2.611 11.835-2.665 25.777-.054 14.114.251 17.246 2.591 26.569 1.459 5.813 4.433 15.263 6.61 21s4.297 11.331 4.711 12.431c.496 1.319-.673.641-3.437-1.993-3.104-2.96-4.396-3.656-4.991-2.693-.442.715-1.886 7.012-3.209 13.993-2.072 10.929-2.397 15.543-2.34 33.193.058 17.945.466 23.055 3.276 41 4.418 28.215 5.47 42.432 4.132 55.816-.906 9.064-.822 12.003.518 18.244a594 594 0 0 1 3.017 15.251c4.584 25.233 14.34 51.088 28.746 76.189 2.21 3.85 9.762 15.775 16.783 26.5 21.059 32.171 33.021 53.823 38.833 70.292 1.706 4.836 4.468 10.491 6.136 12.567 2.28 2.838 3.396 5.746 4.492 11.708 1.353 7.363 4.052 33.241 5.417 51.933.509 6.968 1.076 8.804 4.399 14.238 2.099 3.431 4.939 9.002 6.311 12.38 1.372 3.377 4.889 9.12 7.815 12.761 4.556 5.671 6.848 7.452 15.967 12.413 9.716 5.286 12.592 6.137 12.592 3.725 0-.476-4.612-4.444-10.25-8.82-5.638-4.375-11.474-9.257-12.97-10.849s-6.339-11.295-10.763-21.563c-7.881-18.291-10.419-25.77-8.302-24.461.565.349 1.303 2.015 1.64 3.702.338 1.688 1.903 4.96 3.48 7.271s5.52 9.539 8.765 16.061l5.9 11.859 11 8.766c6.05 4.821 13.925 10.6 17.5 12.842s8.465 5.502 10.867 7.245c4.467 3.243 6.078 2.946 6.118-1.126.018-1.899-4.118-7.648-6.91-9.604-1.948-1.365-2.015-1.289-1.434 1.614.335 1.675.388 3.046.117 3.046-.873 0-5.758-7.911-5.758-9.325 0-.753-6.532-7.767-14.515-15.588l-14.516-14.218-3.604-11.185c-1.983-6.151-4.407-12.769-5.389-14.705-1.909-3.77-2.881-10.407-1.696-11.592.396-.396.72-.03.72.814s1.953 5.362 4.339 10.039 5.2 11.543 6.25 15.256c1.736 6.133 2.416 7.146 7.411 11.042 3.025 2.36 8.864 7.704 12.975 11.876s7.824 7.586 8.25 7.586.775-.814.775-1.809c0-3.087 2.259-5.224 4.804-4.545l2.304.616-2.304 1.179c-2.997 1.533-2.767 6.051.474 9.291 4.466 4.467 8.771-.956 5.148-6.485-.987-1.507-1.835-3.649-1.883-4.761-.089-2.028-10.487-18.637-17.521-27.986-3.726-4.952-3.768-5.114-4.4-16.802-.585-10.842-1.598-17.867-3.167-21.955-.467-1.216-.138-1.473 1.381-1.076 1.665.436 2.239-.277 3.475-4.323l1.481-4.844.104 5.25c.057 2.888.458 5.25.892 5.25.433 0 2.99-2.236 5.682-4.97 4.53-4.598 4.778-5.102 3.333-6.75-1.908-2.175-4.803-7.774-4.803-9.29 0-.61 2.163.715 4.808 2.945 3.349 2.824 6.278 4.328 9.658 4.96 4.09.764 5.734 1.831 10.48 6.802 5.375 5.632 5.816 5.879 9.826 5.496 5.429-.518 11.967 3.176 16.478 9.31 1.788 2.431 3.972 4.437 4.854 4.458 2.216.054 6.897-4.474 6.889-6.663-.016-4.362-6.048-10.187-10.628-10.263-1.175-.019-3.65-.692-5.5-1.496l-3.365-1.461 3.25-.039c1.788-.021 3.25-.33 3.25-.686 0-1.537-7.637-9.769-12.395-13.362-2.851-2.152-7.559-6.878-10.463-10.501-6.145-7.668-7.959-8.635-22.493-11.991-16.553-3.821-25.476-7.264-27.134-10.469-.761-1.472-2.156-3.317-3.101-4.102-10.708-8.886-25.331-44.168-32.921-79.428-6.304-29.288-9.33-41.148-13.069-51.233-5.769-15.557-13.844-29.992-23.184-41.442a13074 13074 0 0 0-14.978-18.325c-8.528-10.407-13.643-21.184-16.136-34-1.88-9.662-3.872-31.55-2.773-30.471.296.291 1.265 4.047 2.153 8.347 4.956 23.995 11.17 37.884 24.664 55.127l9.33 11.921.842-4.462c.464-2.454 2.382-9.109 4.263-14.789 9.516-28.728 13.221-55.525 12.053-87.184-.8-21.707-5.546-57.989-7.584-57.989-.395 0-3.161 1.317-6.146 2.926-6.59 3.553-18.928 8.271-18.928 7.237 0-.411 5.962-5.453 13.25-11.205s16.063-13.117 19.5-16.367 6.25-5.596 6.25-5.215-1.134 4.166-2.52 8.409l-2.521 7.715 1.826 6.375 1.827 6.375 2.696-3.204c4.137-4.916 10.225-15.825 13.739-24.615 7.54-18.862 11.327-35.808 17.415-77.931 2.464-17.05 5.345-35.213 6.403-40.362 1.778-8.658 1.807-9.766.389-14.75-.843-2.963-1.807-5.376-2.143-5.361s-4.922 1.737-10.191 3.826m221.484 1.83c-1.6 5.503-1.569 6.19.985 21.75 1.451 8.837 3.992 25.633 5.648 37.324 7.287 51.474 14.494 75.23 29.283 96.525 2.208 3.181 4.327 5.431 4.708 5 .381-.43 1.502-3.987 2.492-7.905 1.784-7.062 1.782-7.153-.306-10.53-1.933-3.129-4.566-11.847-3.577-11.847.233 0 1.86 1.636 3.615 3.635s10.773 9.692 20.039 17.097 16.673 13.637 16.461 13.849c-.531.531-14.49-4.908-20.788-8.099-2.84-1.439-5.372-2.407-5.628-2.151-1.089 1.089-3.331 13.328-5.343 29.169-1.65 12.994-2.175 22.656-2.227 41-.096 33.551 2.546 51.801 11.271 77.847 1.629 4.866 2.963 10.127 2.963 11.691 0 6.048 1.698 4.84 11.997-8.538 11.016-14.309 19.857-35.154 24.386-57.5.278-1.375.335 2.675.125 9-.445 13.428-3.621 27.32-8.422 36.83-1.715 3.396-9.634 14.28-17.6 24.187-10.757 13.379-15.737 20.518-19.358 27.748-9.297 18.564-14.838 36.049-21.151 66.735-4.91 23.869-13.495 50.685-20.971 65.5-3.769 7.47-9.992 16.914-12.537 19.026-.957.794-2.743 3.026-3.969 4.959-2.719 4.29-10.421 7.484-27.525 11.415-6.339 1.457-12.908 3.489-14.598 4.517s-5.054 4.469-7.475 7.648-7.001 7.84-10.178 10.358c-3.177 2.517-6.913 6.152-8.302 8.077l-2.525 3.5 2.552.316c3.726.463 3.116 1.855-1.164 2.658-7.994 1.5-13.285 6.333-13.285 12.135 0 2.687.577 3.638 2.95 4.865 4.305 2.227 5.329 1.93 7.55-2.188 1.1-2.04 4.014-5.239 6.475-7.11 4.067-3.09 4.919-3.349 9.328-2.826 4.79.567 4.912.511 9.359-4.317 2.478-2.69 6.488-5.823 8.911-6.962 5.421-2.549 5.758-2.559 4.462-.137-1.478 2.762-1.447 2.815 2.965 5.066l4 2.041v-3.843c0-2.113.788-6.059 1.75-8.77l1.75-4.928.282 4c.404 5.724 3.262 18.409 4.291 19.045.479.296 2.067-.246 3.53-1.204 2.575-1.687 2.641-1.681 2.088.208-1.638 5.589-2.673 11.151-4.261 22.894l-1.75 12.943-11.202 16.69c-6.162 9.18-11.497 17.865-11.857 19.299-.804 3.204 1.701 9.625 3.755 9.625 1.876 0 5.624-4.701 5.624-7.053 0-2.854-1.103-4.947-2.607-4.947-.766 0-1.393-.45-1.393-1 0-2.912 4.747.573 5.51 4.045.37 1.683 1.024 2.925 1.455 2.758.43-.167 6.462-5.772 13.405-12.456 12.584-12.118 12.632-12.181 16.182-21.5 1.958-5.141 4.521-10.922 5.695-12.847s3.198-5.525 4.498-8l2.363-4.5-.644 3.986c-.354 2.193-1.924 7.143-3.489 11-1.566 3.858-3.874 10.614-5.129 15.014l-2.283 8-17.032 17.823c-9.367 9.802-16.864 18.352-16.659 19 .204.647.575 2.077.824 3.177l.452 2-1.635-2c-1.613-1.973-1.675-1.955-4.574 1.266-3.275 3.638-3.805 6.965-1.266 7.939 1.141.438 2.517-.368 4.323-2.531 1.457-1.746 2.988-3.174 3.402-3.174 1.465 0 15.212-9.373 25.492-17.381l10.423-8.119 6.358-13c3.497-7.15 7.961-15.7 9.92-19l3.561-6-.659 3.953c-.363 2.175-1.45 5.55-2.416 7.5-.967 1.951-4.135 9.527-7.041 16.836-5.249 13.202-5.332 13.331-12.556 19.632-4 3.488-10.469 8.727-14.376 11.641-3.907 2.915-7.104 5.668-7.104 6.119 0 1.768 3.645.631 11.399-3.556 4.455-2.406 9.804-4.921 11.885-5.589 2.697-.865 4.995-2.805 8-6.754 4.891-6.427 4.14-5.137 10.056-17.282 2.545-5.225 5.705-11.416 7.023-13.759 2.133-3.792 2.472-5.984 3.09-20 1.633-36.985 3.345-49.453 7.51-54.694 1.519-1.911 4.205-7.609 5.969-12.662 5.275-15.107 17.246-38.231 30.223-58.385 4.703-7.304 12.413-19.771 21.581-34.895 15.676-25.862 27.015-54.521 32.882-83.105 2.447-11.919 2.681-15.12 2.815-38.5.142-24.645.27-26.192 3.828-46.157 4.49-25.199 5.959-39.646 5.17-50.843-.616-8.74-5.123-38.025-5.985-38.887-.265-.266-2.341 1.288-4.612 3.452-2.739 2.61-3.874 3.262-3.372 1.935 11.475-30.339 15.546-51.541 13.471-70.152-4.144-37.164-21.921-62.982-51.231-74.407-6.011-2.343-10.13-3.266-15.419-3.455-6.907-.247-7.424-.44-12-4.471-10.078-8.878-30.984-20.975-46.056-26.652-3.45-1.3-6.475-2.363-6.722-2.363s-1.193 2.557-2.101 5.683m-202.297 25.408c-.606 2.975-2.248 13.284-3.649 22.909-4.152 28.508-6.397 41.842-9.007 53.496-6.462 28.854-15.831 49.931-29.627 66.648l-3.833 4.645 1.004 7.355c.553 4.046 1.449 13.431 1.992 20.856 1.161 15.879 2.775 22.641 7.996 33.5 7.275 15.13 19.472 28.24 32.84 35.295 7.125 3.761 19.693 7.854 28.177 9.177 8.174 1.274 33.117 1.276 42.922.003 12.233-1.588 10.348-.082-5.741 4.586-4.576 1.328-13.412 2.931-19.637 3.562-9.557.968-12.791.898-20.776-.451-20.03-3.384-38.939-13.22-50.438-26.237-3.185-3.605-5.921-6.163-6.08-5.686-.351 1.054 8.493 27.051 12.471 36.658 2.814 6.794 3.002 6.992 11.634 12.199 15.614 9.419 38.466 17.042 62.744 20.929 15.764 2.525 61.176 3.136 79.702 1.074 31.981-3.56 55.903-11.093 74.811-23.556 6.104-4.024 6.117-4.043 11.142-16.291 4.719-11.502 11.246-30.539 11.246-32.8 0-.557-2.728 2.156-6.062 6.03-10.361 12.039-26.235 21.76-42.74 26.176-9.107 2.436-27.03 2.88-37.154.919-13.135-2.543-30.879-9.113-20.544-7.606 20.678 3.015 42.386 2.226 57.244-2.08 14.378-4.166 23.445-9.503 33.756-19.868 10.135-10.187 14.319-16.649 19.206-29.659 2.849-7.586 3.517-11.025 4.304-22.176.512-7.259 1.444-17.307 2.069-22.329l1.138-9.131-4.581-5.624c-14.178-17.407-25.116-43.207-30.996-73.114-2.104-10.704-8.246-51.117-10.373-68.25-.602-4.851-1.452-5.334-3.084-1.752-.626 1.374-2.889 4.412-5.028 6.75l-3.89 4.252.78 6.5c1.73 14.417 3.213 52.327 2.658 67.92-1.105 31.023-4.889 49.895-13.236 66.018-7.792 15.051-17.399 24.547-31.967 31.599-15.119 7.318-34.862 10.41-54.025 8.46-21.892-2.226-37.112-8.257-49.288-19.53-16.056-14.866-23.718-32.783-27.354-63.967-1.688-14.475-1.69-59.534-.004-80.613l1.329-16.614-2.584-2.787c-1.421-1.534-3.884-5.042-5.475-7.796l-2.891-5.008zm-70.067 10.754c.1 1.605 42.487 24.962 43.486 23.962.741-.74-21.471-16.558-27.952-19.906-6.383-3.298-15.636-5.713-15.534-4.056m320.553 4.523c-7.69 3.957-27.812 17.559-29.129 19.69-.685 1.108 4.843-1.198 15.036-6.274 7.194-3.583 27.5-16.427 27.5-17.395 0-1.553-6.277.31-13.407 3.979m-229.989 5.882c-.835 5.696-2.571 31.82-2.589 38.97l-.015 5.719 7.25 4.868c3.987 2.677 12.425 7.911 18.75 11.631 16.451 9.675 31 18.945 31 19.752 0 .903-26.608-9.96-36.087-14.734-4.043-2.036-10.114-5.447-13.49-7.579-3.377-2.132-6.428-3.877-6.781-3.877-.991 0-.759 16.963.38 27.789 3.932 37.37 15.206 58.823 36.824 70.07 20.054 10.433 50.044 12.602 72.096 5.214 33.367-11.179 47.697-36.514 49.762-87.982.526-13.107.408-15.284-.793-14.579-.776.455-3.211 2.019-5.411 3.475-9.027 5.972-26.315 14.118-44.5 20.968-5.446 2.051-5.477 2.051-3.134.054 2.403-2.049 20.515-13.354 29.634-18.498 2.75-1.551 9.388-5.697 14.75-9.212l9.75-6.393.006-5.703c.01-9.665-2.296-41.203-3.013-41.203-.372 0-1.233 1.913-1.912 4.25-4.222 14.515-15.037 30.63-31.176 46.45-12.248 12.007-18.036 16.555-25.292 19.877-20.755 9.502-37.671 2.723-65.761-26.351-14.449-14.956-21.121-25.135-26.857-40.976-1.245-3.437-2.377-6.25-2.515-6.25s-.533 1.913-.876 4.25M485 672.893c0 4.994-3.562 21.398-7.081 32.607-7.036 22.415-7.208 23.351-5.457 29.801.866 3.19 4.539 11.715 8.161 18.944l6.586 13.144 4.306-4.944c3.304-3.794 5.379-7.855 8.915-17.445 2.534-6.875 4.599-14.093 4.589-16.04-.028-5.153-2.278-12.966-7.395-25.674-2.484-6.168-5.933-15.843-7.665-21.5-3.472-11.338-4.959-14.006-4.959-8.893m283.875-.393c-.334.55-1.853 4.825-3.377 9.5s-5.465 15.25-8.759 23.5c-7.923 19.844-8.37 24.552-3.468 36.5 1.918 4.675 4.008 10.075 4.646 12s3.119 5.724 5.514 8.442l4.356 4.943 4.747-9.443c5.917-11.77 9.466-22.045 9.466-27.407 0-2.263-1.335-8.384-2.966-13.602-4.292-13.731-7.945-29.506-8.804-38.023-.412-4.076-1.021-6.96-1.355-6.41m-575.612 22.014c-14.618 3.176-24.461 11.651-37.227 32.051-10.424 16.66-12.316 22.237-11.848 34.935.344 9.339.643 10.562 4.524 18.5 4.786 9.787 14.413 22.217 22.95 29.632 3.25 2.823 10.618 8.181 16.373 11.908 11.989 7.762 39.049 27.71 38.43 28.329-.228.227-6.736-2.8-14.463-6.728S197.722 836 197.439 836c-1.564 0 19.426 28.409 27.589 37.34 5.061 5.537 18.468 17.281 25.972 22.75 7.745 5.645 25.784 15.932 49.5 28.23 53.533 27.759 96.506 53.665 149.777 90.293 16.399 11.276 30.09 19.111 36.559 20.922 2.143.6 2.24.475 1.173-1.519-.64-1.195-.888-2.889-.552-3.764.498-1.297 1.298-.934 4.327 1.96 3.889 3.717 8.051 6.286 8.865 5.472.262-.262-1.366-4.143-3.619-8.623-4.673-9.296-5.997-16.292-8.495-44.888-.832-9.531-1.769-17.743-2.083-18.25-.313-.508-1.308-.923-2.211-.923-1.276 0-1.374-.267-.441-1.2.66-.66 1.2-1.523 1.2-1.917s-3.488-3.161-7.751-6.148c-16.613-11.641-38.76-31.681-55.517-50.235-15.528-17.193-25.575-31.828-42.657-62.134-22.37-39.687-57.217-66.847-105.647-82.34-8.839-2.828-17.891-6.353-20.116-7.834-4.244-2.826-9.91-8.928-9.069-9.768 1.015-1.016 10.083 1.72 13.109 3.955 1.988 1.467 7.57 3.339 15.148 5.08 34.32 7.883 64.637 25.111 88.716 50.414 11.362 11.939 18.498 22.045 30.808 43.627 5.647 9.9 12.009 20.573 14.137 23.719 12.76 18.852 36.253 44.284 56.731 61.415C473.718 940.69 477 943.021 477 941.657c0-.189-.859-2.842-1.91-5.895-4.329-12.582-17.418-36.001-35.918-64.262-27.901-42.623-38.815-65.934-46.747-99.842l-1.834-7.841-8.003-4.024c-4.402-2.213-13.872-7.269-21.046-11.236-33.456-18.499-54.685-28.835-75.275-36.65-40.135-15.234-73.888-21.546-93.004-17.393m840.273-.368c-11.743 1.504-29.32 5.786-44.581 10.859-25.609 8.513-42.187 16.026-80.955 36.689-13.475 7.182-29.013 15.318-34.529 18.081l-10.03 5.022-2.848 10.351c-7.37 26.79-21.021 56.44-39.066 84.852-17.829 28.074-28.333 45.85-34.553 58.474C781.015 930.567 776.426 943 777.92 943c1.391 0 20.188-16.111 31.268-26.8 21.672-20.909 38.033-42.55 55.195-73.009 11.119-19.735 17.379-28.165 31.015-41.764 24.038-23.976 49.431-38.271 85.203-47.966 5.587-1.514 12.294-4.15 15.399-6.052 5.375-3.293 12-5.434 12-3.878 0 1.903-5.615 7.854-10.337 10.955-2.84 1.866-10.354 5.168-16.698 7.34-35.008 11.985-56.505 24.695-78.046 46.146-14.172 14.112-18.196 19.568-31.729 43.028-11.67 20.231-18.541 30.561-29.323 44.087-15.58 19.545-49 51.005-66.617 62.708-4.746 3.154-6.836 6.205-4.25 6.205.55 0 1 .45 1 1s-.648 1-1.441 1-1.695.411-2.005.913-1.245 10.739-2.077 22.75c-1.885 27.188-2.476 30.449-7.172 39.52-2.084 4.024-3.942 7.655-4.13 8.067-.923 2.026 2.946.338 6.815-2.973l4.349-3.723-.657 3.286c-.609 3.044-.492 3.241 1.58 2.659 5.478-1.537 17.112-7.976 27.238-15.076 48.641-34.1 101.738-66.519 151.321-92.389 35.253-18.393 42.046-22.124 51.175-28.11 12.192-7.994 24.956-18.949 33.61-28.846 7.469-8.541 27.989-37.816 27.118-38.688-.252-.251-4.027 1.757-8.39 4.463-14.282 8.858-29.928 15.892-20.142 9.054 1.82-1.27 8.708-6.648 15.308-11.95s17.354-13.422 23.897-18.047c20.608-14.564 30.729-25.412 37.802-40.517 4.375-9.343 5.097-21.602 1.849-31.393-3.101-9.346-16.446-31.297-23.074-37.951-12.183-12.234-27.224-16.007-51.438-12.903M515 724.523c0 2.679 4.528 15.193 6.125 16.927 2.361 2.564.439 2.337-2.796-.33-2.019-1.665-3.946-2.857-4.282-2.649-.336.207-2.396 5.628-4.579 12.046l-3.968 11.669 4.5 4.023c17.808 15.924 48.223 27.424 85.301 32.254 15.768 2.054 52.546 2.06 68.398.012 23.44-3.028 49.305-10.934 65.234-19.937 7.652-4.325 17.647-11.967 19.65-15.024 1.595-2.435 1.721-1.996-6.683-23.358l-.922-2.344-3.524 3.094c-1.938 1.702-3.673 3.094-3.856 3.094s1.182-3.817 3.034-8.482c2.966-7.47 4.168-12.518 2.981-12.518-.213 0-4.161 2.007-8.773 4.461-15.549 8.271-35.576 14.411-58.84 18.039-13.979 2.18-58.298 3.134-74.806 1.611-30.07-2.775-59.976-11.441-77.944-22.588l-4.25-2.636zm520.176 20.519c-.331 16.7-6.132 37.409-14.68 52.411-2.366 4.151-4.106 7.547-3.868 7.547.731 0 6.607-6.91 11.922-14.02 9.282-12.417 14.514-27.397 13.029-37.303-.353-2.355-1.905-6.959-3.448-10.23l-2.805-5.947zM213 745c-2.074 4.563-2.5 7.033-2.5 14.5 0 8.807.11 9.225 5.146 19.5 4.173 8.512 6.677 12.109 13.228 19l8.082 8.5-4.99-8.5c-8.807-15.003-13.679-30.71-15.664-50.5l-.802-8zm414 23.826c0 8.626-1.247 10.783-7.5 12.968l-3 1.048 3.076.079c3.079.079 7.424 3.528 7.424 5.893 0 .653.45 1.186 1 1.186s1-.47 1-1.045c0-2.307 4.969-5.956 8.205-6.025l3.295-.071-4-1.438c-6.23-2.239-7.5-4.445-7.5-13.032 0-4.259-.424-7.389-1-7.389-.581 0-1 3.275-1 7.826m-130.907 4.063c-2.251 2.689-4.093 5.317-4.093 5.841s2.363 2.216 5.25 3.76c7.436 3.977 17.152 10.866 24.907 17.662 10.484 9.188 46.618 31.108 62.506 37.918 2.385 1.022 4.337 2.076 4.337 2.341 0 1.482-24.829-7.401-37.149-13.292-5.457-2.609-9.715-4.207-9.464-3.552.252.656 3.112 4.959 6.357 9.562 8.095 11.488 12.578 19.128 17.879 30.472 4.345 9.297 9.379 22.194 9.375 24.02 0 .483-2.964-4.052-6.585-10.078-24.471-40.729-48.298-70.426-65.318-81.41-8.606-5.553-9.266-5.455-7.517 1.117.768 2.888 3.692 15.375 6.498 27.75 8.297 36.597 16.807 59.727 27.406 74.49 8.255 11.499 9.906 12.422 31.415 17.565 6.819 1.63 13.794 3.831 15.5 4.892 3.45 2.143 8.853 7.673 12.849 13.151 1.443 1.979 5.466 5.907 8.939 8.728s8.326 7.654 10.785 10.739c5.756 7.226 8.504 8.695 13.62 7.282 2.801-.773 5.293-.744 9.091.106 4.834 1.082 5.46 1.002 8.227-1.043 1.646-1.217 4.233-4.174 5.747-6.569 1.514-2.396 5.418-6.49 8.674-9.099s8.47-7.884 11.587-11.724c8.204-10.106 11.33-11.934 27.461-16.053 17.292-4.416 19.352-5.281 24.033-10.087 12.564-12.901 24.635-41.301 32.038-75.378 3.461-15.931 8.036-35.514 9.198-39.366.488-1.618-.119-1.485-4.557 1-11.625 6.509-25.768 20.94-42.989 43.866-8.41 11.196-29.503 41.96-32.911 48-2.751 4.876-.807-1.603 3.408-11.359 7.024-16.258 18.307-35.193 27.667-46.431 2.194-2.635 3.769-5.011 3.499-5.281s-4.707 1.608-9.861 4.173c-8.454 4.208-34.07 13.429-37.158 13.377-.684-.012 2.356-1.657 6.756-3.657 17.367-7.892 50.964-27.855 58.908-35.002 5.212-4.689 21.514-16.547 27.342-19.888 1.788-1.025 3.25-2.266 3.25-2.759s-1.848-3.102-4.106-5.8l-4.106-4.904-6.217 5.766c-16.086 14.919-44.068 26.256-80.071 32.441-17.593 3.023-58.673 3.282-76.5.484-38.546-6.051-73.304-20.302-87.924-36.049-1.334-1.436-2.754-2.611-3.157-2.611s-2.575 2.2-4.826 4.889m-216.268 64.066c5.679 5.597 14.004 12.885 18.5 16.196 9.962 7.335 28.533 16.556 42.675 21.186 17.49 5.728 18.372 5.195 3.5-2.113-24.38-11.98-49.951-27.255-70-41.815-3.712-2.695-2.339-1.008 5.325 6.546m689.962-1.099c-18.297 13.547-53.553 33.829-69.787 40.147-8.978 3.494-8.019 4.135 2.071 1.385 20.958-5.714 36.504-12.673 50.237-22.49 8.517-6.088 27.061-22.851 28.731-25.971.567-1.06.903-1.886.746-1.835s-5.556 3.994-11.998 8.764m-405.809 132.99c-1.913 1.566-5.414 4.062-7.781 5.546l-4.303 2.7.209 12.089.208 12.089 4.901 5.889c2.696 3.239 5.326 5.627 5.845 5.306.518-.321.943-2.581.943-5.024 0-5.652 1.557-5.781 2.307-.192.71 5.297 5.599 10.135 11.863 11.74 10.661 2.732 6.474 4.006-5.178 1.576-4.046-.843-7.543-1.347-7.771-1.12-.227.228.918 2.359 2.546 4.735 4.183 6.106 6.953 11.824 8.278 17.085 1.022 4.057 1.597 4.708 5.458 6.183 10.221 3.903 18.154 2.49 23.207-4.135 7.379-9.674 1.052-26.274-8.96-23.51l-3.396.938 4.74-4.74c8.393-8.393 9.121-19.869 1.902-30.006-2.905-4.081-11.686-7.995-17.934-7.995-2.784 0-5.062-.45-5.062-1s.45-1 1-1 1-.623 1-1.384c0-1.666-7.481-8.616-9.275-8.616-.698 0-2.834 1.281-4.747 2.846m117.45 2.792-3.664 3.665 2.368 1.313c2.253 1.249 2.158 1.315-1.944 1.349-8.622.07-18.476 6.727-21.84 14.753-1.734 4.138-1.732 13.427.003 17.58 1.238 2.962 5.469 7.287 10.245 10.472 1.848 1.233 1.845 1.257-.096.825-8.311-1.851-8.408-1.841-11.417 1.168-3.369 3.369-5.511 10.141-4.654 14.71.607 3.235 5.185 8.316 9.492 10.534 2.873 1.479 11.329 1.464 14.113-.025 1.451-.777 1.966-2.099 1.966-5.049 0-4.85 1.668-9.034 6.409-16.074 1.975-2.933 3.591-5.6 3.591-5.928s-2.587-.403-5.75-.168l-5.75.428 5.499-2.845c5.886-3.046 9.923-7.931 10.119-12.244.116-2.54.134-2.533.75.316.914 4.219 2.23 4.059 5.747-.701 2.813-3.809 3.225-5.329 4.263-15.717l1.149-11.5-2.507-2c-1.38-1.1-5.19-3.469-8.467-5.263l-5.96-3.264zm-56.178-.976c-2.013.813-1.444 4.009 1.252 7.032 2.469 2.769 2.523 2.78 4.044.806 2.321-3.013 2.95-6.572 1.339-7.592-1.491-.945-4.616-1.06-6.635-.246m-5.727 15.312c-.983 1.086-2.669 2.255-3.746 2.597-1.434.455-1.801 1.2-1.367 2.775 2.109 7.663 2.718 16.35 1.656 23.614-.94 6.428-.866 8.691.444 13.624.966 3.639 1.758 12.075 2.058 21.916.486 15.977 1.233 22.478 4.423 38.5 1.647 8.268 1.774 8.508 4.686 8.801 1.646.166 3.45-.284 4.008-1s1.982-5.931 3.165-11.589c1.682-8.048 2.154-13.818 2.167-26.5.013-11.54.494-18.229 1.672-23.212.909-3.85 1.477-9.025 1.261-11.5-.935-10.709-.229-25.56 1.423-29.943l1.675-4.444-2.774-2.27c-3.738-3.06-4.731-2.922-7.789 1.087l-2.616 3.431-3.551-3.931c-1.953-2.161-3.879-3.93-4.279-3.93-.401 0-1.533.889-2.516 1.974m26.132 20.181c-.884 3.301-.81 14.851.095 14.814.413-.018 1.588-1.181 2.612-2.586 1.818-2.496 1.816-2.694-.109-8.564-1.647-5.023-2.073-5.624-2.598-3.664m-36.579 4.985c-1.132 3.78-1.059 4.321.842 6.222l2.082 2.082v-6.222c0-3.422-.379-6.222-.842-6.222s-1.4 1.863-2.082 4.14m5.498 30.527c-.352.917-.175 2.132.393 2.7.711.711 1.033.19 1.033-1.667 0-3.085-.499-3.447-1.426-1.033m28.875 2.682c-.84 3.345.014 4.524 1.4 1.933.587-1.096.649-2.475.15-3.284-.648-1.047-1.033-.712-1.55 1.351m-46.354 5.944c-4.944 1.892-6.084 1.97-13.358.91-7.686-1.12-8.012-1.085-9.737 1.045-1.734 2.142-1.706 2.319 1.001 6.228 1.533 2.213 3.853 5.015 5.156 6.226 5.803 5.393 15.895 6.842 22.868 3.285 4.751-2.424 6.975-5.57 7.687-10.873.445-3.324.116-4.377-2.045-6.538-3.02-3.02-4.34-3.052-11.572-.283m52.462.93c-4.316 6.161.284 15.353 8.889 17.762 8.152 2.282 15.128-.598 20.555-8.487l3.202-4.653-2.229-2.373c-2.017-2.146-2.814-2.319-8.352-1.805-4.201.389-7.826.06-11.554-1.05-7.157-2.131-8.655-2.045-10.511.606m-42.648 17.865c-.775.496-3.659 1.745-6.409 2.775-4.037 1.512-6.156 1.716-11 1.062-3.3-.446-6.969-1.102-8.154-1.459-1.632-.492-2.314-.142-2.817 1.443-1.573 4.956 8.615 12.61 18.314 13.759 6.106.723 11.476-1.503 14.131-5.858 2.309-3.787 2.493-5.69.891-9.208-1.334-2.927-2.996-3.77-4.956-2.514m40.126 1.846c-.569 1.064-1.035 3.56-1.035 5.546 0 4.497 3.14 7.882 8.917 9.613 5.949 1.783 13.665-.768 19.636-6.489 4.587-4.396 4.985-5.208 3.608-7.378-.65-1.023-2.006-.968-6.874.279-6.503 1.666-12.466 1.005-18.339-2.032-3.738-1.933-4.671-1.86-5.913.461m-38.592 16.468c-3.908 2.738-10.26 3.803-15.708 2.635-6.671-1.431-7.724-.233-3.762 4.279 3.858 4.394 8.603 6.05 15.661 5.464 8.811-.73 14.348-7.771 9.537-12.125-2.23-2.019-3.149-2.059-5.728-.253m35.779-.224c-2.411 2.411-1.448 7.454 1.973 10.333 2.928 2.463 3.784 2.658 10.25 2.329 4.977-.254 7.791-.921 9.555-2.266 3.351-2.556 7.373-7.534 6.662-8.245-.315-.315-3.431-.033-6.925.626-6.307 1.19-10.05.527-18.765-3.323-.841-.372-2.078-.126-2.75.546"/></g></svg>
